<?xml version="1.0" encoding="UTF-8"?>
<svg width="29px" height="30px" viewBox="0 0 29 30" version="1.1" xmlns="http://www.w3.org/2000/svg" xmlns:xlink="http://www.w3.org/1999/xlink">
    <title>7-eleven_logo copia</title>
    <g id="Page-1" stroke="none" stroke-width="1" fill="none" fill-rule="evenodd">
        <g id="7-eleven_logo-copia" fill="#000000" fill-rule="nonzero">
            <path d="M26.8173591,0 L1.37721102,0 C0.612093789,0 0,0.63197026 0,1.40024783 L2.62690251,27.2862454 C2.62690251,28.0669145 3.13698067,28.6864932 3.74907445,28.6864932 L10.0485397,28.6864932 L10.0485397,30 L18.3628137,30 L18.3628137,28.6864932 L24.4582476,28.6864932 C25.0830934,28.6864932 25.5804196,28.0545229 25.5804196,27.2862454 L28.1818182,1.40024783 C28.1818182,0.619578686 27.5697244,0 26.8173591,0 L26.8173591,0 Z M11.9868367,15.7992565 C12.9304813,10.7930607 17.2916495,6.38166047 23.9864253,3.46964064 L23.9864253,10.3469641 C21.5508021,11.1152416 19.0386672,14.0272615 18.8856438,15.8116481 L18.8856438,15.8116481 C18.8856438,15.7992565 11.9868367,15.7992565 11.9868367,15.7992565 Z M16.9473468,16.4684015 L16.041958,21.1276332 L14.0909091,21.1276332 L13.3385438,16.4684015 L14.664747,16.4684015 L15.2385849,19.6158612 L15.8251748,16.4684015 L16.9473468,16.4684015 Z M6.78403949,17.4969021 L5.59810777,17.4969021 L5.59810777,18.3767038 L6.78403949,18.3767038 L6.78403949,19.244114 L5.59810777,19.244114 L5.59810777,20.1239157 L6.78403949,20.1239157 L6.78403949,21.1276332 L4.08062526,21.1276332 L4.08062526,16.4684015 L6.78403949,16.4684015 L6.78403949,17.4969021 Z M9.98477993,21.1276332 L7.29411765,21.1276332 L7.29411765,16.4684015 L8.81160016,16.4684015 L8.81160016,20.1239157 L9.98477993,20.1239157 L9.98477993,21.1276332 L9.98477993,21.1276332 Z M4.64171123,10.0123916 L4.64171123,3.79182156 L21.6528178,3.79182156 C19.9823118,4.39900867 14.8687783,7.75712515 13.5935829,10.0123916 L4.64171123,10.0123916 Z M10.3673385,16.4684015 L13.0580008,16.4684015 L13.0580008,17.4969021 L11.8848211,17.4969021 L11.8848211,18.3767038 L13.0580008,18.3767038 L13.0580008,19.244114 L11.8848211,19.244114 L11.8848211,20.1239157 L13.0580008,20.1239157 L13.0580008,21.1276332 L10.3673385,21.1276332 L10.3673385,16.4684015 Z M17.9419992,29.5167286 L10.5586179,29.5167286 C10.5586179,26.6294919 10.6861374,23.8909542 10.9284245,21.6356877 L18.1970383,21.6356877 C17.9547511,23.8909542 17.9419992,26.6418835 17.9419992,29.5167286 Z M19.9695599,17.4969021 L18.7963801,17.4969021 L18.7963801,18.3767038 L19.9695599,18.3767038 L19.9695599,19.244114 L18.7963801,19.244114 L18.7963801,20.1239157 L19.9695599,20.1239157 L19.9695599,21.1276332 L17.2788976,21.1276332 L17.2788976,16.4684015 L19.9695599,16.4684015 L19.9695599,17.4969021 Z M24.368984,21.1152416 L22.9025093,21.1152416 L22.9025093,17.7571252 C22.9025093,17.4845105 22.2011518,17.3482032 22.0863842,17.7942999 L22.0863842,17.8438662 L22.0736323,17.8438662 C22.0736323,17.8438662 22.0736323,21.1276332 22.0736323,21.1276332 L20.6071575,21.1276332 L20.6071575,16.4684015 L22.0736323,16.4684015 L22.0736323,17.8438662 C22.0736323,17.8314746 22.0736323,17.8066914 22.0863842,17.7942999 L22.0863842,16.7286245 C23.1575483,15.9851301 24.368984,16.3197026 24.368984,17.1623296 L24.368984,21.1152416 L24.368984,21.1152416 Z" id="Shape"></path>
        </g>
    </g>
</svg>