<?xml version="1.0" encoding="UTF-8"?>
<svg id="Capa_1" xmlns="http://www.w3.org/2000/svg" version="1.1" viewBox="0 0 39 39">
  <!-- Generator: Adobe Illustrator 29.6.1, SVG Export Plug-In . SVG Version: 2.1.1 Build 9)  -->
  <defs>
    <style>
      .st0 {
        fill: #0099d4;
      }
    </style>
  </defs>
  <path class="st0" d="M35.6,25.9l3.1-12.5c.3-1.1,0-2.2-.7-3.1-.7-.9-1.8-1.4-2.9-1.4H11c-.3,0-.5,0-.7,0l-.9-5.7c-.2-.7-.7-1.3-1.5-1.4l-5.5-.6c-1-.2-1.9.5-2.1,1.5,0,.5,0,.9.3,1.3.3.4.7.7,1.2.7l4.2.4,2.3,12.5,1.6,8c0,.2,0,.3.1.5,0,.4.3.7.5.9.4.5.9.9,1.5,1.1-1.2,1-2,2.4-2,4,0,2.9,2.4,5.2,5.3,5.2s5.3-2.3,5.3-5.2-.6-2.8-1.6-3.7h7.8c-1,1-1.6,2.3-1.6,3.7,0,2.9,2.4,5.2,5.3,5.2s5.3-2.3,5.3-5.2-.9-3.2-2.2-4.2c.9-.5,1.5-1.3,1.8-2.3ZM34.7,14.3l-2.7,10.8H13.5s-1.6-8-1.6-8l-.9-4.5h24.1s-.4,1.7-.4,1.7h0ZM17.2,32.4c0,.9-.8,1.7-1.8,1.7s-1.8-.8-1.8-1.7.8-1.7,1.8-1.7,1.8.8,1.8,1.7ZM28.9,32.4c0-.9.8-1.7,1.8-1.7s1.8.8,1.8,1.7-.8,1.7-1.8,1.7-1.8-.8-1.8-1.7Z"/>
</svg>