<?xml version="1.0" encoding="UTF-8"?>
<svg width="201px" height="202px" viewBox="0 0 201 202" version="1.1" xmlns="http://www.w3.org/2000/svg" xmlns:xlink="http://www.w3.org/1999/xlink">
    <title>Group</title>
    <g id="Page-1" stroke="none" stroke-width="1" fill="none" fill-rule="evenodd">
        <g id="Group">
            <ellipse id="Oval-Copy-12" fill="#F7F7F7" cx="100.5" cy="101" rx="100.5" ry="101"></ellipse>
            <g id="higiene" transform="translate(28, 32)" fill="#0099D4">
                <g id="Layer_2" transform="translate(40.6439, 2.197)">
                    <path d="M52.2091072,0 L10.4418214,0 C4.69881964,0 0,4.67977721 0,10.482701 L0,71.9188162 C0,77.6843018 4.66152742,82.4015172 10.4418214,82.4015172 L10.9639125,82.4015172 L10.9639125,84.9098778 C10.9639125,89.6645314 14.8423033,93.5581061 19.5784152,93.5581061 L28.379379,93.5581061 L28.379379,96.0290285 C28.379379,97.67631 29.7218989,99.0240859 31.3627565,99.0240859 C33.0036142,99.0240859 34.3461341,97.67631 34.3461341,96.0290285 L34.3461341,93.5581061 L43.0352212,93.5581061 C47.771333,93.5581061 51.6497239,89.6645314 51.6497239,84.9098778 L51.6497239,82.4015172 L52.1718149,82.4015172 C57.9148167,82.4015172 62.6136364,77.72174 62.6136364,71.9188162 L62.6136364,10.482701 C62.6136364,4.71721543 57.9521089,0 52.1718149,0 L52.2091072,0 Z M47.1746575,84.8724396 C47.1746575,87.1561709 45.3100466,89.0280817 43.0352212,89.0280817 L19.5784152,89.0280817 C17.3035898,89.0280817 15.4389788,87.1561709 15.4389788,84.8724396 L15.4389788,82.364079 L47.1746575,82.364079 L47.1746575,84.8724396 Z M58.13857,71.9188162 C58.13857,75.2133794 55.4535302,77.9089311 52.1718149,77.9089311 L10.4045292,77.9089311 C7.1228139,77.9089311 4.43777411,75.2133794 4.43777411,71.9188162 L4.43777411,16.8097598 L58.13857,16.8097598 L58.13857,71.9188162 L58.13857,71.9188162 Z M4.47506633,12.3171736 L4.47506633,10.482701 C4.47506633,7.1881378 7.16010612,4.49258613 10.4418214,4.49258613 L52.2091072,4.49258613 C55.4908225,4.49258613 58.1758623,7.1881378 58.1758623,10.482701 L58.1758623,12.3171736 L4.47506633,12.3171736 Z" id="Shape" fill-rule="nonzero"></path>
                    <path d="M31.2881721,71.0577372 C36.0615762,71.0577372 39.939967,67.1641626 39.939967,62.3720707 C39.939967,57.5799789 36.0615762,53.6864042 31.2881721,53.6864042 C26.514768,53.6864042 22.6363772,57.5799789 22.6363772,62.3720707 C22.6363772,67.1641626 26.514768,71.0577372 31.2881721,71.0577372 Z M31.2881721,58.1789903 C33.6002897,58.1789903 35.4649006,60.0509012 35.4649006,62.3720707 C35.4649006,64.6932402 33.6002897,66.5651511 31.2881721,66.5651511 C28.9760545,66.5651511 27.1114435,64.6932402 27.1114435,62.3720707 C27.1114435,60.0509012 28.9760545,58.1789903 31.2881721,58.1789903 Z" id="Shape" fill-rule="nonzero"></path>
                    <path d="M31.3254643,107.896943 L31.3254643,107.896943 C30.1321133,107.896943 29.0133467,108.495955 28.379379,109.544225 C24.7247415,115.496902 20.3615518,123.433804 20.3615518,127.402255 C20.3615518,133.467246 25.2841247,138.409091 31.3254643,138.409091 C37.3668038,138.409091 42.2893768,133.467246 42.2893768,127.402255 C42.2893768,121.337264 37.9261871,115.459463 34.2715496,109.544225 C33.6375819,108.495955 32.5561075,107.896943 31.3254643,107.896943 Z M31.2881721,133.916505 C27.708119,133.916505 24.7993259,130.996324 24.7993259,127.402255 C24.7993259,123.808186 27.2979046,119.95205 31.2881721,113.325485 C35.2411473,119.95205 37.7770182,125.380591 37.7770182,127.402255 C37.7770182,130.996324 34.8682251,133.916505 31.2881721,133.916505 Z" id="Shape" fill-rule="nonzero"></path>
                </g>
            </g>
        </g>
    </g>
</svg>