<?xml version="1.0" encoding="UTF-8"?>
<svg width="201px" height="202px" viewBox="0 0 201 202" version="1.1" xmlns="http://www.w3.org/2000/svg" xmlns:xlink="http://www.w3.org/1999/xlink">
    <title>Group Copy 2</title>
    <g id="Page-1" stroke="none" stroke-width="1" fill="none" fill-rule="evenodd">
        <g id="Group-Copy-2">
            <ellipse id="Oval-Copy-5" fill="#F7F7F7" cx="100.5" cy="101" rx="100.5" ry="101"></ellipse>
            <g id="secador-de-manos" transform="translate(33.5319, 33.6311)" fill="#0099D4">
                <g id="Group" transform="translate(0.4681, 8.3689)">
                    <g id="Layer_2" transform="translate(4.3608, 3.6772)" fill-rule="nonzero">
                        <path d="M116.50059,0 L8.59602433,0 C3.84375072,0 0,3.88733502 0,8.61517492 L0,69.6568411 C0,74.419702 3.87869391,78.272016 8.59602433,78.272016 L70.4804109,78.272016 L70.4804109,81.7040776 C70.4804109,86.0466861 74.0096729,89.5838107 78.3426283,89.5838107 L106.891213,89.5838107 C111.224168,89.5838107 114.753431,86.0466861 114.753431,81.7040776 L114.753431,78.272016 L116.50059,78.272016 C121.252864,78.272016 125.096614,74.384681 125.096614,69.6568411 L125.096614,8.61517492 C125.096614,3.85231399 121.21792,0 116.50059,0 Z M110.210816,81.7390986 C110.210816,83.5601925 108.743202,85.066097 106.891213,85.066097 L78.3426283,85.066097 C76.5255825,85.066097 75.0230254,83.5952135 75.0230254,81.7390986 L75.0230254,66.8551582 C75.0230254,57.5745836 82.570754,50.0100398 91.830699,50.0100398 L93.333256,50.0100398 C102.593201,50.0100398 110.14093,57.5745836 110.14093,66.8551582 L110.14093,81.7390986 L110.210816,81.7390986 Z M120.554,69.6918621 C120.554,71.9332085 118.736954,73.7543023 116.50059,73.7543023 L114.753431,73.7543023 L114.753431,66.8551582 C114.753431,55.053069 105.178997,45.4573051 93.4031424,45.4573051 L91.9005853,45.4573051 C80.1247309,45.4573051 70.5502973,55.053069 70.5502973,66.8551582 L70.5502973,73.7543023 L8.59602433,73.7543023 C6.35966028,73.7543023 4.54261448,71.9332085 4.54261448,69.6918621 L4.54261448,8.61517492 C4.54261448,6.3738286 6.35966028,4.55273471 8.59602433,4.55273471 L116.465647,4.55273471 C118.702011,4.55273471 120.519057,6.3738286 120.519057,8.61517492 L120.519057,69.6568411 L120.554,69.6918621 Z" id="Shape"></path>
                        <path d="M51.2966005,52.146323 L19.1838104,52.146323 C14.3267072,52.146323 10.3781269,56.1037001 10.3781269,60.9716241 C10.3781269,65.8395481 14.3267072,69.7969252 19.1838104,69.7969252 L51.2966005,69.7969252 C56.1537037,69.7969252 60.1022839,65.8395481 60.1022839,60.9716241 C60.1022839,56.1037001 56.1537037,52.146323 51.2966005,52.146323 Z M51.2966005,65.2441905 L19.1838104,65.2441905 C16.8426168,65.2441905 14.9207414,63.3180335 14.9207414,60.9716241 C14.9207414,58.6252147 16.8426168,56.6990577 19.1838104,56.6990577 L51.2966005,56.6990577 C53.6377941,56.6990577 55.5596695,58.6252147 55.5596695,60.9716241 C55.5596695,63.3180335 53.6377941,65.2441905 51.2966005,65.2441905 Z" id="Shape"></path>
                        <path d="M86.4843911,94.3116506 C85.4360955,93.6112299 84.038368,93.9264192 83.3395042,94.9770503 L80.159674,99.8099533 C78.5173442,102.296447 78.4474578,105.483361 79.9500149,108.039897 C80.5789923,109.090528 80.5440491,110.386306 79.9150717,111.401916 L77.7485941,114.833978 C77.0846735,115.884609 77.3991622,117.320471 78.4474578,117.985871 C78.8318329,118.231018 79.2511511,118.336081 79.6704694,118.336081 C80.4392196,118.336081 81.1730265,117.95085 81.5923448,117.28545 L83.7588224,113.853389 C85.2963227,111.366895 85.3662091,108.285044 83.863652,105.763529 C83.2346746,104.712898 83.2696178,103.347078 83.9335384,102.331468 L87.1133685,97.4985649 C87.8122323,96.4479338 87.4977436,95.0470924 86.4494479,94.3466717 L86.4843911,94.3116506 Z" id="Path"></path>
                        <path d="M96.6528589,94.3116506 C95.6045633,93.6112299 94.2068358,93.9264192 93.507972,94.9770503 L90.3281419,99.8099533 C88.685812,102.296447 88.6159256,105.483361 90.1184827,108.039897 C90.7474601,109.090528 90.7125169,110.386306 90.0835395,111.401916 L87.9170619,114.833978 C87.2531413,115.884609 87.56763,117.320471 88.6159256,117.985871 C89.0003007,118.231018 89.419619,118.336081 89.8389372,118.336081 C90.6076874,118.336081 91.3414943,117.95085 91.7608126,117.28545 L93.9272903,113.853389 C95.4647905,111.366895 95.5346769,108.285044 94.0321198,105.763529 C93.4031424,104.712898 93.4380856,103.347078 94.1020062,102.331468 L97.2818363,97.4985649 C97.9807001,96.4479338 97.6662114,95.0470924 96.6179158,94.3466717 L96.6528589,94.3116506 Z" id="Path"></path>
                        <path d="M106.786384,94.3116506 C105.738088,93.6112299 104.34036,93.9264192 103.641497,94.9770503 L100.461666,99.8099533 C98.8193366,102.296447 98.7494502,105.483361 100.252007,108.039897 C100.880985,109.090528 100.846042,110.386306 100.217064,111.401916 L98.0505865,114.833978 C97.3866659,115.884609 97.7011546,117.320471 98.7494502,117.985871 C99.1338253,118.231018 99.5531436,118.336081 99.9724618,118.336081 C100.741212,118.336081 101.475019,117.95085 101.894337,117.28545 L104.060815,113.853389 C105.598315,111.366895 105.668202,108.285044 104.165644,105.763529 C103.536667,104.712898 103.57161,103.347078 104.235531,102.331468 L107.415361,97.4985649 C108.114225,96.4479338 107.799736,95.0470924 106.75144,94.3466717 L106.786384,94.3116506 Z" id="Path"></path>
                    </g>
                </g>
            </g>
        </g>
    </g>
</svg>