<?xml version="1.0" encoding="UTF-8"?>
<svg width="201px" height="202px" viewBox="0 0 201 202" version="1.1" xmlns="http://www.w3.org/2000/svg" xmlns:xlink="http://www.w3.org/1999/xlink">
    <title>Group 2</title>
    <g id="Page-1" stroke="none" stroke-width="1" fill="none" fill-rule="evenodd">
        <g id="Group">
            <ellipse id="Oval-Copy-9" fill="#F7F7F7" cx="100.5" cy="101" rx="100.5" ry="101"></ellipse>
            <g id="electrodomesticos" transform="translate(40, 36)" fill="#0099D4">
                <g id="Layer_1" transform="translate(10.4932, 5)">
                    <path d="M85.5204395,47.3187717 C85.8930868,45.5095227 89.2130355,45.2705653 89.5856828,47.5918659 L89.5856828,102.347252 C94.0235735,102.825166 97.3773992,105.658519 97.7500465,110.30112 C98.2243249,116.54815 97.106383,122.146581 89.9922072,123 L8.14530788,123 C0.760115812,122.351401 -0.391703134,116.445739 0.150329311,110.062163 C0.692361757,103.678586 4.04618751,102.483799 8.28081599,102.517936 L8.28081599,32.9813266 C3.87680237,32.5375485 0.48909959,29.6700595 0.150329311,25.0274582 C-0.290072051,19.155933 0.387468506,12.6358092 0.285837422,6.69601048 C0.963377979,3.58956403 3.09763073,1.19998984 6.14656324,0.312433714 C34.1289882,-0.30202822 62.2130443,0.210023392 90.2293464,0.0393395213 C94.4300978,0.517254359 97.4112763,3.58956403 97.7500465,7.82252403 C98.0888168,12.055484 98.1904479,21.1017292 97.7161695,25.4712363 C97.2757682,29.6700595 93.7525573,32.7423692 89.6195599,32.8106427 C89.788945,34.4150711 89.822822,37.9652956 87.315922,37.5556543 C84.8090219,37.146013 85.5543165,34.4492079 85.5543165,32.8106427 L69.2933431,32.8106427 L69.2933431,37.6580646 L93.8203113,40.2183227 C94.599483,40.1159124 94.599483,39.1259459 95.0060073,38.5797575 C101.23938,29.9772904 113.333479,37.760475 109.132728,46.670173 C105.778902,53.770622 95.3109005,52.2003304 93.8541883,44.553693 L69.2255891,41.7886143 C68.3786634,43.2223588 68.0060161,44.7926504 66.9897053,46.1922582 C64.7538214,49.2645678 60.9257173,51.2786375 57.1314902,51.2445007 C58.4188172,64.7968001 39.6170668,64.7968001 40.8705168,51.2445007 C35.9244707,51.2786375 31.2494409,48.035644 29.4878354,43.3589059 C27.72623,38.6821679 28.6747868,41.0034685 28.6747868,40.5938272 L28.6747868,32.7765059 L12.4138134,32.7765059 L12.4138134,102.415525 L35.7889626,102.415525 C34.2306193,100.469729 32.9771693,97.909471 32.7400301,95.3833497 C32.2996287,90.4335175 32.2996287,80.6021265 32.7400301,75.6522943 C32.9771693,73.126173 34.5016355,71.8631123 36.9407816,71.6924285 C45.0035142,71.0779665 53.8792955,72.1020697 62.0436592,71.760702 C63.9068957,72.1703433 65.2958539,73.8430452 65.2958539,75.7888414 C68.3786634,75.4816104 71.4275959,76.3350297 72.8504311,79.3390659 C73.7651108,81.2507252 73.7651108,88.7949523 72.8504311,90.7066117 C71.4614729,93.7106478 68.3786634,94.5982039 65.2958539,94.2226994 C65.3636079,97.2267355 64.1101579,100.128361 62.2469214,102.415525 L85.6220706,102.415525 L85.6220706,47.2504982 L85.5204395,47.3187717 Z M4.21557265,24.6519537 C4.11394157,26.7684337 5.87554702,28.5094092 7.90816869,28.7483666 L91.008518,28.5094092 C92.8378775,27.7925369 93.5154181,26.4612027 93.6848032,24.5495434 C94.0913275,19.1217963 93.3799099,13.1478608 93.6848032,7.65184016 C93.3460329,6.04741177 92.1264599,4.51125693 90.4664856,4.23816274 L7.09512002,4.34057306 C6.04493216,4.47712016 4.24944968,6.42291629 4.24944968,7.37874596 L4.24944968,20.5555408 L27.2519516,20.5555408 C29.013557,20.5555408 29.013557,24.6519537 27.2519516,24.6519537 L4.21557265,24.6519537 Z M65.1942228,32.8447795 L32.672276,32.8447795 L32.672276,40.1500491 C32.672276,40.7986479 33.4514477,42.437213 33.824095,43.0858117 C35.2469302,45.7143433 37.7877072,46.977404 40.6672546,47.1822246 C44.1904655,47.421182 56.5555807,47.6601395 59.401251,46.8408569 C62.2469214,46.0215743 65.1942228,42.8468543 65.1942228,40.1159124 L65.1942228,32.8106427 L65.1942228,32.8447795 Z M100.934487,39.0576724 C96.0223181,39.9452285 97.2080141,47.9673704 102.391199,47.1822246 C107.608262,46.3970788 106.422566,38.0677059 100.934487,39.0576724 Z M52.9984928,51.2786375 L44.8680061,51.2786375 C43.7161871,59.4031898 54.1503117,59.4031898 52.9984928,51.2786375 Z M61.1289794,75.8571149 L36.7375194,75.8571149 L36.7375194,95.4516233 C36.7375194,98.0460181 39.7864519,101.220738 42.1578438,102.040021 C44.5292358,102.859303 53.5744022,102.79103 55.742532,102.040021 C57.9106618,101.289012 61.1628565,98.0460181 61.1628565,95.4516233 L61.1628565,75.8571149 L61.1289794,75.8571149 Z M65.1942228,90.19456 C66.4815498,90.1604233 68.4464175,90.5700646 69.056204,89.1021833 C69.6659905,87.634302 69.3949742,81.8310504 69.056204,81.0459046 C68.4464175,79.5780233 66.4476728,79.9876646 65.1942228,79.9535278 L65.1942228,90.19456 Z M93.651446,110.676625 C93.651446,108.628418 92.0248288,106.716759 89.9583301,106.580212 L7.87429166,106.580212 C3.74129426,107.1264 3.94455643,111.325223 4.18169562,114.670627 C4.41883482,118.016031 5.77391593,118.76704 8.38244708,118.903587 L89.9583301,118.903587 C92.0587059,118.698766 93.6848032,116.923654 93.651446,114.807174 L70.6484243,114.807174 C68.8868188,114.807174 68.8868188,110.710761 70.6484243,110.710761 L93.651446,110.710761 L93.651446,110.676625 Z" id="Shape" fill-rule="nonzero"></path>
                    <path d="M64.1101579,6.28636919 C72.2067675,4.88676145 73.9006189,17.4490943 66.0750255,18.4731976 C58.2494321,19.4973008 56.5894577,7.58356661 64.1101579,6.28636919 Z M66.6170579,10.8948337 C64.8554525,8.98317435 61.9081511,11.7823898 63.7375106,13.7964595 C65.5668701,15.8105292 68.4464175,12.9089034 66.6170579,10.8948337 Z" id="Shape" fill-rule="nonzero"></path>
                    <path d="M80.3711313,6.28636919 C88.4677409,4.88676145 90.1615923,17.4490943 82.3359989,18.4731976 C74.5104054,19.4973008 72.8504311,7.58356661 80.3711313,6.28636919 Z M82.8780313,10.8948337 C81.1164259,8.98317435 78.1691244,11.7823898 79.9984839,13.7964595 C81.8278435,15.8105292 84.7073908,12.9089034 82.8780313,10.8948337 Z" id="Shape" fill-rule="nonzero"></path>
                </g>
            </g>
        </g>
    </g>
</svg>