<?xml version="1.0" encoding="UTF-8"?>
<svg width="201px" height="202px" viewBox="0 0 201 202" version="1.1" xmlns="http://www.w3.org/2000/svg" xmlns:xlink="http://www.w3.org/1999/xlink">
    <title>Group Copy 3</title>
    <g id="Page-1" stroke="none" stroke-width="1" fill="none" fill-rule="evenodd">
        <g id="Group-Copy-3">
            <ellipse id="Oval-Copy-5" fill="#F7F7F7" cx="100.5" cy="101" rx="100.5" ry="101"></ellipse>
            <g id="herramientas" transform="translate(39.5319, 31.6311)" fill="#0099D4">
                <g id="Layer_2" transform="translate(0.4681, 27.3689)">
                    <path d="M54.7969045,9.64698439 L32.3151608,9.64698439 C29.2750586,9.64698439 26.7604061,12.1244201 26.7604061,15.2024462 L26.7604061,26.9139604 C26.7604061,29.9544496 29.2375264,32.4694222 32.3151608,32.4694222 L54.7969045,32.4694222 C57.8370067,32.4694222 60.3516592,29.9919865 60.3516592,26.9139604 L60.3516592,15.2024462 C60.3516592,12.161957 57.8745388,9.64698439 54.7969045,9.64698439 L54.7969045,9.64698439 Z M56.9362357,26.9139604 C56.9362357,28.0776044 55.9979325,29.0535639 54.7969045,29.0535639 L32.3151608,29.0535639 C31.1516649,29.0535639 30.1758296,28.1151413 30.1758296,26.9139604 L30.1758296,15.2024462 C30.1758296,14.0388022 31.1141328,13.0628427 32.3151608,13.0628427 L54.7969045,13.0628427 C55.9604004,13.0628427 56.9362357,14.0012653 56.9362357,15.2024462 L56.9362357,26.9139604 Z" id="Shape" fill-rule="nonzero"></path>
                    <path d="M49.0544892,18.9561367 L38.0951083,18.9561367 C36.9316123,18.9561367 35.9933092,19.8945593 35.9933092,21.0582033 C35.9933092,22.2218473 36.9316123,23.1602699 38.0951083,23.1602699 L49.0544892,23.1602699 C50.2179851,23.1602699 51.1562882,22.2218473 51.1562882,21.0582033 C51.1562882,19.8945593 50.2179851,18.9561367 49.0544892,18.9561367 Z" id="Path" fill-rule="nonzero"></path>
                    <path d="M79.8683649,10.4727963 L73.7506283,10.4727963 C72.5871324,10.4727963 71.6488292,11.4112189 71.6488292,12.5748629 C71.6488292,13.738507 72.5871324,14.6769296 73.7506283,14.6769296 L79.8683649,14.6769296 C81.0318608,14.6769296 81.970164,13.738507 81.970164,12.5748629 C81.970164,11.4112189 81.0318608,10.4727963 79.8683649,10.4727963 Z" id="Path" fill-rule="nonzero"></path>
                    <path d="M79.8683649,18.9561367 L73.7506283,18.9561367 C72.5871324,18.9561367 71.6488292,19.8945593 71.6488292,21.0582033 C71.6488292,22.2218473 72.5871324,23.1602699 73.7506283,23.1602699 L79.8683649,23.1602699 C81.0318608,23.1602699 81.970164,22.2218473 81.970164,21.0582033 C81.970164,19.8945593 81.0318608,18.9561367 79.8683649,18.9561367 Z" id="Path" fill-rule="nonzero"></path>
                    <path d="M79.8683649,27.4770139 L73.7506283,27.4770139 C72.5871324,27.4770139 71.6488292,28.4154365 71.6488292,29.5790806 C71.6488292,30.7427246 72.5871324,31.6811472 73.7506283,31.6811472 L79.8683649,31.6811472 C81.0318608,31.6811472 81.970164,30.7427246 81.970164,29.5790806 C81.970164,28.4154365 81.0318608,27.4770139 79.8683649,27.4770139 Z" id="Path" fill-rule="nonzero"></path>
                    <path d="M142.62208,16.3660903 L139.356785,15.4652046 C137.517711,14.9396879 135.56604,15.4652046 134.214884,16.7789962 L132.676067,18.2804724 C132.263213,18.6933783 131.662699,18.805989 131.137249,18.6558414 L126.03288,17.0417545 C125.432366,16.85407 124.79432,16.7414593 124.193806,16.7414593 L118.451391,16.7414593 L118.451391,13.7009701 L117.888409,12.3121046 L111.470415,5.2551666 L109.931598,4.57950232 L104.6771,4.57950232 C103.776329,2.70265711 101.862191,1.42640236 99.6477955,1.42640236 L93.8303159,1.42640236 C92.8544806,1.42640236 91.9537096,1.68916069 91.1655349,2.10206664 C90.0771033,0.825811894 88.4632218,0 86.6241476,0 L7.01850763,0 C3.15269861,0 0,3.15309996 0,7.0194011 L0,9.98481653 C0,13.8511177 3.11516649,16.9666807 6.9809755,17.0042176 C7.5439574,17.0042176 9.19537096,17.3045129 10.096142,18.3180093 C10.6591239,18.9185997 10.8843166,19.7444116 10.8843166,20.8329819 L7.80668228,39.4512864 L7.80668228,39.4512864 L7.65655378,40.389709 L7.05603976,43.9932518 L7.05603976,43.9932518 L2.28945971,72.9717419 L1.31362442,78.9776466 C0.900771033,81.4926191 1.61388143,84.0075917 3.22776287,85.9595108 C4.8416443,87.9114298 7.24370039,89 9.79588498,89 L32.9156748,89 C36.819016,89 39.9717146,85.8093631 39.9717146,81.943062 L39.9717146,80.4040489 C39.9717146,76.5002109 36.7814838,73.3471109 32.9156748,73.3471109 C29.0498658,73.3471109 31.9023074,73.0092788 31.7146468,72.7840574 C31.5269861,72.5588359 31.2642613,72.1083931 31.3768576,71.5078026 L33.0282712,63.137073 L40.384568,63.137073 C43.0493489,63.137073 45.4889371,61.8983551 47.0652865,59.7962885 C48.6416358,57.6942218 49.1295534,54.9915647 48.416443,52.4390553 L46.9526901,47.4091101 L76.040088,47.4091101 C78.8174654,47.4091101 81.5573106,46.283003 83.5089811,44.293547 L89.5516535,38.1750316 C90.3398281,37.3867566 90.9778743,36.4858709 91.4657919,35.5099114 C92.1789023,35.8477436 92.967077,36.0354281 93.7927838,36.0354281 L99.6102634,36.0354281 C101.824659,36.0354281 103.738797,34.7591733 104.639568,32.8823281 L109.894066,32.8823281 L111.432883,32.2066639 L117.850877,25.1497259 L118.413859,23.7608604 L118.413859,20.6452973 L124.156274,20.6452973 C124.381467,20.6452973 124.644192,20.6452973 124.869384,20.7579081 L129.973754,22.3719949 C130.499203,22.5596795 131.062185,22.6347533 131.587635,22.6347533 C132.938792,22.6347533 134.289948,22.1092366 135.303316,21.1332771 L136.842133,19.6318009 C137.217454,19.2564319 137.817968,19.1062843 138.343418,19.2564319 L141.608713,20.1573176 C142.62208,20.4200759 143.67298,19.8570224 143.935705,18.8435259 C144.198429,17.8300295 143.635448,16.7789962 142.62208,16.5162379 L142.62208,16.3660903 Z M13.7742904,69.5183467 L7.39382889,69.5183467 L11.597427,43.9557149 L17.3773745,43.9557149 C18.6534668,43.9557149 19.8169627,44.5187685 20.6051374,45.494728 C21.393312,46.4706875 21.693569,47.7469422 21.4308442,48.9856601 L17.7902279,66.2150991 C17.3773745,68.1294812 15.6508967,69.5183467 13.6992261,69.5183467 L13.7742904,69.5183467 Z M44.0251842,53.6026993 C44.3629734,54.7663433 44.1377806,56.0050612 43.4246702,56.9810207 C42.7115598,57.9569802 41.585596,58.5200337 40.384568,58.5200337 L33.9290422,58.5200337 L35.2801988,51.7258541 L35.9933092,48.0097005 L35.9933092,48.0097005 C36.0683734,47.5967946 36.4436947,47.2964994 36.8565481,47.2964994 L42.18611,47.2964994 L44.0251842,53.6026993 L44.0251842,53.6026993 Z M88.0128363,30.6301139 C88.0128363,32.2066639 87.4123223,33.70814 86.2863585,34.8342472 L80.2436862,40.9527625 C79.1177224,42.0788697 77.5789052,42.716997 76.0025559,42.716997 L36.819016,42.716997 C34.2292992,42.716997 31.9773717,44.5563054 31.489454,47.1088148 L28.3367554,63.0244623 L28.3367554,63.0244623 L26.8730025,70.5318431 C26.5352133,72.3336145 26.9855989,74.1729228 28.1490948,75.5993252 C29.3125907,77.0257275 31.0390685,77.8140025 32.8406106,77.8140025 C34.6421526,77.8140025 35.355263,78.9401097 35.355263,80.3289751 L35.355263,81.8679882 C35.355263,83.2568536 34.2292992,84.3829608 32.8406106,84.3829608 L9.72082073,84.3829608 C8.51979268,84.3829608 7.39382889,83.8574441 6.64318637,82.9565584 C5.85501171,82.0556727 5.5547547,80.8544918 5.74241533,79.6533108 L6.68071849,74.0227752 L13.8118225,74.0227752 C17.9028243,74.0227752 21.5059084,71.0948967 22.3316152,67.1159848 L25.9722314,49.8865458 C26.5352133,47.2964994 25.8596351,44.6313792 24.2082215,42.6043863 C22.5568079,40.5773935 20.0796876,39.3762126 17.4524388,39.3762126 L12.4231338,39.3762126 L15.3881718,21.3584985 L15.3881718,21.0957402 C15.5383003,18.7309152 14.8251899,16.6663855 13.3989691,15.1273724 C10.996913,12.5748629 7.46889315,12.4247153 7.09357188,12.3871784 L7.05603976,12.3871784 C5.70488321,12.3871784 4.57891942,11.2610713 4.57891942,9.90974272 L4.57891942,6.94432729 C4.57891942,5.59299873 5.70488321,4.46689161 7.05603976,4.46689161 L86.6616798,4.46689161 C87.4498544,4.46689161 88.0503684,5.10501898 88.0503684,5.85575706 L88.0503684,30.592577 L88.0128363,30.6301139 Z M99.6102634,31.7186841 L93.7927838,31.7186841 C93.267334,31.7186841 92.7794164,31.4183889 92.5542236,30.967946 C92.5542236,30.8553353 92.5542236,30.7427246 92.5542236,30.6301139 L92.5542236,6.26866301 C92.8169485,5.85575706 93.267334,5.55546183 93.7927838,5.55546183 L99.6102634,5.55546183 C100.323374,5.55546183 100.96142,6.11851539 101.036484,6.83171658 C101.036484,6.86925348 101.036484,6.94432729 101.036484,6.98186419 L101.036484,30.2922817 C101.036484,30.3298186 101.036484,30.4048925 101.036484,30.4424294 L101.036484,30.4424294 C100.96142,31.1556305 100.360906,31.7186841 99.6102634,31.7186841 Z M114.247793,22.8224378 L108.993295,28.603121 L105.20255,28.603121 L105.20255,8.70856179 L108.993295,8.70856179 L114.247793,14.489245 L114.247793,22.8224378 Z" id="Shape" fill-rule="nonzero"></path>
                </g>
            </g>
        </g>
    </g>
</svg>