<?xml version="1.0" encoding="UTF-8"?>
<svg width="201px" height="202px" viewBox="0 0 201 202" version="1.1" xmlns="http://www.w3.org/2000/svg" xmlns:xlink="http://www.w3.org/1999/xlink">
    <title>Group 3</title>
    <g id="Page-1" stroke="none" stroke-width="1" fill="none" fill-rule="evenodd">
        <g id="Group">
            <ellipse id="Oval-Copy-8" fill="#F7F7F7" cx="100.5" cy="101" rx="100.5" ry="101"></ellipse>
            <g id="jardin" transform="translate(42, 42)" fill="#0099D4">
                <g id="Layer_1" transform="translate(14.631, 0)">
                    <path d="M73.1445809,30.8169691 C72.0742901,12.132696 56.0810872,-3.29412154 36.9075915,0.60867892 C34.3388935,1.13110103 23.3913473,4.60367152 27.7642499,8.62939484 C29.9354112,10.6268911 32.3206308,8.22989558 34.4306327,7.43089706 C52.717316,0.547217496 67.6708078,16.4349958 67.7319673,34.1666168 C68.1295039,35.1499996 72.4106672,37.4240723 73.6644365,38.5611086 C85.3458963,49.3475887 82.471401,71.5044323 67.2426915,77.2818062 C65.897183,77.8042283 62.869789,78.2037275 62.0135563,78.9412646 C61.2796426,79.5866096 59.5671773,83.1821029 58.5580459,84.4420621 C55.5306519,88.1604783 51.0048507,91.2028189 46.2038318,91.8788945 L46.2038318,66.188019 L60.8209465,52.5743135 C62.4722524,50.0851258 60.2093518,47.3193617 57.4571754,48.1490909 C55.1025355,48.8558973 49.1089069,56.7536903 46.2344116,58.075111 L46.2344116,37.885033 C46.2344116,36.4099588 43.3293364,35.4880374 41.9226685,36.3177666 C41.6168711,36.5021509 40.3936816,38.0079558 40.3936816,38.2230708 L40.3936816,73.9321585 L29.6601936,64.1905227 C26.9080172,63.0534864 24.7062761,64.8665984 25.4401898,67.7552853 L40.3936816,82.0450666 L40.3936816,91.8788945 C35.0728072,91.5715874 29.965991,88.0990169 26.8774375,83.91964 C25.9906251,82.7211423 24.5227976,79.5251482 23.8194637,78.8798032 C22.9326513,78.0808047 19.2630827,77.2818062 17.7340958,76.5442691 C4.98234512,70.3059345 2.13842949,51.7753149 10.8842345,41.0195656 C12.9636567,38.4381858 15.0736586,37.5469951 17.2142403,35.6724217 C19.0796043,34.0436939 18.1622122,32.6915426 18.4068501,30.6633156 C18.8349664,27.4365908 19.4771409,24.2713274 20.7309101,21.2904483 C21.5565631,19.3236827 24.3698989,15.7896508 24.0029421,14.0072695 C23.3607676,10.964929 20.2110546,11.2107747 18.4374298,13.4541167 C15.501775,17.2032636 13.7893096,22.9191761 12.933077,27.5902443 C12.7495985,28.5736271 12.9024972,31.0013534 12.4743809,31.7696212 C12.3826417,31.9232748 10.5784372,32.9988497 10.1503208,33.398349 C-4.89491023,47.3500924 -3.27418412,72.3341615 15.4100357,81.9528744 C16.6026455,82.5674887 18.651488,82.9362572 19.5994598,83.6123329 C20.5474317,84.3191393 23.1161297,88.8672847 24.5533774,90.3423589 C28.4675838,94.3066208 34.7364301,97.6562684 40.3325221,97.7484606 L40.3325221,113.390393 L18.0398932,113.390393 C16.7861239,113.390393 15.7464129,114.435237 15.7464129,115.695197 C15.7464129,116.955156 16.7861239,118 18.0398932,118 L68.6187797,118 C69.872549,118 70.91226,116.955156 70.91226,115.695197 C70.91226,114.435237 69.872549,113.390393 68.6187797,113.390393 L46.1732521,113.390393 L46.1732521,97.7484606 C52.5032578,97.0416542 58.4051472,93.5998144 62.4722524,88.7750926 C63.4202243,87.6380562 65.1021098,84.564985 65.897183,83.91964 C66.8757346,83.1513722 70.5758829,82.2601816 72.2577685,81.3382602 C78.0067592,78.2344583 82.9912565,72.1190465 85.040099,65.9114426 C85.7740127,63.6681006 86.07981,61.3325665 86.6608251,59.0892245 L86.6608251,52.8816206 C85.8351721,43.9389833 80.3613991,35.7031524 73.1140012,30.7862384 L73.1445809,30.8169691 Z" id="Path" fill-rule="nonzero"></path>
                </g>
            </g>
        </g>
    </g>
</svg>