<?xml version="1.0" encoding="UTF-8"?>
<svg width="201px" height="202px" viewBox="0 0 201 202" version="1.1" xmlns="http://www.w3.org/2000/svg" xmlns:xlink="http://www.w3.org/1999/xlink">
    <title>Group 5</title>
    <g id="Page-1" stroke="none" stroke-width="1" fill="none" fill-rule="evenodd">
        <g id="Group">
            <ellipse id="Oval-Copy-5" fill="#F7F7F7" cx="100.5" cy="101" rx="100.5" ry="101"></ellipse>
            <g id="papel" transform="translate(37, 38)" fill="#0099D4">
                <g id="Layer_2" transform="translate(4.8092, 1.9237)">
                    <path d="M77.2059746,82.6819051 L70.2623966,82.6819051 C69.1712629,82.6819051 68.2785171,83.5677827 68.2785171,84.6505219 C68.2785171,85.7332612 69.1712629,86.6191387 70.2623966,86.6191387 L77.2059746,86.6191387 C78.2971083,86.6191387 79.189854,85.7332612 79.189854,84.6505219 C79.189854,83.5677827 78.2971083,82.6819051 77.2059746,82.6819051 Z" id="Path" fill-rule="nonzero"></path>
                    <path d="M49.4316625,82.6819051 L42.4880845,82.6819051 C41.3969508,82.6819051 40.5042051,83.5677827 40.5042051,84.6505219 C40.5042051,85.7332612 41.3969508,86.6191387 42.4880845,86.6191387 L49.4316625,86.6191387 C50.5227962,86.6191387 51.415542,85.7332612 51.415542,84.6505219 C51.415542,83.5677827 50.5227962,82.6819051 49.4316625,82.6819051 Z" id="Path" fill-rule="nonzero"></path>
                    <path d="M35.5445065,82.6819051 L28.6009285,82.6819051 C27.5097948,82.6819051 26.6170491,83.5677827 26.6170491,84.6505219 C26.6170491,85.7332612 27.5097948,86.6191387 28.6009285,86.6191387 L35.5445065,86.6191387 C36.6356402,86.6191387 37.5283859,85.7332612 37.5283859,84.6505219 C37.5283859,83.5677827 36.6356402,82.6819051 35.5445065,82.6819051 Z" id="Path" fill-rule="nonzero"></path>
                    <path d="M63.3188186,82.6819051 L56.3752405,82.6819051 C55.2841069,82.6819051 54.3913611,83.5677827 54.3913611,84.6505219 C54.3913611,85.7332612 55.2841069,86.6191387 56.3752405,86.6191387 L63.3188186,86.6191387 C64.4099523,86.6191387 65.302698,85.7332612 65.302698,84.6505219 C65.302698,83.5677827 64.4099523,82.6819051 63.3188186,82.6819051 Z" id="Path" fill-rule="nonzero"></path>
                    <path d="M90.4979668,82.6819051 L84.1826173,82.6819051 C83.0914836,82.6819051 82.1987378,83.5677827 82.1987378,84.6505219 C82.1987378,85.7332612 83.0914836,86.6191387 84.1826173,86.6191387 L90.4979668,86.6191387 C91.5891005,86.6191387 92.4818462,85.7332612 92.4818462,84.6505219 C92.4818462,83.5677827 91.5891005,82.6819051 90.4979668,82.6819051 Z" id="Path" fill-rule="nonzero"></path>
                    <path d="M107.757718,0 L107.757718,0 C107.757718,0 107.592395,0 107.592395,0 L10.4814963,0 L10.4814963,0 C4.69518132,0.0984308394 0,4.79030085 0,10.5649101 L0,61.4536541 C0,67.2938839 4.76131064,72.0185642 10.6468196,72.0185642 L20.5000875,72.0185642 L20.5000875,122.152672 L24.4678463,122.152672 C27.6089888,122.152672 29.2952863,120.413727 30.2210967,119.495039 C30.2210967,119.495039 30.287226,119.429419 30.3202907,119.396608 C30.3202907,119.396608 30.38642,119.462229 30.4194846,119.495039 C31.345295,120.413727 33.0315926,122.152672 36.172735,122.152672 C39.3138774,122.152672 41.0001749,120.413727 41.9259853,119.495039 C41.9259853,119.495039 41.9921147,119.429419 42.0251793,119.396608 C42.0251793,119.396608 42.0913086,119.462229 42.1243733,119.495039 C43.0501837,120.413727 44.7364812,122.152672 47.8776236,122.152672 C51.0187661,122.152672 52.7050636,120.413727 53.630874,119.495039 C53.630874,119.495039 53.6970033,119.429419 53.730068,119.396608 C53.730068,119.396608 53.7961973,119.462229 53.8292619,119.495039 C54.7550723,120.413727 56.4413699,122.152672 59.5825123,122.152672 C62.7236547,122.152672 64.4099523,120.413727 65.3357627,119.495039 C65.3357627,119.495039 65.401892,119.429419 65.4349566,119.396608 C65.4349566,119.396608 65.5010859,119.462229 65.5341506,119.495039 C66.459961,120.413727 68.1462585,122.152672 71.287401,122.152672 C74.4285434,122.152672 76.1148409,120.413727 77.0406513,119.495039 C77.0406513,119.495039 77.1067806,119.429419 77.1398453,119.396608 C77.1398453,119.396608 77.2059746,119.462229 77.2390393,119.495039 C78.1648497,120.413727 79.8511472,122.152672 82.9922896,122.152672 C86.133432,122.152672 87.8197296,120.413727 88.74554,119.495039 C88.74554,119.495039 88.8116693,119.429419 88.8447339,119.396608 C88.8447339,119.396608 88.9108632,119.462229 88.9439279,119.495039 C89.8697383,120.413727 91.5560358,122.152672 94.6971783,122.152672 L98.6980018,122.152672 L98.6980018,118.182628 C98.6649371,118.182628 98.2020319,72.346667 98.2020319,72.346667 L98.2020319,72.0185642 C98.2020319,72.0185642 107.658524,72.0185642 107.658524,72.0185642 C113.544033,72.0185642 118.305344,67.2938839 118.305344,61.4536541 L118.305344,10.5649101 C118.305344,4.79030085 113.610162,0.0984308394 107.823847,0 L107.757718,0 Z M88.7786046,115.229703 C85.8689148,115.229703 85.8689148,118.182628 82.9261603,118.182628 C79.9834058,118.182628 80.0164705,115.229703 77.073716,115.229703 C74.1309615,115.229703 74.1640261,118.182628 71.2212716,118.182628 C68.2785171,118.182628 68.3115818,115.229703 65.3688273,115.229703 C62.4260728,115.229703 62.4591375,118.182628 59.516383,118.182628 C56.5736285,118.182628 56.6066932,115.229703 53.6639387,115.229703 C50.7211842,115.229703 50.7542488,118.182628 47.8114943,118.182628 C44.8687398,118.182628 44.9018045,115.229703 41.95905,115.229703 C39.0162955,115.229703 39.0493602,118.182628 36.1066057,118.182628 C33.1638512,118.182628 33.1969158,115.229703 30.2541614,115.229703 C27.3114069,115.229703 27.3444715,118.182628 24.401717,118.182628 L24.401717,72.346667 L94.0689498,72.346667 L94.531855,118.182628 C91.6221651,118.182628 91.6221651,115.229703 88.6794106,115.229703 L88.7786046,115.229703 Z M100.615752,4.19971582 C100.549623,4.26533638 100.483493,4.33095694 100.417364,4.42938778 C100.218976,4.62624945 100.020588,4.85592141 99.8222001,5.01997281 C99.8222001,5.01997281 99.8222001,5.01997281 99.8222001,5.01997281 C99.5907475,5.21683449 99.3923596,5.41369617 99.160907,5.61055785 C99.0947777,5.67617841 99.0286484,5.74179897 98.9294544,5.77460925 C98.7641311,5.90585037 98.5988078,6.03709149 98.4334845,6.16833261 C98.3342906,6.23395317 98.2681612,6.29957372 98.1689673,6.332384 C98.003644,6.46362512 97.805256,6.56205596 97.6399328,6.69329708 C97.5738034,6.72610736 97.5076741,6.79172792 97.4415448,6.8245382 C97.1770276,6.9885896 96.945575,7.11983072 96.6810577,7.25107184 C96.6149284,7.25107184 96.5818637,7.3166924 96.5157344,7.3166924 C96.2842818,7.41512324 96.0858939,7.54636436 95.8544413,7.6447952 C95.7552473,7.67760548 95.689118,7.71041576 95.589924,7.77603632 C95.3915361,7.84165688 95.1931481,7.94008772 94.9947602,8.00570828 C94.8955662,8.03851855 94.7963722,8.07132883 94.7302429,8.10413911 C94.4987903,8.16975967 94.2673377,8.26819051 94.0358851,8.33381107 C93.9697558,8.33381107 93.9366911,8.36662135 93.8705618,8.39943163 C93.5729799,8.46505219 93.275398,8.56348303 93.0108807,8.62910359 C92.9447514,8.62910359 92.8455575,8.62910359 92.7794281,8.66191387 C92.5479755,8.69472415 92.3495876,8.76034471 92.118135,8.79315499 C92.018941,8.79315499 91.9197471,8.79315499 91.8205531,8.82596527 C91.6221651,8.82596527 91.3907125,8.89158583 91.1592599,8.89158583 C91.060066,8.89158583 90.960872,8.89158583 90.861678,8.89158583 C90.5640961,8.89158583 90.2334495,8.89158583 89.9358676,8.89158583 L28.3694759,8.89158583 C28.071894,8.89158583 27.7412474,8.89158583 27.4436655,8.89158583 C27.3444715,8.89158583 27.2452775,8.89158583 27.1460836,8.89158583 C26.914631,8.89158583 26.716243,8.85877555 26.4847904,8.82596527 C26.3855965,8.82596527 26.2864025,8.82596527 26.1872085,8.79315499 C25.9557559,8.76034471 25.757368,8.72753443 25.5259154,8.66191387 C25.4597861,8.66191387 25.3605921,8.66191387 25.2944628,8.62910359 C24.9968809,8.56348303 24.6992989,8.49786247 24.401717,8.39943163 C24.3355877,8.39943163 24.3025231,8.36662135 24.2363937,8.33381107 C24.0049411,8.26819051 23.7734885,8.20256995 23.5420359,8.10413911 C23.442842,8.10413911 23.343648,8.03851855 23.2775187,8.00570828 C23.0791307,7.94008772 22.8807428,7.84165688 22.6823548,7.77603632 C22.5831609,7.74322604 22.5170316,7.71041576 22.4178376,7.6447952 C22.186385,7.54636436 21.987997,7.44793352 21.7565444,7.3166924 C21.7234798,7.3166924 21.6573505,7.28388212 21.6242858,7.25107184 C21.3597686,7.11983072 21.0952513,6.95577932 20.8637987,6.8245382 C20.7976694,6.79172792 20.7315401,6.72610736 20.6654108,6.69329708 C20.4670228,6.56205596 20.3016995,6.46362512 20.1033116,6.332384 C20.0371823,6.26676344 19.9379883,6.20114289 19.871859,6.16833261 C19.7065357,6.03709149 19.5412124,5.90585037 19.3758891,5.77460925 C19.3097598,5.70898869 19.2436305,5.67617841 19.1775012,5.61055785 C18.9460486,5.41369617 18.714596,5.21683449 18.516208,5.01997281 C18.516208,5.01997281 18.516208,5.01997281 18.516208,5.01997281 C18.3178201,4.82311113 18.0863675,4.62624945 17.8879796,4.3965775 C17.8218502,4.33095694 17.7557209,4.26533638 17.6895916,4.19971582 C17.6234623,4.10128498 17.5242683,4.00285414 17.458139,3.93723358 L100.880269,3.93723358 C100.81414,4.03566442 100.714946,4.13409526 100.648817,4.19971582 L100.615752,4.19971582 Z M114.271455,61.4208438 C114.271455,65.0627849 111.262572,68.0485203 107.592395,68.0485203 L10.6468196,68.0485203 C6.97664267,68.0485203 3.96775887,65.0627849 3.96775887,61.4208438 L3.96775887,10.5649101 C3.96775887,6.92296904 6.97664267,3.93723358 10.6468196,3.93723358 L12.5315051,3.93723358 C12.5315051,3.93723358 12.5315051,3.93723358 12.5315051,3.93723358 C12.5645697,4.00285414 12.6306991,4.0684747 12.6637637,4.13409526 C12.729893,4.2325261 12.7960223,4.36376722 12.8621517,4.46219806 C12.8952163,4.52781861 12.9613456,4.59343917 12.9944103,4.69187001 C13.0605396,4.79030085 13.1266689,4.88873169 13.1927982,4.98716253 C13.2589275,5.05278309 13.2919922,5.11840365 13.3581215,5.21683449 C13.4242508,5.31526533 13.4903801,5.41369617 13.5565095,5.51212701 C13.6226388,5.57774757 13.6557034,5.64336813 13.7218327,5.74179897 C13.7879621,5.84022981 13.8540914,5.93866065 13.9202207,6.00428121 C13.98635,6.06990177 14.0524793,6.13552233 14.085544,6.23395317 C14.1516733,6.332384 14.2178026,6.39800456 14.3169966,6.4964354 C14.3831259,6.56205596 14.4492552,6.62767652 14.4823199,6.69329708 C14.5484492,6.79172792 14.6476431,6.85734848 14.7137725,6.95577932 C14.7799018,7.02139988 14.8460311,7.08702044 14.9121604,7.152641 C14.9782897,7.25107184 15.0774837,7.3166924 15.143613,7.38231296 C15.2097423,7.44793352 15.2758716,7.51355408 15.3420009,7.57917464 C15.4081303,7.6447952 15.5073242,7.74322604 15.5734535,7.8088466 C15.6395829,7.87446716 15.7057122,7.94008772 15.7718415,8.00570828 C15.8710355,8.07132883 15.9371648,8.16975967 16.0363587,8.23538023 C16.1024881,8.30100079 16.1686174,8.36662135 16.2347467,8.39943163 C16.3339407,8.46505219 16.40007,8.56348303 16.4992639,8.62910359 C16.5653933,8.69472415 16.6315226,8.72753443 16.6976519,8.79315499 C16.7968459,8.85877555 16.8960398,8.95720639 16.9952338,9.02282695 C17.0613631,9.08844751 17.1274924,9.12125779 17.1936218,9.18687835 C17.2928157,9.25249891 17.3920097,9.35092975 17.4912037,9.41655031 C17.557333,9.44936059 17.6234623,9.51498115 17.6895916,9.54779143 C17.7887856,9.61341199 17.9210442,9.71184283 18.0202382,9.77746339 C18.0863675,9.81027367 18.1194322,9.84308394 18.1855615,9.87589422 C18.3508848,9.97432506 18.516208,10.0727559 18.6815313,10.203997 C18.6815313,10.203997 18.6815313,10.203997 18.6815313,10.203997 C18.8468546,10.3024279 19.0452426,10.4008587 19.2105658,10.4992895 C19.2436305,10.4992895 19.3097598,10.5649101 19.3428245,10.5649101 C19.4750831,10.6305307 19.6073417,10.6961512 19.7396004,10.7945821 C19.8057297,10.8273923 19.871859,10.8602026 19.9379883,10.8930129 C20.0371823,10.9586335 20.1694409,11.024254 20.2686349,11.0570643 C20.3347642,11.0898746 20.4008935,11.1226849 20.5000875,11.1554951 C20.5992814,11.2211157 20.7315401,11.253926 20.830734,11.3195465 C20.8968634,11.3523568 20.9960573,11.3851671 21.0621866,11.4179774 C21.1613806,11.4507877 21.2936392,11.5164082 21.3928332,11.5492185 C21.4589625,11.5492185 21.5581565,11.6148391 21.6242858,11.6476493 C21.7234798,11.6804596 21.8557384,11.7460802 21.9549324,11.7788905 C22.0541264,11.7788905 22.1202557,11.844511 22.2194496,11.8773213 C22.3186436,11.9101316 22.4509022,11.9429419 22.5500962,11.9757521 C22.6492902,11.9757521 22.7154195,12.0413727 22.8146135,12.074183 C22.9138074,12.1069933 23.0460661,12.1398035 23.14526,12.1726138 C23.244454,12.1726138 23.3105833,12.2382344 23.4097773,12.2382344 C23.5089713,12.2382344 23.6412299,12.3038549 23.7404239,12.3366652 C23.8396179,12.3366652 23.9057472,12.3694755 24.0049411,12.4022858 C24.1041351,12.4022858 24.2363937,12.4679063 24.3355877,12.4679063 C24.4347817,12.4679063 24.500911,12.5007166 24.600105,12.5335269 C24.6992989,12.5335269 24.8315576,12.5663372 24.9307515,12.5991474 C25.0299455,12.5991474 25.0960748,12.6319577 25.1952688,12.6319577 C25.2944628,12.6319577 25.4267214,12.664768 25.5259154,12.6975783 C25.6251093,12.6975783 25.6912387,12.6975783 25.7904326,12.7303886 C25.9226913,12.7303886 26.0218852,12.7303886 26.1541439,12.7631988 C26.2533378,12.7631988 26.3194671,12.7631988 26.4186611,12.7631988 C26.5509197,12.7631988 26.6831784,12.7631988 26.7823723,12.7631988 C26.8815663,12.7631988 26.9476956,12.7631988 27.0468896,12.7631988 C27.1791482,12.7631988 27.3444715,12.7631988 27.4767301,12.7631988 C27.5428595,12.7631988 27.6089888,12.7631988 27.6751181,12.7631988 C27.873506,12.7631988 28.1049586,12.7631988 28.3033466,12.7631988 L89.803609,12.7631988 C90.0019969,12.7631988 90.2334495,12.7631988 90.4318375,12.7631988 C90.4979668,12.7631988 90.5640961,12.7631988 90.6302254,12.7631988 C90.7624841,12.7631988 90.9278073,12.7631988 91.060066,12.7631988 C91.1592599,12.7631988 91.2253893,12.7631988 91.3245832,12.7631988 C91.4568419,12.7631988 91.5891005,12.7631988 91.6882945,12.7631988 C91.7874884,12.7631988 91.8536177,12.7631988 91.9528117,12.7631988 C92.0850703,12.7631988 92.1842643,12.7631988 92.3165229,12.7303886 C92.4157169,12.7303886 92.4818462,12.7303886 92.5810402,12.6975783 C92.6802342,12.6975783 92.8124928,12.664768 92.9116868,12.6319577 C93.0108807,12.6319577 93.0770101,12.6319577 93.176204,12.5991474 C93.275398,12.5991474 93.4076566,12.5663372 93.5068506,12.5335269 C93.6060446,12.5335269 93.6721739,12.5007166 93.7713679,12.4679063 C93.8705618,12.4679063 94.0028205,12.4350961 94.1020144,12.4022858 C94.2012084,12.4022858 94.2673377,12.3694755 94.3665317,12.3366652 C94.4657257,12.3366652 94.5979843,12.2710447 94.6971783,12.2382344 C94.7963722,12.2382344 94.8625015,12.1726138 94.9616955,12.1726138 C95.0608895,12.1726138 95.1931481,12.1069933 95.2923421,12.074183 C95.3915361,12.074183 95.4576654,12.0085624 95.5568593,11.9757521 C95.6560533,11.9429419 95.7552473,11.9101316 95.8875059,11.8773213 C95.9866999,11.8773213 96.0528292,11.8117007 96.1520232,11.7788905 C96.2512171,11.7460802 96.3504111,11.7132699 96.4826698,11.6476493 C96.5818637,11.6476493 96.647993,11.5820288 96.747187,11.5492185 C96.846381,11.5164082 96.9786396,11.4507877 97.0778336,11.4179774 C97.1439629,11.3851671 97.2431569,11.3523568 97.3092862,11.3195465 C97.4084802,11.2867363 97.5407388,11.2211157 97.6399328,11.1554951 C97.7060621,11.1226849 97.805256,11.0898746 97.8713854,11.0570643 C97.9705793,10.9914437 98.102838,10.9586335 98.2020319,10.8930129 C98.2681612,10.8602026 98.3342906,10.8273923 98.4004199,10.7945821 C98.5326785,10.7289615 98.6649371,10.6633409 98.7971958,10.5977204 C98.8302604,10.5977204 98.8963897,10.5320998 98.9294544,10.5320998 C99.0947777,10.433669 99.2931656,10.3352381 99.4584889,10.2368073 C99.4584889,10.2368073 99.4584889,10.2368073 99.4584889,10.2368073 C99.6238122,10.1383765 99.7891355,10.0399456 99.9544588,9.94151478 C100.020588,9.9087045 100.053653,9.87589422 100.119782,9.84308394 C100.218976,9.77746339 100.351235,9.67903255 100.450429,9.61341199 C100.516558,9.58060171 100.582687,9.51498115 100.648817,9.48217087 C100.748011,9.41655031 100.847205,9.31811947 100.946398,9.25249891 C101.012528,9.18687835 101.078657,9.15406807 101.144786,9.08844751 C101.24398,9.02282695 101.343174,8.95720639 101.442368,8.85877555 C101.508498,8.79315499 101.574627,8.76034471 101.640756,8.69472415 C101.73995,8.62910359 101.80608,8.53067275 101.905274,8.46505219 C101.971403,8.39943163 102.037532,8.36662135 102.103661,8.30100079 C102.202855,8.23538023 102.268985,8.13694939 102.368179,8.07132883 C102.434308,8.00570828 102.500437,7.94008772 102.566567,7.87446716 C102.665761,7.8088466 102.73189,7.71041576 102.831084,7.6447952 C102.897213,7.57917464 102.963343,7.51355408 103.029472,7.44793352 C103.095601,7.38231296 103.194795,7.28388212 103.260924,7.18545128 C103.327054,7.11983072 103.393183,7.05421016 103.459312,6.9885896 C103.525442,6.89015876 103.624636,6.8245382 103.690765,6.72610736 C103.756894,6.6604868 103.823024,6.59486624 103.856088,6.52924568 C103.922218,6.43081484 104.021412,6.36519428 104.087541,6.26676344 C104.15367,6.20114289 104.186735,6.13552233 104.252864,6.06990177 C104.318994,5.97147093 104.385123,5.87304009 104.484317,5.77460925 C104.550446,5.70898869 104.583511,5.64336813 104.64964,5.57774757 C104.715769,5.47931673 104.781899,5.38088589 104.881093,5.28245505 C104.914157,5.21683449 104.980287,5.15121393 105.013351,5.08559337 C105.079481,4.98716253 105.14561,4.88873169 105.211739,4.75749057 C105.244804,4.69187001 105.310933,4.62624945 105.343998,4.56062889 C105.410127,4.42938778 105.476257,4.33095694 105.57545,4.19971582 C105.608515,4.13409526 105.64158,4.0684747 105.674644,4.03566442 C105.674644,4.03566442 105.674644,4.03566442 105.674644,4.03566442 L107.55933,4.03566442 C111.229507,4.03566442 114.238391,7.02139988 114.238391,10.6633409 L114.238391,61.5520849 L114.271455,61.4208438 Z" id="Shape" fill-rule="nonzero"></path>
                    <path d="M89.704415,23.1968678 L28.5017345,23.1968678 C24.6992989,23.1968678 21.6242858,26.2482239 21.6242858,30.021406 L21.6242858,41.9643479 C21.6242858,45.7375301 24.6992989,48.7888861 28.5017345,48.7888861 L89.704415,48.7888861 C93.5068506,48.7888861 96.5818637,45.7375301 96.5818637,41.9643479 L96.5818637,30.021406 C96.5818637,26.2482239 93.5068506,23.1968678 89.704415,23.1968678 L89.704415,23.1968678 Z M92.6471695,41.9643479 C92.6471695,43.5720516 91.3245832,44.8516525 89.7374797,44.8516525 L28.5017345,44.8516525 C26.8815663,44.8516525 25.5920447,43.5392413 25.5920447,41.9643479 L25.5920447,30.021406 C25.5920447,28.4137023 26.914631,27.1341014 28.5017345,27.1341014 L89.704415,27.1341014 C91.3245832,27.1341014 92.6141049,28.4465126 92.6141049,30.021406 L92.6141049,41.9643479 L92.6471695,41.9643479 Z" id="Shape" fill-rule="nonzero"></path>
                </g>
            </g>
        </g>
    </g>
</svg>