<?xml version="1.0" encoding="UTF-8"?>
<svg width="201px" height="202px" viewBox="0 0 201 202" version="1.1" xmlns="http://www.w3.org/2000/svg" xmlns:xlink="http://www.w3.org/1999/xlink">
    <title>Group 4</title>
    <g id="Page-1" stroke="none" stroke-width="1" fill="none" fill-rule="evenodd">
        <g id="Group">
            <ellipse id="Oval-Copy-7" fill="#F7F7F7" cx="100.5" cy="101" rx="100.5" ry="101"></ellipse>
            <g id="hogar" transform="translate(36, 37)" fill="#0099D4">
                <g id="Layer_2" transform="translate(-0.4961, 12.8992)">
                    <path d="M127.808757,45.6649347 L106.195351,30.0950822 L106.195351,9.17775648 C106.195351,6.11850432 103.670421,3.63130744 100.564756,3.63130744 L90.9447711,3.63130744 C87.8391066,3.63130744 85.3141761,6.11850432 85.3141761,9.17775648 L85.3141761,15.0475411 L66.2004521,1.26847041 C66.2004521,1.26847041 66.2004521,1.26847041 66.2004521,1.26847041 L64.4834994,0 L62.7917959,1.26847041 C62.7917959,1.26847041 62.7917959,1.26847041 62.7917959,1.26847041 L62.7917959,1.26847041 C62.7917959,1.26847041 1.18349151,45.6649347 1.18349151,45.6649347 C-0.104223045,46.5851975 -0.381965401,48.3511073 0.552258887,49.6195777 C1.1077436,50.3657368 1.99146928,50.7885602 2.87519496,50.7885602 C3.75892063,50.7885602 4.0619123,50.6144565 4.5668984,50.2413769 L14.0353878,43.4015855 L14.0353878,97.5229896 L7.14232752,97.5229896 C5.5516213,97.5229896 4.26390674,98.79146 4.26390674,100.358394 C4.26390674,101.925328 5.5516213,103.193798 7.14232752,103.193798 L122.632649,103.193798 C124.223355,103.193798 125.51107,101.925328 125.51107,100.358394 C125.51107,98.79146 124.223355,97.5229896 122.632649,97.5229896 L115.739589,97.5229896 L115.739589,43.9487688 L124.42535,50.216505 C124.930336,50.5895845 125.536319,50.7636883 126.117053,50.7636883 C127.000779,50.7636883 127.884504,50.3657368 128.439989,49.5947057 C129.374213,48.3262353 129.096471,46.5603255 127.808757,45.6400627 L127.808757,45.6649347 Z M91.0710176,9.27724435 L100.463759,9.27724435 L100.463759,25.9414634 L91.0710176,19.1762879 L91.0710176,9.27724435 Z M81.0975421,97.5229896 L81.0975421,76.3320722 C81.0975421,74.7651381 79.8098276,73.4966677 78.2191213,73.4966677 C76.6284151,73.4966677 75.3407006,74.7651381 75.3407006,76.3320722 L75.3407006,97.5229896 L54.3332787,97.5229896 L54.3332787,57.4293759 L75.3407006,57.4293759 L75.3407006,65.7863574 C75.3407006,67.3532914 76.6284151,68.6217619 78.2191213,68.6217619 C79.8098276,68.6217619 81.0975421,67.3532914 81.0975421,65.7863574 L81.0975421,57.0065524 C81.0975421,54.1214041 78.7241074,51.783439 75.7951881,51.783439 L53.9292899,51.783439 C51.0003705,51.783439 48.6269358,54.1214041 48.6269358,57.0065524 L48.6269358,97.5478615 L19.7922294,97.5478615 L19.7922294,40.5164371 L64.5087487,7.0885111 L110.007996,40.5413091 L110.007996,97.5727335 L81.0975421,97.5727335 L81.0975421,97.5229896 Z" id="Shape" fill-rule="nonzero"></path>
                </g>
            </g>
        </g>
    </g>
</svg>