<?xml version="1.0" encoding="UTF-8"?>
<svg width="39px" height="30px" viewBox="0 0 39 30" version="1.1" xmlns="http://www.w3.org/2000/svg" xmlns:xlink="http://www.w3.org/1999/xlink">
    <title>cc-amex copia 2</title>
    <g id="Page-1" stroke="none" stroke-width="1" fill="none" fill-rule="evenodd">
        <g id="cc-amex-copia-2" fill="#FFFFFF" fill-rule="nonzero">
            <path d="M0,26.7857143 C0,28.5602679 1.42869971,30 3.18965517,30 L35.0862069,30 C36.8471624,30 38.2758621,28.5602679 38.2758621,26.7857143 L38.2758621,26.7120536 L34.1758261,26.7120536 L32.0560345,24.3616071 L29.9362428,26.7120536 L16.4001437,26.7120536 L16.4001437,15.7433036 L12.027658,15.7433036 L17.456717,3.375 L22.6797773,3.375 L24.5470546,7.60714286 L24.5470546,3.375 L31.0061063,3.375 L32.1291307,6.5625 L33.2588003,3.375 L38.2758621,3.375 L38.2758621,3.21428571 C38.2758621,1.43973214 36.8471624,0 35.0862069,0 L3.18965517,0 C1.42869971,0 0,1.43973214 0,3.21428571 L0,26.7857143 Z M29.2650862,25.3325893 L32.0693247,22.2321429 L34.860273,25.3325893 L38.2758621,25.3325893 L33.7571839,20.5044643 L38.2758621,15.6763393 L34.9134339,15.6763393 L32.1224856,18.8035714 L29.3647629,15.6763393 L25.9491739,15.6763393 L30.4346264,20.53125 L25.955819,25.3258929 L25.955819,23.109375 L20.4403736,23.109375 L20.4403736,21.6227679 L25.8162716,21.6227679 L25.8162716,19.4598214 L20.4403736,19.4598214 L20.4403736,17.9598214 L25.955819,17.9598214 L25.955819,15.7433036 L17.8487787,15.7433036 L17.8487787,25.3325893 L29.2650862,25.3325893 Z M35.6643319,20.5111607 L38.2758621,23.3169643 L38.2758621,17.7388393 L35.6643319,20.5111607 L35.6643319,20.5111607 Z M33.2521552,14.3504464 L35.7042026,7.61383929 L35.7042026,14.3504464 L38.2758621,14.3504464 L38.2758621,4.75446429 L34.2755029,4.75446429 L32.1357759,10.734375 L30.0159842,4.75446429 L25.9491739,4.75446429 L25.9491739,14.3370536 L21.7494612,4.75446429 L18.3471624,4.75446429 L14.2006106,14.3504464 L17.0580101,14.3504464 L17.8487787,12.4285714 L22.2279095,12.4285714 L23.0253233,14.3504464 L28.5208333,14.3504464 L28.5208333,7.63392857 L30.9662356,14.3504464 L33.2521552,14.3504464 Z M18.7392241,10.2723214 L20.0350216,7.13169643 L21.3241739,10.2723214 L18.7392241,10.2723214 Z" id="Shape"></path>
        </g>
    </g>
</svg>