<?xml version="1.0" encoding="UTF-8"?>
<svg width="22px" height="22px" viewBox="0 0 22 22" version="1.1" xmlns="http://www.w3.org/2000/svg" xmlns:xlink="http://www.w3.org/1999/xlink">
    <title>Frame 2 Copia</title>
    <defs>
        <path d="M0,0 L22,0 L22,22 L0,22 L0,0 Z" id="path-1"></path>
    </defs>
    <g id="Frame-2-Copia" stroke="none" fill="none" xlink:href="#path-1" fill-rule="evenodd">
        <use fill="#FFFFFF" xlink:href="#path-1"></use>
        <g id="Layer_1" stroke-width="1" transform="translate(10.5769, 10.5769) scale(-1, 1) translate(-10.5769, -10.5769)translate(1.5769, 1.5769)" fill="#0099D4">
            <path d="M16.2046432,1.78577608 L15.4172694,1.10348929 C14.5099149,0.196272799 13.0401506,0.196272799 12.1327962,1.10348929 C12.1102998,1.12598227 10.7230222,2.9329176 10.7230222,2.9329176 C9.86815934,3.83263644 9.86815934,5.24969361 10.7230222,6.14191479 L11.5928827,7.23657271 C10.4980583,9.71829717 8.79583131,11.427763 6.39621614,12.4474443 L5.30139171,11.5702184 C4.40903482,10.7079879 2.98426331,10.7079879 2.09190642,11.5702184 C2.09190642,11.5702184 0.284696246,12.957285 0.262199853,12.979778 C-0.645154633,13.8869944 -0.645154633,15.3565352 0.224705866,16.2262634 L0.974585607,17.088494 C1.83694731,17.9507245 2.99926091,18.4230769 4.25905887,18.4230769 C9.9881401,18.4230769 17.5769231,10.8279504 17.5769231,5.10723812 C17.5769231,3.85512941 17.1044988,2.68549492 16.2046432,1.79327374 L16.2046432,1.78577608 Z M4.25905887,16.9160479 C3.40419597,16.9160479 2.61682224,16.6011463 2.07690883,16.0538173 L1.32702909,15.1915868 C1.01957839,14.8841828 1.0045808,14.3818398 1.2970339,14.0594406 C1.2970339,14.0594406 3.08924648,12.6798717 3.11174287,12.6573787 C3.41919356,12.3499748 3.95910698,12.3499748 4.27405647,12.6573787 C4.29655286,12.6798717 5.80381114,13.8869944 5.80381114,13.8869944 C6.01377747,14.0519429 6.29123297,14.0969288 6.53869329,13.9994593 C9.64319542,12.8148295 11.8703382,10.595523 13.1526326,7.3940235 C13.250117,7.14660082 13.212623,6.86168986 13.0401506,6.6442578 C13.0401506,6.6442578 11.8328443,5.12973109 11.8178467,5.11473578 C11.4953984,4.79233653 11.4953984,4.2749982 11.8178467,3.95259895 C11.8403431,3.93010598 13.2201218,2.13816596 13.2201218,2.13816596 C13.5425701,1.84575734 14.0449895,1.85325499 14.3899342,2.19814721 L15.1773079,2.880434 C15.7547153,3.45775359 16.0771636,4.24500757 16.0771636,5.09974047 C16.0771636,10.3181097 8.75083852,16.9160479 4.25905887,16.9160479 Z" id="Shape" fill-rule="nonzero"></path>
        </g>
    </g>
</svg>