<?xml version="1.0" encoding="UTF-8"?>
<svg width="266px" height="88px" viewBox="0 0 266 88" version="1.1" xmlns="http://www.w3.org/2000/svg" xmlns:xlink="http://www.w3.org/1999/xlink">
    <title>DITRON-whiteblue</title>
    <g id="DITRON-whiteblue" stroke="none" fill="none" fill-rule="evenodd" stroke-width="1">
        <g id="Layer_1" transform="translate(12, 3)">
            <g id="Group" fill-rule="nonzero">
                <g>
                    <path d="M11.1102489,36.2862669 L0,36.2862669 L0,6.7311412 L11.1102489,6.7311412 C20.4991917,6.7311412 26.9932105,13.0754352 26.9932105,21.4313346 C26.9932105,29.787234 20.4991917,36.2862669 11.1102489,36.2862669 Z M11.1102489,11.450677 L5.24215972,11.450677 L5.24215972,31.5667311 L11.1102489,31.5667311 C17.3695441,31.5667311 21.5163272,27.3887814 21.5163272,21.5860735 C21.5163272,15.7833656 17.4477853,11.5280464 11.1102489,11.5280464 L11.1102489,11.450677 Z" id="Shape" fill="#FFFFFF"></path>
                    <polygon id="Path" fill="#FFFFFF" points="49.2919496 6.7311412 49.2919496 36.2862669 44.0497898 36.2862669 44.0497898 6.7311412"></polygon>
                    <polygon id="Path" fill="#FFFFFF" points="81.214355 36.2862669 75.8939541 36.2862669 75.8939541 11.5280464 66.4267701 11.5280464 66.4267701 6.7311412 90.681539 6.7311412 90.681539 11.5280464 81.214355 11.5280464"></polygon>
                    <path d="M126.985451,36.2862669 L119.630779,25.9961315 L113.058519,25.9961315 L113.058519,36.2862669 L107.81636,36.2862669 L107.81636,6.7311412 L121.117362,6.7311412 C128.002586,6.7311412 132.227611,10.2901354 132.227611,16.0928433 C132.227611,21.8955513 129.254446,23.9845261 125.107662,25.0676983 L133.166505,36.2862669 L126.985451,36.2862669 Z M120.647915,11.450677 L112.980278,11.450677 L112.980278,21.3539652 L120.647915,21.3539652 C124.403492,21.3539652 126.828969,19.4197292 126.828969,16.4023211 C126.828969,13.384913 124.559974,11.450677 120.647915,11.450677 L120.647915,11.450677 Z" id="Shape" fill="#FFFFFF"></path>
                    <polygon id="Path" fill="#0099D4" points="219.466537 6.7311412 224.630456 6.7311412 224.630456 36.2862669 220.248949 36.2862669 203.740058 15.2417795 203.740058 36.2862669 198.57614 36.2862669 198.57614 6.7311412 203.427093 6.7311412 219.466537 27.1566731 219.466537 6.7311412"></polygon>
                    <g transform="translate(150.1448, 0)" fill="#0099D4" id="Path">
                        <polygon points="18.3866796 0 18.3866796 20.1934236 13.1445199 20.1934236 13.1445199 0"></polygon>
                        <path d="M21.438086,6.7311412 L21.438086,12.3017408 C24.1765276,14.2359768 25.8195926,17.4081238 25.8195926,21.1218569 C25.8195926,26.9245648 21.6728096,31.5667311 15.7264791,31.5667311 C9.78014872,31.5667311 5.55512447,26.7698259 5.55512447,21.0444874 C5.55512447,15.3191489 6.8852247,14.7775629 9.1542192,12.9206963 L9.1542192,7.19535783 C3.59909473,9.59381044 1.42108547e-14,15.0096712 1.42108547e-14,21.1992263 C1.42108547e-14,27.3887814 6.41577756,36.4410058 15.5699968,36.4410058 C24.724216,36.4410058 31.2182347,29.4777563 31.2182347,21.1218569 C31.2182347,12.7659574 27.3061752,9.05222437 21.2816036,6.88588008 L21.438086,6.7311412 Z"></path>
                    </g>
                </g>
                <g transform="translate(52.6978, 32.1521)" fill="#FFFFFF">
                    <path d="M54.3361692,23.4765639 L54.3361692,23.4765639 C54.0232044,23.4765639 53.7884809,23.6313028 53.6319985,23.7860417 C53.2407925,24.2502583 52.6931042,24.7144749 52.1454159,25.1786916 C51.5977276,25.6429082 50.971798,26.1071248 50.3458685,26.6487109 C49.6416978,27.1129275 49.0157683,27.4997747 48.46808,27.8092525 C47.8421504,28.1187302 47.2944621,28.2734691 46.7467738,28.428208 C46.2773267,28.5055774 45.9643619,28.428208 45.7296383,28.1960997 C45.2601912,27.8092525 45.1037088,27.190297 45.18195,26.2618637 C45.8078795,25.8750165 46.3555678,25.4881693 46.9032562,25.1013221 C47.5291857,24.7144749 48.1551152,24.1728889 48.8592859,23.6313028 C49.5634566,23.0123473 50.1893861,22.3933918 50.5805921,21.7744362 C51.0500392,21.1554807 51.2065216,20.5365252 51.1282804,19.9949391 C50.971798,19.2212448 50.4241097,18.6796587 49.4852154,18.4475504 C48.5463212,18.215442 47.5291857,18.4475504 46.5902914,19.2212448 C45.6513971,19.9949391 44.9472264,20.9233724 44.3212969,22.083914 C43.8518498,23.0123473 43.4606438,23.9407805 43.2259202,24.7918444 C43.0694379,25.256061 43.0694379,25.7202776 42.9911967,26.1844943 C42.8347143,26.1844943 42.7564731,26.3392332 42.6782319,26.493972 C42.3652672,26.9581887 42.0523024,27.190297 41.7393376,27.190297 C41.7393376,27.0355581 41.5828553,26.6487109 41.4263729,25.7976471 C41.3481317,25.256061 41.2698905,24.7918444 41.1916493,24.5597361 C41.1916493,24.2502583 41.0351669,23.9407805 40.8786846,23.4765639 C40.7222022,23.0123473 40.643961,22.7028695 40.4874786,22.3933918 C40.3309962,22.1612834 40.0962727,21.9291751 39.8615491,21.6970668 C39.1573784,21.1554807 38.2967253,21.3102196 37.5143134,22.083914 C37.1231074,22.5481306 36.4971779,23.2444556 35.7930072,24.3276277 C35.0105953,25.4881693 34.462907,26.1071248 34.1499422,26.493972 C34.1499422,25.952386 34.1499422,25.1013221 34.2281834,23.7086722 C34.3846658,22.1612834 34.3846658,21.0007419 34.3846658,20.2270475 C34.3846658,19.3759836 34.1499422,18.7570281 33.8369775,18.3701809 C33.2892891,17.8285949 32.5068772,17.7512254 31.6462242,18.5249198 C31.2550182,18.911767 30.7855711,19.3759836 30.3161239,19.9949391 C29.8466768,20.6138947 29.0642649,21.6196974 28.0471294,23.0123473 C27.1864763,24.2502583 26.4040644,25.256061 25.8563761,26.0297554 C26.4040644,24.4823666 27.1864763,22.780239 28.1253706,20.846003 C28.281853,20.6138947 28.281853,20.3044169 28.1253706,19.9949391 C28.0471294,19.7628308 27.8124059,19.5307225 27.5776823,19.3759836 C27.3429587,19.2212448 27.029994,19.2212448 26.7952704,19.3759836 C26.7952704,19.3759836 26.7170292,19.3759836 26.638788,19.4533531 C26.4823056,19.4533531 26.2475821,19.4533531 26.0910997,19.6854614 C25.0739642,20.4591558 23.6656228,20.5365252 21.8660754,19.9175697 C21.4748695,19.5307225 21.0054224,19.3759836 20.3794928,19.3759836 C19.5188397,19.3759836 18.7364278,19.6854614 18.0322571,20.3817863 C17.3280864,21.0007419 16.7803981,21.7744362 16.3891922,22.5481306 C15.9979862,23.321825 15.7632626,24.0955194 15.6850214,24.7918444 C15.6850214,24.7918444 15.6850214,24.9465832 15.6850214,25.0239527 C15.6067803,25.952386 15.6067803,26.7260803 15.6850214,27.4224053 C15.6067803,27.4224053 15.5285391,27.5771442 15.4502979,27.6545136 C15.2938155,27.8866219 15.0590919,28.1187302 14.667886,28.3508386 C14.3549212,28.5829469 14.0419565,28.6603163 13.8072329,28.7376858 C13.4942681,28.7376858 13.2595446,28.6603163 13.024821,28.428208 C12.9465798,28.3508386 12.633615,27.8866219 12.3988915,24.9465832 L12.2424091,23.4765639 C12.2424091,23.1670861 12.1641679,22.7028695 12.0076855,22.2386529 C11.9294443,21.6970668 11.772962,21.3102196 11.6947208,21.0007419 C11.6164796,20.6912641 11.381756,20.4591558 11.2252736,20.149678 C10.9905501,19.8402003 10.6775853,19.608092 10.3646205,19.5307225 C9.50396745,19.2212448 8.64331437,19.608092 7.78266128,20.7686335 C7.00024938,21.7744362 5.82663153,23.8634111 4.26180774,26.8808192 C3.40115465,28.5055774 2.69698394,29.7434885 2.2275368,30.5945523 C2.2275368,30.1303357 2.38401918,29.666119 2.46226037,29.124533 C2.69698394,27.9639914 2.93170751,26.5713415 3.32291346,25.0239527 C4.02708417,24.01815 4.73125488,22.8576084 5.43542558,21.6970668 C6.21783748,20.4591558 7.15673176,18.8343976 8.4085908,16.6680533 C9.66044983,14.5790784 10.6775853,12.6448424 11.5382384,10.8653453 C12.3988915,9.16321768 13.1030622,7.46109002 13.5725093,5.8363318 C14.0419565,4.13420414 14.1201977,2.97366255 13.7289917,2.19996816 C13.4160269,1.50364321 12.7118562,1.19416545 11.9294443,1.19416545 C11.1470324,1.19416545 10.129897,1.73575153 9.26924388,2.89629311 C8.64331437,3.74735694 7.93914366,4.90789853 7.15673176,6.45528731 C6.45256105,8.00267609 5.67014915,9.78217319 4.88773726,11.9485175 C4.10532536,14.0374923 3.40115465,16.3585755 2.69698394,18.8343976 C2.14929561,20.6912641 1.67984847,22.5481306 1.28864253,24.1728889 C1.28864253,24.3276277 1.21040134,24.4049972 1.21040134,24.5597361 C0.115024679,29.0471635 -0.19794008,31.8324633 0.115024679,32.9156355 C0.349748248,33.7666993 0.897436577,34.0761771 1.36688372,34.0761771 L1.5233661,34.0761771 C2.14929561,34.0761771 2.69698394,33.6119604 3.40115465,32.7608966 C3.94884298,31.9098328 4.88773726,30.2850745 6.13959629,27.8866219 C8.33034961,23.7086722 9.34748507,22.2386529 9.73869102,21.7744362 C9.8951734,22.1612834 10.0516558,23.0123473 10.2863794,25.1786916 C10.2863794,26.0297554 10.4428617,26.7260803 10.4428617,27.190297 C10.4428617,27.6545136 10.5993441,28.1187302 10.7558265,28.6603163 C10.9123089,29.2792718 11.1470324,29.666119 11.4599972,29.9755968 C12.1641679,30.6719217 12.9465798,30.9813995 13.8854741,30.9040301 C14.5114036,30.9040301 15.1373331,30.6719217 15.7632626,30.2850745 C16.0762274,30.0529662 16.310951,29.8982273 16.5456745,29.666119 C16.8586393,29.9755968 17.1716041,30.1303357 17.56281,30.2850745 C17.7975336,30.362444 18.1104983,30.4398134 18.4234631,30.4398134 C18.8929102,30.4398134 19.4405986,30.2850745 19.8318045,30.0529662 C20.6142164,29.5887496 21.2401459,28.8924246 21.7095931,27.8092525 C22.1790402,26.8034498 22.492005,25.952386 22.5702461,25.3334304 C22.7267285,24.2502583 22.7267285,23.321825 22.7267285,22.5481306 C23.5091404,22.7028695 24.2915523,22.7028695 24.9174818,22.5481306 C24.5262759,23.4765639 23.9785876,24.7144749 23.4308992,26.3392332 C22.8049697,27.9639914 22.5702461,29.124533 22.6484873,29.8982273 C22.6484873,30.2077051 22.8049697,30.5171829 23.1179345,30.6719217 C23.2744169,30.8266606 23.5091404,30.8266606 23.743864,30.8266606 C23.9785876,30.8266606 23.9785876,30.8266606 24.1350699,30.7492912 C24.6045171,30.5945523 25.0739642,30.2077051 25.6998937,29.5887496 C26.2475821,28.9697941 26.8735116,28.3508386 27.4211999,27.5771442 C27.9688882,26.8034498 28.7513001,25.7976471 29.6901944,24.4049972 C30.7855711,22.8576084 31.6462242,21.6970668 32.1939125,21.0007419 C32.1939125,21.6196974 32.1939125,22.5481306 32.1156713,23.7086722 C31.9591889,25.256061 31.9591889,26.493972 32.0374301,27.2676664 C32.1156713,28.1960997 32.4286361,28.7376858 32.8980832,29.0471635 C33.1328068,29.124533 33.3675303,29.2019024 33.5240127,29.2019024 C33.7587363,29.2019024 33.9934599,29.2019024 34.2281834,29.124533 C34.462907,29.124533 34.6193894,28.9697941 34.7758718,28.8924246 C34.9323541,28.8150552 35.1670777,28.6603163 35.4018013,28.428208 C35.6365248,28.1960997 35.7930072,28.0413608 35.8712484,27.8866219 C36.0277308,27.7318831 36.1842132,27.4997747 36.4189367,27.190297 C36.6536603,26.8808192 36.8101427,26.6487109 36.9666251,26.493972 L37.5143134,25.7202776 C38.2184841,24.7918444 38.6096901,24.2502583 38.8444136,23.9407805 C39.000896,24.3276277 39.1573784,24.9465832 39.392102,26.2618637 C39.5485843,27.0355581 39.6268255,27.6545136 39.7050667,27.9639914 C39.7833079,28.3508386 40.0180315,28.6603163 40.1745138,28.8150552 C40.7222022,29.2792718 41.2698905,29.5113802 41.9740612,29.4340107 C42.287026,29.4340107 42.5999907,29.3566413 42.9129555,29.2019024 C43.1476791,29.124533 43.3041614,28.9697941 43.4606438,28.8924246 C43.6953674,29.2792718 43.930091,29.666119 44.2430557,29.9755968 C44.8689852,30.5171829 45.5731559,30.7492912 46.433809,30.7492912 C47.2944621,30.7492912 48.1551152,30.5171829 49.1722507,30.0529662 C50.111145,29.5887496 51.0500392,29.0471635 51.9889335,28.3508386 C52.8495866,27.6545136 53.5537573,27.1129275 54.0232044,26.7260803 C54.4926516,26.3392332 54.8838575,25.952386 55.1968223,25.5655388 C55.3533047,25.3334304 55.4315459,25.1013221 55.4315459,24.8692138 C55.4315459,24.6371055 55.3533047,24.3276277 55.1185811,24.0955194 C54.8838575,23.8634111 54.649134,23.7860417 54.3361692,23.7860417 L54.3361692,23.4765639 Z M46.1208443,22.9349778 C46.5120502,22.1612834 46.9814974,21.5423279 47.5291857,21.0781113 C47.9986328,20.6138947 48.3898388,20.3817863 48.7810447,20.3817863 C49.1722507,20.3817863 48.7810447,20.3817863 48.9375271,20.3817863 C48.9375271,20.3817863 48.9375271,20.3817863 48.9375271,20.3817863 C48.8592859,20.5365252 48.5463212,20.9233724 47.9986328,21.4649585 C47.4509445,21.9291751 46.9032562,22.3933918 46.1990855,22.9349778 L46.1208443,22.9349778 Z M20.2230105,21.3102196 C20.3012516,21.3102196 20.457734,21.4649585 20.6142164,21.4649585 C20.7706988,21.8518057 20.84894,22.7028695 20.6142164,24.6371055 L20.6142164,24.6371055 C20.6142164,24.8692138 20.5359752,25.1786916 20.3794928,25.5655388 C20.2230105,25.952386 19.9882869,26.4166026 19.6753221,26.8808192 C19.3623574,27.3450359 19.1276338,27.6545136 18.8929102,27.8092525 C18.6581867,27.8866219 18.5017043,27.9639914 18.3452219,27.8092525 C18.2669807,27.8092525 17.8757748,27.6545136 17.7975336,26.8034498 C17.7192924,26.1844943 17.7975336,25.5655388 17.7975336,24.8692138 C17.7975336,24.7144749 17.7975336,24.6371055 17.7975336,24.6371055 L17.7975336,24.6371055 C17.7975336,23.9407805 18.1104983,23.2444556 18.7364278,22.4707612 C19.205875,21.7744362 19.7535633,21.3102196 20.2230105,21.2328502 L20.2230105,21.3102196 Z M10.9905501,3.90209582 C11.6164796,3.05103199 11.9294443,3.05103199 11.8512031,2.97366255 C11.8512031,2.97366255 11.8512031,2.97366255 11.8512031,2.97366255 C11.9294443,3.28314031 11.9294443,4.0568347 11.1470324,5.99107068 C10.5211029,7.77056777 9.50396745,9.78217319 8.25210842,12.1032564 C7.31321414,13.8827535 6.21783748,15.73962 5.04421964,17.673856 C5.82663153,15.043295 6.68728462,12.4901036 7.6261789,10.1690204 C8.79979675,7.2289817 9.8951734,5.06263741 10.9123089,3.82472638 L10.9123089,3.82472638 L10.9905501,3.90209582 Z" id="Shape"></path>
                    <path d="M95.0215879,22.3933918 C97.9165119,18.3701809 100.42023,14.3469701 102.454501,10.3237593 C104.567013,6.22317899 105.427666,3.51524863 104.958219,2.12259872 C104.801737,1.58101265 104.488772,1.27153489 104.019325,1.03942657 C103.158672,0.729948819 102.298019,1.03942657 101.280883,1.81312097 C99.6378181,3.20577087 97.8382707,6.06844011 95.9604822,10.3237593 C94.0826936,14.5790784 92.987317,18.5249198 92.5178698,22.1612834 C88.2928456,27.8866219 87.0409865,28.1187302 86.7280218,27.9639914 C86.415057,27.5771442 86.415057,27.0355581 86.7280218,26.1844943 C87.1192277,25.1786916 87.7451572,24.2502583 88.6058103,23.3991945 C89.7794282,22.2386529 90.2488753,22.083914 90.3271165,22.083914 C90.6400813,22.083914 90.8748048,22.0065446 91.1095284,21.7744362 C91.344252,21.5423279 91.4224932,21.3102196 91.4224932,21.0007419 C91.4224932,20.6912641 91.344252,20.4591558 91.1095284,20.2270475 C90.8748048,19.9949391 90.6400813,19.9175697 90.3271165,19.9175697 C89.3882222,19.9175697 88.2928456,20.5365252 87.1192277,21.6970668 C85.9456099,22.8576084 85.163198,24.0955194 84.6155096,25.3334304 C84.2243037,26.4166026 84.1460625,27.2676664 84.3025449,28.0413608 C84.1460625,28.1187302 83.9895801,28.2734691 83.8330977,28.3508386 C83.6766154,28.428208 83.5983742,28.428208 83.520133,28.428208 C83.520133,28.3508386 83.2071682,27.8866219 83.0506858,25.6429082 C83.0506858,24.9465832 82.8942035,24.4823666 82.8942035,24.1728889 C82.8942035,23.8634111 82.7377211,23.4765639 82.6594799,23.0123473 C82.5029975,22.5481306 82.3465151,22.1612834 82.1117916,21.9291751 C81.877068,21.6970668 81.5641032,21.5423279 81.1728973,21.4649585 C80.4687266,21.3875891 79.6863147,21.6970668 78.9039028,22.4707612 C78.1997321,23.1670861 77.1825966,24.2502583 75.8524964,25.7976471 C76.3219435,23.7086722 76.8696319,21.5423279 77.4173202,19.4533531 C77.4173202,19.2212448 77.4173202,18.911767 77.2608378,18.6796587 C77.1043554,18.4475504 76.8696319,18.2928115 76.5566671,18.215442 C76.2437023,18.215442 76.0089788,18.215442 75.7742552,18.3701809 C75.5395316,18.5249198 75.3830493,18.7570281 75.3048081,18.9891364 C74.7571197,21.0007419 74.3659138,22.7028695 74.052949,24.1728889 C74.052949,24.1728889 74.052949,24.1728889 74.052949,24.1728889 C73.8182255,24.4049972 73.5835019,24.7144749 73.2705371,25.0239527 C72.9575724,25.3334304 72.6446076,25.7202776 72.1751605,26.1071248 C71.7839545,26.493972 71.3145074,26.8034498 70.9233014,27.0355581 C70.5320955,27.2676664 70.1408895,27.4224053 69.7496836,27.5771442 C69.4367188,27.6545136 69.1237541,27.5771442 68.9672717,27.5771442 C68.8890305,27.4997747 68.6543069,27.190297 68.8890305,26.1844943 C69.0455129,25.3334304 69.3584776,24.3276277 69.7496836,23.1670861 C70.1408895,22.3933918 70.4538543,21.6196974 70.7668191,20.9233724 C70.9233014,20.6912641 70.9233014,20.3817863 70.7668191,20.149678 C70.6885779,19.9175697 70.4538543,19.6854614 70.2191307,19.608092 C69.9844072,19.4533531 69.6714424,19.4533531 69.4367188,19.608092 C69.3584776,19.608092 69.2019953,19.6854614 69.1237541,19.7628308 C68.9672717,19.5307225 68.7325481,19.3759836 68.5760657,19.2986142 C68.0283774,18.9891364 67.4024479,18.911767 66.6982772,19.1438753 C65.9158653,19.3759836 65.1334534,19.9175697 64.2728003,20.846003 C63.4121472,21.7744362 62.6297353,22.780239 62.0038058,23.9407805 C61.3778763,25.1013221 61.0649115,26.1844943 61.0649115,27.0355581 C61.0649115,28.3508386 61.690841,29.2019024 62.8644589,29.5113802 C64.1163179,29.8208579 65.4464181,29.2792718 66.7765184,27.8866219 C66.9330008,28.5829469 67.2459655,29.124533 67.871895,29.4340107 C68.3413422,29.7434885 68.8890305,29.8208579 69.4367188,29.8208579 C69.9844072,29.8208579 70.6103367,29.666119 71.158025,29.4340107 C71.7839545,29.2019024 72.2534017,28.8924246 72.7228488,28.5055774 C72.8793312,28.3508386 73.0358136,28.2734691 73.1922959,28.1187302 C73.1140547,28.5829469 73.0358136,28.9697941 73.0358136,29.2792718 C73.0358136,29.666119 73.1922959,29.9755968 73.5052607,30.2077051 C73.8182255,30.4398134 74.2094314,30.5171829 74.5223962,30.2850745 C74.8353609,30.1303357 75.1483257,29.8982273 75.5395316,29.5113802 C75.9307376,29.124533 76.4784259,28.5055774 77.1825966,27.5771442 C79.2951087,25.1013221 80.234003,24.1728889 80.625209,23.8634111 C80.625209,24.1728889 80.7816913,24.7918444 80.9381737,25.952386 C81.0164149,26.7260803 81.0946561,27.3450359 81.1728973,27.7318831 C81.1728973,28.1187302 81.3293797,28.5829469 81.5641032,29.124533 C81.7988268,29.666119 82.0335504,30.0529662 82.4247563,30.2850745 C82.8159623,30.5171829 83.2071682,30.6719217 83.5983742,30.6719217 C84.3025449,30.6719217 85.0067156,30.362444 85.7108863,29.8208579 C86.5715394,30.2850745 87.5886749,30.1303357 88.7622927,29.4340107 C89.7794282,28.7376858 90.953046,27.5771442 92.3613874,25.8750165 C92.3613874,26.4166026 92.4396286,26.8808192 92.596111,27.2676664 C92.987317,29.2792718 94.0044524,30.5171829 95.5692762,30.9040301 C95.9604822,30.9813995 96.4299293,31.0587689 96.8993764,31.0587689 C97.525306,31.0587689 98.1512355,30.9040301 98.777165,30.6719217 C99.4030945,30.4398134 99.9507828,30.1303357 100.341989,29.8208579 C100.733195,29.5113802 101.202642,29.124533 101.593848,28.7376858 C101.985054,28.3508386 102.219777,28.0413608 102.37626,27.8866219 C102.532742,27.7318831 102.610983,27.5771442 102.689224,27.4224053 C102.845707,27.190297 102.923948,26.8808192 102.845707,26.6487109 C102.845707,26.3392332 102.610983,26.1071248 102.37626,26.0297554 C102.141536,25.8750165 101.906813,25.7976471 101.593848,25.8750165 C101.280883,25.8750165 101.046159,26.0297554 100.889677,26.2618637 L100.889677,26.2618637 C100.889677,26.3392332 100.889677,26.3392332 100.889677,26.4166026 C100.889677,26.4166026 100.733195,26.5713415 100.654954,26.7260803 C100.498471,26.8808192 100.42023,27.0355581 100.263748,27.190297 C100.107265,27.3450359 99.9507828,27.4997747 99.7943005,27.6545136 C99.5595769,27.8092525 99.4030945,28.0413608 99.2466121,28.1187302 C99.0118886,28.2734691 98.8554062,28.428208 98.5424414,28.5829469 C98.3077179,28.7376858 98.0729943,28.8150552 97.8382707,28.8924246 C97.6035471,28.8924246 97.2905824,28.9697941 97.0558588,29.0471635 C96.8211353,29.0471635 96.5864117,29.0471635 96.2734469,28.9697941 C95.491035,28.7376858 95.0215879,28.1187302 94.7086231,26.8808192 C94.4738996,25.8750165 94.4738996,24.5597361 94.6303819,23.0123473 C94.7086231,22.8576084 94.8651055,22.6255001 95.0998291,22.3933918 L95.0215879,22.3933918 Z M102.689224,3.43787919 L102.689224,3.43787919 C102.845707,3.28314031 102.923948,3.20577087 103.002189,3.20577087 C103.002189,3.82472638 102.532742,5.29474572 100.967918,8.6216316 C99.6378181,11.4069314 97.8382707,14.5790784 95.5692762,17.9059643 C96.2734469,15.2754034 97.2905824,12.567473 98.5424414,9.85954263 C100.029024,6.61002619 101.437365,4.44368189 102.689224,3.43787919 L102.689224,3.43787919 Z M67.9501362,22.2386529 C67.9501362,22.3160223 67.9501362,22.3933918 67.871895,22.4707612 C67.0894831,24.01815 66.22883,25.3334304 65.368177,26.3392332 C64.5857651,27.2676664 63.9598355,27.6545136 63.4903884,27.5771442 C63.333906,27.5771442 63.1774236,27.4224053 63.1774236,27.1129275 C63.1774236,26.2618637 63.6468708,25.1013221 64.6640063,23.6313028 C65.6811417,22.2386529 66.5417948,21.3875891 67.2459655,21.1554807 C67.2459655,21.1554807 67.2459655,21.1554807 67.3242067,21.1554807 C67.4024479,21.1554807 67.3242067,21.1554807 67.3242067,21.1554807 C67.4806891,21.2328502 67.6371715,21.5423279 67.7154127,21.9291751 C67.7154127,22.0065446 67.7154127,22.1612834 67.871895,22.2386529 L67.9501362,22.2386529 Z" id="Shape"></path>
                    <path d="M121.388869,15.2754034 C121.310628,15.2754034 121.154145,15.3527728 121.075904,15.4301422 C121.075904,15.4301422 120.997663,15.4301422 120.997663,15.4301422 L120.841181,15.4301422 C120.606457,15.5848811 120.371733,15.73962 120.293492,15.9717283 C120.13701,16.2038366 120.13701,16.5133144 120.293492,16.7454227 C120.449975,17.2096393 120.762939,17.4417477 121.310628,17.4417477 C121.858316,17.4417477 121.545351,17.4417477 121.623592,17.3643782 C121.858316,17.3643782 122.249522,17.1322699 122.875451,16.9001616 L123.188416,16.7454227 L122.406004,14.7338173 L121.780075,15.043295 C121.701834,15.043295 121.623592,15.1206645 121.46711,15.1980339 L121.388869,15.2754034 Z" id="Path"></path>
                    <path d="M142.51399,17.5191171 C142.670472,17.5191171 142.748714,17.5191171 142.826955,17.4417477 C143.061678,17.4417477 143.452884,17.2096393 144.078814,16.977531 L144.391779,16.8227921 L143.609367,14.8111867 L142.983437,15.1206645 C142.905196,15.1206645 142.826955,15.1980339 142.670472,15.2754034 C142.592231,15.2754034 142.435749,15.3527728 142.357508,15.4301422 C142.357508,15.4301422 142.279267,15.4301422 142.279267,15.4301422 L142.122784,15.4301422 C141.888061,15.5848811 141.653337,15.73962 141.575096,15.9717283 C141.418613,16.2038366 141.418613,16.5133144 141.575096,16.7454227 C141.731578,17.2096393 142.044543,17.4417477 142.592231,17.4417477 L142.51399,17.5191171 Z" id="Path"></path>
                    <path d="M175.844737,24.7918444 L175.844737,24.7918444 C175.766496,24.4823666 175.610013,24.2502583 175.297049,24.1728889 C175.062325,24.01815 174.827601,24.01815 174.514637,24.0955194 C173.497501,24.4049972 172.480366,24.7144749 171.541471,25.1013221 C171.619713,22.5481306 171.384989,19.9175697 170.837301,17.3643782 C170.75906,16.977531 170.446095,16.6680533 170.054889,16.5906838 C169.663683,16.5133144 169.272477,16.5906838 168.959512,16.9001616 C168.881271,17.0549005 168.646547,17.3643782 168.255342,17.8285949 C168.255342,17.8285949 168.255342,17.7512254 168.1771,17.673856 C167.785894,16.977531 167.159965,16.5906838 166.377553,16.435945 C165.5169,16.2812061 164.578006,16.435945 163.717353,17.0549005 C163.091423,17.4417477 162.387252,18.2928115 161.60484,19.608092 C160.822428,20.846003 160.040017,22.3160223 159.492328,23.7860417 C158.866399,25.3334304 158.631675,26.493972 158.709916,27.3450359 C158.709916,27.6545136 158.788158,27.8866219 158.94464,28.1187302 C158.94464,28.1187302 158.94464,28.1187302 158.94464,28.1187302 C158.788158,28.2734691 158.553434,28.428208 158.240469,28.5829469 C158.083987,28.6603163 158.005746,28.6603163 157.927504,28.6603163 C157.927504,28.5829469 157.61454,28.1187302 157.458057,25.8750165 C157.458057,25.1786916 157.301575,24.7144749 157.301575,24.4049972 C157.301575,24.0955194 157.145093,23.7086722 157.066851,23.2444556 C156.910369,22.780239 156.753887,22.3933918 156.519163,22.1612834 C156.284439,21.9291751 155.971475,21.7744362 155.580269,21.6970668 C154.876098,21.6196974 154.093686,21.9291751 153.311274,22.7028695 C152.607104,23.3991945 151.589968,24.4823666 150.259868,26.0297554 C150.729315,23.9407805 151.277003,21.7744362 151.824692,19.6854614 C151.824692,19.4533531 151.824692,19.1438753 151.668209,18.911767 C151.511727,18.6796587 151.277003,18.5249198 150.964039,18.4475504 C150.651074,18.4475504 150.41635,18.4475504 150.181627,18.6022892 C149.946903,18.7570281 149.790421,18.9891364 149.71218,19.2212448 C149.399215,20.4591558 149.08625,21.6196974 148.851526,22.6255001 C148.851526,22.6255001 148.851526,22.6255001 148.851526,22.6255001 C147.677909,24.1728889 146.42605,25.5655388 145.017708,26.7260803 C143.765849,27.7318831 142.826955,28.1960997 142.279267,27.9639914 C142.279267,27.8866219 142.122784,27.5771442 142.201025,26.9581887 C142.201025,26.3392332 142.357508,25.4107999 142.670472,24.2502583 C142.670472,24.1728889 142.670472,24.0955194 142.670472,24.01815 C142.670472,23.8634111 142.748714,23.7086722 142.826955,23.5539333 C143.061678,22.6255001 143.374643,21.6196974 143.765849,20.6138947 C143.765849,20.4591558 143.765849,20.2270475 143.765849,20.0723086 C143.765849,19.9175697 143.687608,19.7628308 143.531126,19.608092 C143.374643,19.4533531 143.218161,19.3759836 143.061678,19.2986142 C142.826955,19.2212448 142.51399,19.2986142 142.279267,19.2986142 C142.044543,19.4533531 141.809819,19.608092 141.731578,19.9175697 C141.418613,20.6912641 141.18389,21.5423279 140.949166,22.3160223 C140.949166,22.4707612 140.870925,22.7028695 140.792684,22.9349778 C140.792684,22.9349778 140.636202,22.9349778 140.636202,23.0123473 C140.55796,23.0123473 140.479719,23.0123473 140.323237,23.0897167 C140.166754,23.0897167 140.088513,23.0897167 139.932031,23.0897167 C139.775548,23.0897167 139.697307,23.0897167 139.540825,23.0897167 C139.384342,23.0897167 139.149619,23.0123473 138.993137,22.9349778 C138.523689,22.780239 138.210725,22.2386529 138.054242,21.3875891 C137.819519,20.4591558 137.741278,19.608092 137.741278,18.911767 C137.741278,18.3701809 137.506554,17.9833337 136.958866,17.9059643 C136.411177,17.7512254 136.019971,17.9059643 135.707007,18.3701809 C134.455148,20.6912641 133.125047,22.780239 131.794947,24.4823666 C130.464847,26.1844943 129.838917,26.7260803 129.604194,26.9581887 C129.447711,26.493972 129.447711,25.6429082 129.682435,23.9407805 C129.917159,22.2386529 130.386606,20.4591558 131.012535,18.6022892 C131.090776,18.3701809 131.012535,18.0607032 131.012535,17.8285949 C130.856053,17.5964865 130.69957,17.3643782 130.386606,17.2870088 C130.073641,17.2096393 129.838917,17.2870088 129.604194,17.2870088 C129.36947,17.4417477 129.212988,17.5964865 129.056505,17.9059643 C128.900023,18.4475504 128.665299,19.1438753 128.430576,19.8402003 C128.274094,20.4591558 128.03937,21.3102196 127.804646,22.3160223 C127.726405,22.3160223 127.648164,22.4707612 127.569923,22.5481306 C126.396305,24.0955194 125.144446,25.4881693 123.736105,26.6487109 C122.484246,27.6545136 121.545351,28.1187302 120.997663,27.8866219 C120.997663,27.8092525 120.841181,27.4997747 120.919422,26.8808192 C120.919422,26.2618637 121.075904,25.3334304 121.388869,24.1728889 C121.701834,23.0123473 122.014798,21.7744362 122.484246,20.5365252 C122.484246,20.3817863 122.484246,20.149678 122.484246,19.9949391 C122.484246,19.8402003 122.406004,19.6854614 122.249522,19.5307225 C122.09304,19.3759836 121.936557,19.2986142 121.780075,19.2212448 C121.545351,19.1438753 121.232386,19.2212448 120.997663,19.2212448 C120.762939,19.3759836 120.528216,19.5307225 120.449975,19.8402003 C120.13701,20.6138947 119.902286,21.4649585 119.667563,22.2386529 C119.432839,23.0123473 119.198116,23.9407805 118.963392,25.0239527 C118.728668,26.1071248 118.728668,27.0355581 118.80691,27.8866219 C118.80691,28.1960997 118.885151,28.428208 119.041633,28.6603163 C118.963392,28.8150552 118.650427,29.124533 118.337462,29.5113802 C117.946256,29.8982273 117.633292,30.2077051 117.242086,30.5171829 C116.85088,30.8266606 116.381433,30.9813995 115.833744,31.2135078 C115.286056,31.3682467 114.738368,31.4456161 114.190679,31.2908773 C112.156408,30.9040301 111.061032,29.124533 110.826308,25.952386 C110.826308,25.952386 110.826308,25.8750165 110.904549,25.7976471 C111.452238,24.9465832 112.078167,24.01815 112.704097,22.9349778 C113.408267,21.8518057 114.347162,20.149678 115.677262,17.9059643 C117.007362,15.6622506 118.102739,13.5732757 119.041633,11.6390397 C119.980527,9.70480375 120.762939,7.77056777 121.310628,5.91370124 C121.936557,3.90209582 122.09304,2.50944592 121.701834,1.50364321 C121.46711,0.729948819 120.919422,0.188362745 120.215251,0.033623867 C120.13701,0.033623867 120.058769,0.033623867 119.980527,0.033623867 C119.041633,-0.121115011 118.102739,0.265732184 117.085603,1.03942657 C116.146709,1.81312097 115.286056,2.89629311 114.425403,4.28894302 C113.642991,5.68159292 112.860579,7.2289817 112.078167,8.93110936 C111.373997,10.633237 110.748067,12.4127341 110.200379,14.1922312 C109.65269,15.9717283 109.261484,17.7512254 108.94852,19.3759836 C108.244349,23.321825 108.32259,26.5713415 109.105002,28.9697941 C109.887414,31.4456161 111.452238,32.9156355 113.642991,33.3024827 C114.034197,33.3024827 114.347162,33.3798521 114.738368,33.3798521 C115.442538,33.3798521 116.146709,33.2251132 116.85088,32.9156355 C117.555051,32.6061577 118.102739,32.29668 118.572186,31.9872022 C119.041633,31.6777244 119.432839,31.2135078 119.824045,30.8266606 C120.13701,30.4398134 120.371733,30.2077051 120.528216,29.9755968 C120.762939,29.9755968 120.919422,29.9755968 121.154145,29.9755968 C121.936557,29.9755968 122.718969,29.7434885 123.657863,29.2019024 C124.518516,28.6603163 125.37917,28.0413608 126.161581,27.190297 C126.552787,26.8034498 126.865752,26.4166026 127.178717,26.1071248 C127.178717,27.1129275 127.41344,27.8092525 127.726405,28.2734691 C128.117611,28.7376858 128.587058,28.9697941 129.134747,28.9697941 L129.291229,28.9697941 C130.777812,28.8924246 132.968565,26.5713415 135.785248,22.0065446 C136.176454,23.3991945 136.958866,24.3276277 137.976001,24.7918444 C138.445448,25.0239527 138.993137,25.1013221 139.462584,25.1013221 C139.697307,25.1013221 139.85379,25.1013221 140.088513,25.1013221 C139.932031,26.1071248 139.85379,27.0355581 139.932031,27.8092525 C140.088513,28.6603163 140.401478,29.2792718 140.949166,29.5887496 C141.340372,29.8208579 141.809819,29.8982273 142.357508,29.8982273 C143.13992,29.8982273 143.922332,29.666119 144.861226,29.124533 C145.721879,28.5829469 146.582532,27.9639914 147.364944,27.1129275 C147.443185,27.0355581 147.521426,26.8808192 147.677909,26.8034498 C147.443185,27.8866219 147.286703,28.6603163 147.286703,29.124533 C147.286703,29.5113802 147.443185,29.8208579 147.75615,30.0529662 C148.069115,30.2850745 148.460321,30.362444 148.773285,30.1303357 C149.08625,29.9755968 149.399215,29.7434885 149.790421,29.3566413 C150.181627,28.9697941 150.729315,28.3508386 151.433486,27.4224053 C153.545998,24.9465832 154.484892,24.01815 154.876098,23.7086722 C154.876098,24.01815 155.03258,24.6371055 155.189063,25.7976471 C155.267304,26.5713415 155.345545,27.190297 155.423786,27.5771442 C155.423786,27.9639914 155.580269,28.428208 155.814992,28.9697941 C156.049716,29.5113802 156.284439,29.8982273 156.675645,30.1303357 C157.066851,30.362444 157.458057,30.5171829 157.849263,30.5171829 C158.709916,30.5171829 159.492328,30.1303357 160.27474,29.4340107 C160.431223,29.2792718 160.509464,29.124533 160.587705,28.8924246 C161.448358,28.8924246 162.465493,28.2734691 163.639111,27.0355581 C165.047453,25.6429082 166.847,23.321825 169.115995,20.0723086 C169.350718,21.9291751 169.350718,23.8634111 169.115995,25.8750165 C167.238206,26.7260803 165.5169,27.8092525 163.873835,28.9697941 C162.23077,30.2077051 160.822428,31.4456161 159.727052,32.6835272 C158.631675,33.9214382 157.61454,35.2367186 156.753887,36.6293685 C155.893234,37.944649 155.267304,39.2599295 154.876098,40.4978405 C154.406651,41.6583821 154.171927,42.8189237 154.015445,43.9020958 C153.780721,45.7589624 154.015445,46.9195039 154.876098,47.3063511 C155.345545,47.6931983 155.971475,47.8479372 156.753887,47.8479372 C157.849263,47.8479372 159.101122,47.3837206 160.509464,46.5326567 C161.60484,45.8363318 162.778458,44.8305291 163.873835,43.6699875 C164.969212,42.5094459 166.064588,41.0394266 167.159965,39.4146684 C168.1771,37.7899101 169.115995,35.8556742 169.898407,33.6893299 C170.602577,31.600355 171.150266,29.3566413 171.384989,27.1129275 C172.558607,26.5713415 173.888707,26.1844943 175.140566,25.7976471 C175.297049,25.7976471 175.453531,25.7202776 175.531772,25.5655388 C175.610013,25.4881693 175.688255,25.3334304 175.766496,25.256061 C175.766496,25.1013221 175.844737,25.0239527 175.844737,24.8692138 C175.844737,24.7144749 175.844737,24.6371055 175.844737,24.4823666 L175.844737,24.7918444 Z M168.881271,28.5829469 C168.724789,29.7434885 168.490065,30.8266606 168.1771,31.9098328 C167.864136,33.1477438 167.394688,34.4630243 166.847,35.7783047 C166.299312,37.0162157 165.673382,38.2541268 164.969212,39.3372989 C164.265041,40.4204711 163.404388,41.5036432 162.465493,42.4320765 C161.526599,43.4378792 160.431223,44.288943 159.335846,44.985268 C158.553434,45.4494846 157.927504,45.7589624 157.301575,45.9137012 C156.753887,46.0684401 156.362681,45.9910707 156.127957,45.9137012 C156.127957,45.9137012 156.127957,45.9137012 156.127957,45.6815929 C156.127957,45.526854 156.127957,45.2947457 156.127957,44.985268 C156.127957,44.6757902 156.127957,44.288943 156.284439,43.8247264 C156.362681,43.3605097 156.519163,42.8189237 156.675645,42.2773376 C157.223334,40.6525794 158.005746,39.0278212 159.022881,37.4030629 C160.040017,35.7783047 161.448358,34.1535465 163.247905,32.5287883 C164.89097,31.0587689 166.768759,29.7434885 168.881271,28.6603163 L168.881271,28.5829469 Z M161.683082,26.2618637 C161.448358,26.493972 161.213634,26.6487109 161.057152,26.8034498 C160.90067,26.9581887 160.744187,26.9581887 160.744187,26.9581887 C160.744187,26.7260803 160.744187,26.1844943 161.213634,24.9465832 C161.683082,23.7086722 162.309011,22.3933918 163.091423,21.0781113 C163.795594,19.8402003 164.421523,18.9891364 164.969212,18.6796587 C165.360418,18.4475504 165.673382,18.3701809 165.908106,18.3701809 C166.142829,18.3701809 165.908106,18.3701809 165.986347,18.3701809 C166.142829,18.3701809 166.377553,18.5249198 166.455794,18.6796587 C166.612277,18.911767 166.847,19.0665059 167.081724,19.1438753 C167.081724,19.1438753 167.238206,19.1438753 167.316447,19.1438753 C166.690518,19.9949391 166.142829,20.7686335 165.673382,21.4649585 C165.047453,22.3160223 164.499764,23.0897167 164.030317,23.6313028 C163.56087,24.2502583 163.169664,24.7144749 162.778458,25.1786916 C162.387252,25.6429082 162.074288,25.952386 161.839564,26.1844943 L161.683082,26.2618637 Z M118.650427,7.07424282 C117.633292,9.55006487 116.459674,12.1032564 114.973091,14.8111867 C113.721232,17.1322699 112.312891,19.4533531 110.826308,21.8518057 C110.826308,21.1554807 110.982791,20.4591558 111.139273,19.6854614 L111.139273,19.6854614 C111.530479,17.5964865 112.078167,15.4301422 112.782338,13.1864285 C113.56475,11.0200842 114.347162,9.08584824 115.129574,7.46109002 C115.911986,5.8363318 116.772639,4.52105133 117.633292,3.43787919 C118.572186,2.35470704 119.119874,2.04522928 119.51108,1.96785984 C119.51108,1.96785984 119.589321,2.04522928 119.589321,2.12259872 C119.745804,2.6641848 119.745804,3.97946526 118.572186,6.99687338 L118.650427,7.07424282 Z" id="Shape"></path>
                </g>
            </g>
            <path d="M234.488846,10.212766 C234.488846,9.67117988 234.567087,9.20696325 234.801811,8.74274662 C235.036534,8.27852998 235.271258,7.89168279 235.584222,7.58220503 C235.897187,7.27272727 236.366634,6.96324952 236.75784,6.80851064 C237.227287,6.57640232 237.696735,6.49903288 238.244423,6.49903288 C238.792111,6.49903288 239.261558,6.57640232 239.731005,6.80851064 C240.200453,7.04061896 240.591659,7.27272727 240.904623,7.58220503 C241.217588,7.89168279 241.530553,8.27852998 241.687035,8.74274662 C241.921759,9.20696325 242,9.67117988 242,10.212766 C242,10.754352 241.921759,11.2185687 241.687035,11.6827853 C241.452312,12.1470019 241.217588,12.5338491 240.904623,12.8433269 C240.591659,13.1528046 240.200453,13.4622824 239.731005,13.6170213 C239.261558,13.8491296 238.792111,13.926499 238.244423,13.926499 C237.696735,13.926499 237.227287,13.8491296 236.75784,13.6170213 C236.288393,13.384913 235.897187,13.1528046 235.584222,12.8433269 C235.271258,12.5338491 234.958293,12.1470019 234.801811,11.6827853 C234.567087,11.2185687 234.488846,10.754352 234.488846,10.212766 Z M235.036534,10.212766 C235.036534,10.6769826 235.114775,11.0638298 235.271258,11.450677 C235.42774,11.8375242 235.662464,12.1470019 235.975428,12.4564797 C236.288393,12.7659574 236.601358,12.9980658 236.992564,13.1528046 C237.38377,13.3075435 237.774976,13.384913 238.244423,13.384913 C238.71387,13.384913 239.105076,13.3075435 239.496282,13.1528046 C239.887488,12.9980658 240.200453,12.7659574 240.513417,12.4564797 C240.826382,12.1470019 241.061106,11.8375242 241.217588,11.450677 C241.37407,11.0638298 241.452312,10.6769826 241.452312,10.212766 C241.452312,9.74854932 241.37407,9.36170213 241.217588,8.97485493 C241.061106,8.58800774 240.826382,8.27852998 240.513417,7.96905222 C240.200453,7.65957447 239.887488,7.42746615 239.496282,7.27272727 C239.105076,7.11798839 238.71387,7.04061896 238.244423,7.04061896 C237.774976,7.04061896 237.38377,7.11798839 236.992564,7.27272727 C236.601358,7.42746615 236.288393,7.65957447 235.975428,7.96905222 C235.662464,8.27852998 235.42774,8.58800774 235.271258,8.97485493 C235.114775,9.36170213 235.036534,9.74854932 235.036534,10.212766 Z M237.462011,12.3791103 L236.914323,12.3791103 L236.914323,8.04642166 L238.557388,8.04642166 C239.026835,8.04642166 239.418041,8.1237911 239.652764,8.35589942 C239.887488,8.58800774 239.965729,8.82011605 239.965729,9.20696325 C239.965729,9.59381044 239.965729,9.59381044 239.887488,9.74854932 C239.887488,9.9032882 239.731005,9.98065764 239.652764,10.1353965 C239.574523,10.212766 239.418041,10.2901354 239.3398,10.3675048 C239.183317,10.3675048 239.105076,10.4448743 238.948594,10.5222437 L240.278694,12.3791103 L239.652764,12.3791103 L238.322664,10.5222437 L237.540252,10.5222437 L237.540252,12.3791103 L237.462011,12.3791103 Z M237.462011,9.98065764 L238.166182,9.98065764 C238.322664,9.98065764 238.479146,9.98065764 238.635629,9.98065764 C238.792111,9.98065764 238.948594,9.98065764 239.026835,9.9032882 C239.183317,9.9032882 239.261558,9.74854932 239.3398,9.67117988 C239.3398,9.59381044 239.418041,9.43907157 239.418041,9.28433269 C239.418041,9.12959381 239.418041,9.05222437 239.3398,8.97485493 C239.3398,8.89748549 239.183317,8.82011605 239.105076,8.74274662 C239.026835,8.74274662 238.870352,8.66537718 238.792111,8.58800774 C238.635629,8.58800774 238.557388,8.58800774 238.479146,8.58800774 L237.540252,8.58800774 L237.540252,10.0580271 L237.462011,9.98065764 Z" id="Shape" fill="#FFFFFF" fill-rule="nonzero"></path>
        </g>
    </g>
</svg>