<?xml version="1.0" encoding="UTF-8"?>
<svg width="526px" height="156px" viewBox="0 0 526 156" version="1.1" xmlns="http://www.w3.org/2000/svg" xmlns:xlink="http://www.w3.org/1999/xlink">
    <title>DITRON blog_oscuro</title>
    <g id="DITRON-blog_oscuro" stroke="none" fill="none" fill-rule="evenodd" stroke-width="1">
        <g id="Layer_1" transform="translate(8, 10)">
            <g id="Group" fill-rule="nonzero">
                <path d="M22.733996,74.8658234 L0,74.8658234 L0,13.9641428 L22.8245697,13.9641428 C42.1167655,13.9641428 55.3405242,27.0273731 55.3405242,44.3248918 C55.3405242,61.6224106 42.0261918,74.9559146 22.8245697,74.9559146 L22.8245697,74.9559146 L22.733996,74.8658234 Z M22.733996,23.6039058 L10.6876953,23.6039058 L10.6876953,65.1359691 L22.733996,65.1359691 C35.5954599,65.1359691 44.018813,56.577301 44.018813,44.5951656 C44.018813,32.6130302 35.6860336,23.8741795 22.733996,23.8741795 L22.733996,23.6939971 L22.733996,23.6939971 L22.733996,23.6039058 Z" id="Shape" fill="#000000"></path>
                <polygon id="Path" fill="#000000" points="101.080237 13.9641428 101.080237 74.9559146 90.3019682 74.9559146 90.3019682 13.9641428"></polygon>
                <polygon id="Path" fill="#000000" points="166.565015 74.8658234 155.605598 74.8658234 155.605598 23.7840883 136.222829 23.7840883 136.222829 13.8740515 186.038358 13.8740515 186.038358 23.7840883 166.655588 23.7840883 166.655588 74.8658234 166.655588 74.8658234"></polygon>
                <path d="M260.399357,74.8658234 L245.273551,53.6943812 L231.868645,53.6943812 L231.868645,74.8658234 L221.090376,74.8658234 L221.090376,13.9641428 L248.353056,13.9641428 C262.482552,13.9641428 271.177626,21.3516247 271.177626,33.2436689 C271.177626,45.135713 265.018615,49.550184 256.595262,51.802465 L273.079673,74.9559146 L260.399357,74.9559146 L260.399357,74.9559146 L260.399357,74.8658234 Z M247.356745,23.6039058 L231.596924,23.6039058 L231.596924,44.0546181 L247.356745,44.0546181 C255.055509,44.0546181 260.037062,40.0906034 260.037062,33.7842163 C260.037062,27.4778293 255.417804,23.5138146 247.356745,23.5138146 L247.356745,23.5138146 L247.356745,23.6039058 Z" id="Shape" fill="#000000"></path>
                <polygon id="Path" fill="#0099D4" points="450.060662 13.9641428 460.657784 13.9641428 460.657784 74.9559146 451.690989 74.9559146 417.816429 31.5319352 417.816429 74.9559146 407.219307 74.9559146 407.219307 13.9641428 417.182413 13.9641428 450.060662 56.1268447 450.060662 13.9641428"></polygon>
                <g transform="translate(308.0411, 0)" fill="#0099D4" id="Path">
                    <polygon points="37.4975074 0 37.4975074 41.7122458 26.7192383 41.7122458 26.7192383 0"></polygon>
                    <path d="M43.8376656,13.9641428 L43.8376656,25.4958219 C49.4532344,29.4598366 52.8044609,36.0364974 52.8044609,43.6942531 C52.8044609,55.6763885 44.2905341,65.2260603 32.1536597,65.2260603 C20.0167853,65.2260603 11.3217112,55.3160235 11.3217112,43.5140706 C11.3217112,31.7121177 14.0389218,30.6310228 18.7487537,26.7570993 L18.7487537,14.9551464 C7.33646883,19.9101648 0,31.081479 0,43.7843444 C0,56.4872097 13.1331849,75.2261884 31.8819386,75.2261884 C50.6306923,75.2261884 63.9450246,60.8115894 63.9450246,43.6041619 C63.9450246,26.3967344 55.8839663,18.7389787 43.5659446,14.2344165 C43.5659446,14.2344165 43.8376656,13.9641428 43.8376656,13.9641428 L43.8376656,13.9641428 Z"></path>
                </g>
            </g>
            <g id="Group" opacity="0.8" transform="translate(367.4, 57.65)" fill="#000000" fill-rule="nonzero">
                <path d="M139.665755,42.07162 C134.533553,44.2402879 129.54196,46.4789129 124.550366,48.8574519 C125.183103,47.2484402 125.745536,45.6394285 126.237665,43.9604598 C127.081315,42.2814911 127.784356,40.6025223 128.417093,38.9235536 C128.69831,38.0840692 128.838918,37.3844989 128.628006,36.7548856 C128.487398,36.1252724 128.135877,35.7055302 127.714052,35.425702 C127.292227,35.1458739 126.729794,35.0759169 126.167361,35.215831 C125.534624,35.355745 124.972191,35.7055302 124.339454,36.3351434 C123.214588,37.4544559 122.019417,38.6437255 120.894551,39.832995 C119.769685,41.0222645 118.574515,42.141577 117.449649,43.2608895 C116.254478,44.380202 114.989004,45.3596004 113.72353,46.3389988 C112.387751,47.2484402 110.981668,48.0879246 109.364673,48.7175379 C108.872544,48.927409 108.169503,49.1372801 107.396158,49.4171082 C106.622812,49.6269793 105.849467,49.7668933 105.146425,49.7668933 C104.443384,49.7668933 103.880951,49.5570223 103.388822,49.2072371 C102.896693,48.8574519 102.615477,48.1578816 102.615477,47.1784832 C102.615477,46.1990848 102.756085,45.7793426 103.107606,45.0797723 C103.388822,44.380202 103.810647,43.6106746 104.302776,42.9111043 C104.794905,42.211534 105.287034,41.5819208 105.849467,40.9523075 C106.4119,40.3226942 106.904029,39.832995 107.325854,39.3432958 C108.45072,38.2239833 109.575586,37.1746278 110.84106,36.1952294 C112.106535,35.1458739 113.372009,34.2364325 114.778092,33.4669052 C116.11387,32.6274208 117.590257,31.9978075 119.066644,31.5081083 C120.543031,31.0184091 122.160026,30.808538 123.777021,30.808538 C125.394016,30.808538 125.183103,30.808538 125.815841,30.9484521 C126.448578,31.0883661 127.151619,31.1583232 127.85466,31.2282802 C128.557702,31.3681943 129.190439,31.2282802 129.752872,31.0184091 C130.245001,30.808538 130.666826,30.2488818 130.877738,29.4093974 C131.088651,28.7098271 131.018346,28.0802138 130.666826,27.5905146 C130.315305,27.1008154 129.752872,26.7510302 129.049831,26.5411591 C128.276485,26.261331 127.432836,26.121417 126.448578,25.9815029 C125.534624,25.9115459 124.62067,25.8415888 123.706717,25.9115459 C121.246072,25.9115459 118.855731,26.331288 116.605999,27.1707724 C114.356267,28.0102568 112.176839,29.1295693 110.208323,30.5287099 C108.731936,31.5780654 107.396158,32.6973778 106.060379,33.8866474 C105.427642,34.3063896 104.794905,34.5862177 104.091863,34.9360028 C102.966997,35.425702 101.912435,35.7754872 100.787569,36.0553153 C99.6627031,36.3351434 98.6081411,36.5450145 97.4832749,36.7548856 C96.3584088,36.9647567 95.3038468,37.1046708 94.3195889,37.2445848 C94.3195889,36.6849286 94.3898931,36.1252724 94.4601972,35.5656161 C94.4601972,35.0759169 94.5305013,34.5162606 94.6008055,33.8866474 C94.6008055,32.0677646 94.1789807,30.4587529 93.3353311,29.0596122 C92.4916815,27.6604716 91.4371195,26.5411591 90.1716451,25.7016748 C88.9061707,24.8621904 87.4297839,24.3025342 85.883093,23.952749 C84.3364021,23.6729209 82.7897111,23.6029638 81.3133243,23.882792 C79.8369375,24.1626201 78.501159,24.7222763 77.2356846,25.6317177 C75.9702102,26.5411591 75.0562565,27.7304287 74.4938234,29.2694833 C72.8768284,29.9690536 71.3301374,30.9484521 69.7834465,32.0677646 C68.7288845,32.9072489 67.7446267,33.8166903 66.8306729,34.7960888 C66.0573275,35.355745 65.283982,35.9853583 64.5809407,36.6849286 C63.7372911,37.524413 62.8233374,38.2939403 61.9093836,38.9935106 C60.2923886,40.3226942 58.6050894,41.6518778 56.9177902,42.9810614 C55.230491,44.310245 53.5431918,45.5694715 51.7152843,46.758741 C49.957681,47.9480105 48.1297735,49.067323 46.231562,49.9767644 C46.0206496,50.0467215 45.8800413,50.1866355 45.6691289,50.2565926 C43.2787884,51.3759051 40.5369272,49.4870652 40.7478396,46.8986551 C40.7478396,46.8986551 40.7478396,46.8986551 40.7478396,46.8986551 C40.8884478,45.3596004 41.3805768,43.6806317 42.2242264,41.8617489 C43.4897008,41.0922215 45.177,39.902952 47.4267322,38.3638973 C49.6061603,36.8248427 51.9261967,35.0759169 54.3165373,33.047163 C56.7068778,31.0883661 59.1675224,28.9196982 61.557863,26.6111162 C63.9482035,24.3025342 66.0573275,21.9939521 67.8149308,19.6853701 C69.5725341,17.3767881 70.9083126,15.1381631 71.7519622,13.0394522 C72.5956118,10.9407413 72.665916,9.05190145 71.9628746,7.37293271 C71.611354,6.53344834 71.1895292,5.90383507 70.7677044,5.41413585 C70.3458796,4.92443664 69.8537507,4.57465148 69.2913176,4.36478039 C68.7288845,4.1549093 68.0258432,4.08495227 67.2524977,4.08495227 C66.4791523,4.08495227 65.6355027,4.1549093 64.6512448,4.29482336 C62.8936415,4.50469445 61.065734,5.41413585 59.0972183,7.02314756 C57.1287026,8.63215927 55.1601869,10.6609132 53.1916711,13.0394522 C51.2231554,15.4879483 49.2546397,18.1463154 47.3564281,21.0845107 C45.4582165,24.022706 43.7006132,26.9609013 42.1539222,29.8291396 C41.3805768,31.2982372 40.6072313,32.6973778 39.9744941,34.0265614 C39.6229735,34.2364325 39.2714528,34.5162606 38.9902363,34.6561747 C37.7247619,35.285788 36.6701999,35.7055302 35.685942,35.8454442 C34.7016841,35.9853583 33.7877304,35.9853583 32.8737767,35.7754872 C31.959823,35.5656161 31.0458692,35.285788 30.1319155,34.8660458 C29.2179618,34.4463036 28.1633998,34.0265614 27.0385336,33.5368622 C25.4918427,32.8372919 24.2966725,32.9072489 23.523327,33.8166903 C22.7499815,34.7261317 22.5390691,35.9154013 22.8202857,37.3844989 C23.1015022,38.6437255 23.1015022,39.902952 22.8202857,41.0922215 C22.6093733,42.2814911 22.1172443,43.4008036 21.5548113,44.450159 C20.9220741,45.4995145 20.2190327,46.5488699 19.305079,47.5982254 C18.4614294,48.6475809 17.5474757,49.5570223 16.5632178,50.4664637 C15.57896,51.3759051 14.524398,52.1454324 13.2589236,52.8450027 C12.0637533,53.544573 10.868583,53.9643152 9.81402105,54.2441433 C8.75945906,54.5239714 7.7752012,54.5239714 7.00185573,54.3141003 C6.15820614,54.1042293 5.66607721,53.544573 5.45516481,52.7050886 C5.17394827,51.7256902 5.24425241,50.6063777 5.52546894,49.2771941 C5.8769896,47.9480105 6.2988144,46.618827 6.9315516,45.2196864 C7.5642888,43.8205457 8.19702599,42.4214051 8.97037146,41.0222645 C9.67341279,39.6231239 10.3764541,38.2939403 11.0091913,37.1046708 C12.0637533,36.4750575 13.6104442,35.355745 15.8601765,33.8866474 C18.0396046,32.3475927 20.4299451,30.5986669 23.1015022,28.569913 C25.7027551,26.5411591 28.3743122,24.3724912 30.9755651,21.9939521 C33.6471221,19.6853701 35.9671585,17.3068311 38.0059784,14.9982491 C40.0447983,12.689667 41.521185,10.5209991 42.575747,8.42228817 C43.5600049,6.32357725 43.7006132,4.57465148 42.9272677,3.17551087 C42.5054429,2.3360265 41.9430098,1.63645619 41.1696644,1.14675697 C40.4666231,0.657057759 39.6229735,0.307272605 38.7793239,0.167358544 C37.9356743,0.0274444821 37.0217205,-0.0425125486 36.1780709,0.0274444821 C35.3344213,0.0974015129 34.4204676,0.307272605 33.6471221,0.517143697 C31.6786064,1.216714 29.7803948,2.47594056 28.1633998,4.22486633 C26.4761006,5.9737921 25.0700179,7.72271787 23.8748477,9.4016866 C21.2032906,13.2493233 18.5317335,17.027003 15.7195682,20.8046826 C12.9074029,24.5124052 10.30615,28.3600419 7.91580946,32.4175497 C7.07215987,33.6767763 6.15820614,35.355745 5.03334001,37.3145419 C3.90847388,39.2733387 2.92421602,41.3720497 2.08056642,43.5407176 C1.23691682,45.7093856 0.604179628,47.8780535 0.182354829,49.9767644 C-0.169165836,52.0754754 -0.0285575696,53.9643152 0.744787894,55.5033699 C1.72904576,57.6020808 2.99452015,58.9312644 4.54121108,59.4909206 C6.087902,60.0505769 7.7752012,60.1904909 9.46250039,59.8407058 C11.2201037,59.4909206 12.9074029,58.7913503 14.5947021,57.8119519 C16.2820013,56.7625964 17.7583881,55.713241 18.9535583,54.5939285 C20.2190327,53.474616 21.414203,52.4252605 22.468765,51.3759051 C23.523327,50.3265496 24.4372807,49.2771941 25.2106262,48.1578816 C26.0542758,47.0385691 26.7573171,45.8492996 27.3900543,44.520116 C28.0227915,43.1909325 28.5852246,41.5819208 29.0773535,39.6930809 C30.4834362,39.6930809 31.8192147,39.832995 33.014385,39.972909 C34.2095552,40.1128231 35.4047255,40.1827801 36.5295916,40.1128231 C36.740504,40.1128231 37.0217205,40.1128231 37.2326329,40.1128231 C36.5295916,41.6518778 36.0374627,42.9810614 35.685942,44.1003739 C35.4047255,44.7999442 35.1938131,45.8492996 34.9125965,47.2484402 C34.7016841,48.5776238 34.5610759,49.9767644 34.63138,51.305948 C34.63138,52.6351316 34.9125965,53.8943582 35.3344213,55.0136707 C35.7562461,56.1329831 36.5295916,56.8325535 37.6544577,57.1823386 C38.2871949,57.3922097 38.7793239,57.4621667 39.2011487,57.3922097 C39.6229735,57.3922097 40.1854065,57.2522956 40.8884478,57.1823386 C43.067876,56.9025105 45.5285206,56.0630261 48.2703818,54.7338425 C51.012243,53.3347019 53.6838001,51.7256902 56.3553571,49.9068074 C58.3238728,48.5776238 60.1517803,47.1784832 61.9796878,45.7093856 C61.9796878,45.8492996 61.9796878,46.0591707 61.9796878,46.1990848 C61.9796878,48.1578816 62.3312084,49.7668933 63.1045539,51.0960769 C63.8778993,52.4252605 64.8621572,53.474616 66.1276316,54.2441433 C67.393106,55.0136707 68.7991887,55.5733269 70.4161837,55.853155 C72.0331788,56.1329831 73.720478,56.1329831 75.4077772,55.853155 C77.1653805,55.6432839 78.9932879,55.0836277 80.6805871,54.1042293 C82.4381905,53.1248308 84.0551855,51.9355613 85.5315723,50.6063777 C87.0079591,49.2771941 88.4140418,47.7381395 89.609212,46.1291278 C90.8043823,44.520116 91.7886402,42.9111043 92.6322898,41.4420067 C93.82746,41.4420067 95.0929344,41.3020926 96.4287129,41.2321356 C97.6238832,41.2321356 98.8190535,41.0222645 100.014224,40.7424364 C100.014224,40.7424364 100.014224,40.7424364 100.014224,40.7424364 C99.2408783,41.7917918 98.4675328,42.9810614 97.7644915,44.2402879 C97.0614501,45.4995145 96.6396253,46.758741 96.4990171,48.1578816 C96.2881047,49.6969363 96.4990171,50.9561629 97.0614501,51.9355613 C97.6941873,52.9849168 98.5378369,53.7544441 99.5923989,54.2441433 C100.646961,54.8037996 101.912435,55.0836277 103.248214,55.0836277 C104.583992,55.0836277 105.849467,55.0136707 107.044637,54.5939285 C109.013153,53.8943582 110.981668,53.0548738 112.809576,51.9355613 C114.637483,50.8862058 116.465391,49.7668933 118.293298,48.5776238 L116.11387,52.9149597 C113.653226,54.1741863 111.192581,55.5033699 108.731936,56.8325535 C103.318518,59.7707487 87.7813046,66.1368385 93.5462435,74.8115104 C99.0299659,83.136397 109.927106,73.0625846 113.793834,68.3754635 C117.168432,64.2479987 119.769685,59.7007917 121.949113,54.9437136 C128.487398,51.6557332 135.095986,48.6475809 141.845183,45.7793426 C144.446436,44.6600301 142.196704,40.8823504 139.595451,42.0016629 L139.665755,42.07162 Z M18.3911253,24.7222763 C19.4456873,23.1832217 20.6408575,21.57421 21.9766361,19.8252842 C23.3124146,18.0763584 24.7184973,16.3274326 26.1245799,14.5785069 C27.6009667,12.8295811 29.0070494,11.2205694 30.3428279,9.75147176 C31.6786064,8.35233114 32.9440808,7.16306162 33.9986428,6.32357725 C35.1235089,5.48409288 35.9671585,5.0643507 36.5295916,5.20426476 C37.6544577,5.41413585 38.0762825,6.04374913 37.7247619,7.16306162 C37.3732412,8.21241708 36.5295916,9.54160066 35.2641172,11.0806553 C33.9986428,12.61971 32.3816478,14.2986788 30.413132,16.1175616 C28.5149204,17.9364444 26.5464047,19.6853701 24.6481931,21.2943818 C22.7499815,22.9733506 20.9923782,24.4424482 19.3753831,25.7016748 C17.7583881,26.9609013 16.5632178,27.8703427 15.8601765,28.3600419 C16.4226096,27.4506005 17.195955,26.191374 18.3208211,24.7222763 L18.3911253,24.7222763 Z M47.4970364,31.0883661 C48.4109901,29.4793544 49.4655521,27.8003857 50.6607223,25.9815029 C51.8558926,24.1626201 53.121367,22.3437373 54.4571455,20.4548975 C55.792924,18.5660576 57.1990067,16.8171319 58.5347852,15.2780772 C59.9408679,13.7390225 61.2766464,12.4098389 62.6827291,11.2905264 C64.0185076,10.241171 65.3542861,9.54160066 66.5494564,9.33172957 C66.7603688,10.381085 66.4791523,11.6403116 65.7058068,13.1793663 C64.9324613,14.7184209 63.8778993,16.3274326 62.5421208,18.0064014 C61.2063423,19.6853701 59.6596514,21.4342959 57.9723522,23.2531787 C56.285053,25.0021045 54.5977538,26.6810732 52.9807587,28.2201279 C51.2934595,29.7591826 49.8170727,31.1583232 48.4109901,32.2776357 C47.0049074,33.4669052 45.9503454,34.3063896 45.3176082,34.8660458 C45.8800413,33.9566044 46.6533868,32.6274208 47.5673405,31.0883661 L47.4970364,31.0883661 Z M84.1254897,44.9398582 C83.0006235,46.2690418 81.7351491,47.5282684 80.3993706,48.5776238 C79.0635921,49.6269793 77.5872053,50.3965066 76.1108185,50.9561629 C74.5641276,51.4458621 73.0174366,51.5158191 71.4004416,51.0261199 C69.9240548,50.6063777 68.7991887,49.8368504 68.0258432,48.7175379 C67.2524977,47.5982254 67.0415853,46.2690418 67.2524977,44.7299871 C67.6743225,42.4214051 68.5882763,40.3226942 70.0646631,38.5038114 C71.5410498,36.6149716 73.228349,35.1458739 75.1265606,33.8866474 C76.7435557,35.9853583 78.501159,37.524413 80.3993706,38.5737684 C82.2975822,39.6231239 84.4770103,40.5325653 87.0079591,41.2321356 C86.2346136,42.3514481 85.2503558,43.5407176 84.1254897,44.9398582 L84.1254897,44.9398582 Z M89.1170831,36.9647567 C88.4843459,36.8947997 87.7813046,36.6849286 87.0782632,36.5450145 C86.3752219,36.3351434 85.6018765,36.1252724 84.8988351,35.9154013 C84.1957938,35.7055302 83.4927525,35.425702 82.7897111,35.0759169 C82.1569739,34.7261317 81.5945409,34.3063896 81.1024119,33.8866474 C80.0478499,32.9072489 79.6260251,31.9278505 79.7666334,30.878495 C79.9072417,29.8990966 80.5399789,28.9196982 81.664845,28.0802138 C83.1412318,28.2900849 84.4067062,28.569913 85.5315723,28.8497412 C86.6564384,29.1295693 87.500088,29.6192685 88.2031294,30.3188388 C88.9061707,30.9484521 89.3279955,31.8578935 89.4686038,32.9072489 C89.609212,33.9566044 89.4686038,35.355745 89.1873872,37.0347138 L89.1170831,36.9647567 Z M113.372009,61.7295456 C111.262885,64.947569 108.731936,67.8857643 105.779163,70.3342604 C104.37308,71.5235299 102.615477,72.9226705 100.787569,73.3424127 C97.8347956,73.972026 95.936584,71.733401 97.7644915,69.1449909 C99.8736155,66.1368385 104.724601,64.2479987 107.888287,62.4990729 C110.348931,61.0999323 112.87988,59.7707487 115.410829,58.4415652 C114.778092,59.5608777 114.07505,60.6801901 113.372009,61.7995026 L113.372009,61.7295456 Z" id="Shape"></path>
            </g>
        </g>
    </g>
</svg>