<?xml version="1.0" encoding="UTF-8"?>
<svg width="102px" height="102px" viewBox="0 0 102 102" version="1.1" xmlns="http://www.w3.org/2000/svg" xmlns:xlink="http://www.w3.org/1999/xlink">
    <title>envios_icon</title>
    <defs>
        <path d="M0,0 L102,0 L102,102 L0,102 L0,0 Z" id="path-1"></path>
    </defs>
    <g id="envios_icon" stroke="none" fill="none" xlink:href="#path-1" fill-rule="evenodd" stroke-width="1">
        <g id="Layer_1-Copy" transform="translate(0, 24)" fill="#0099D4">
            <path d="M0,45.6191256 C0.547717842,44.8441692 0.921161826,44.5191875 1.89211618,44.4191931 C6.49792531,43.8942226 12.0995851,44.794172 16.8049793,44.4191931 C17.9502075,44.5691847 18.8713693,45.5691284 18.373444,46.7440623 C17.8755187,47.9189962 17.7012448,47.5940145 17.626556,47.5940145 L10.2572614,47.5940145 L9.95850622,47.8939976 L9.95850622,51.0938177 L10.2572614,51.3938008 L19.3195021,51.3938008 C22.4315353,42.1193225 35.2033195,42.3193112 38.5394191,51.3938008 L71.5020747,51.3938008 L71.5020747,38.8945039 C71.5020747,37.7945657 74.2157676,36.8446192 74.6390041,38.7445123 C75.0373444,42.5193 74.2406639,47.0190469 74.6639004,50.7188388 C74.7136929,51.2438092 75.1120332,51.7687797 75.4854772,51.2938064 C75.8589212,50.8188331 76.1825726,49.6688978 76.5809129,49.043933 C81.1618257,42.0193281 92.0414938,43.4942451 94.5809129,51.4187994 L98.7634855,51.4187994 L98.7634855,44.2192043 L95.8755187,44.2192043 C94.9045643,44.2192043 93.0622407,42.5942957 92.5892116,41.719345 C91.8672199,40.4194181 91.7925311,36.9946107 92.0165975,35.5196937 C92.2406639,34.0447766 92.6887967,34.2197668 93.1120332,34.2197668 L98.3900415,34.2197668 C98.3900415,32.7448498 95.8008299,30.6199693 94.5062241,30.6199693 L74.6887967,30.6199693 C74.813278,32.1948807 74.8381743,34.4447541 72.6473029,33.9697809 C70.4564315,33.4948076 71.5020747,33.0698315 71.5020747,32.7198512 L71.5020747,3.2215104 L9.95850622,3.2215104 L9.95850622,32.9198399 C9.95850622,33.0698315 9.43568465,33.6947963 9.23651452,33.7947907 C8.01659751,34.4947513 6.84647303,33.6198005 6.77178423,32.3198737 L6.77178423,3.32150478 C6.87136929,1.5966018 8.29045643,0.0716875766 10.0580913,0.0216903888 C30.846473,0.171681952 51.6846473,-0.22829555 72.4232365,0.22167914 C73.2448133,0.296674921 74.7136929,1.82158915 74.7136929,2.52154978 L74.7136929,6.82130792 C78.6970954,7.07129386 83.0290456,6.4963262 86.9626556,6.82130792 C89.7012448,7.04629527 92.0165975,8.5212123 93.0124481,11.1460647 C93.5352697,12.5709845 94.1078838,16.295775 92.2655602,16.8457441 L92.2655602,17.09573 C92.2406639,17.09573 94.780083,27.1701633 94.780083,27.1701633 C95.0539419,27.6951338 96.7966805,27.9951169 97.5435685,28.3950944 C99.1618257,29.220048 100.307054,30.5949707 101.178423,32.1448835 L102,34.6197443 L102,53.4186869 C100.630705,55.5435674 97.3941909,54.2936377 95.2282158,54.6186194 C94.5062241,68.0928615 75.6348548,68.0928615 74.9128631,54.6186194 L39.0373444,54.7436124 C38.1659751,68.1428587 19.3443983,68.0178657 18.746888,54.6186194 C16.0580913,54.2436405 10.033195,55.4935702 7.99170124,53.71867 C5.95020747,51.9437699 6.7966805,52.11876 6.7966805,51.7187825 L6.7966805,47.6190131 C5.55186722,47.3940258 1.54356846,47.993992 0.697095436,47.444023 C-0.149377593,46.8940539 0.273858921,46.8190581 0,46.6190694 L0,45.6191256 Z M90.2240664,13.6209255 C90.5228216,12.0960112 88.5809129,10.0211279 87.1369295,10.0211279 L74.6887967,10.0211279 L74.6887967,13.6209255 L90.2240664,13.6209255 Z M89.0290456,17.0207342 L74.6887967,17.0207342 L74.6887967,27.4201493 L91.4190871,27.4201493 L89.0290456,17.0207342 L89.0290456,17.0207342 Z M98.7883817,37.4195868 L95.2033195,37.4195868 C94.879668,40.544411 95.6763485,41.3443661 98.7883817,41.0193843 L98.7883817,37.4195868 Z M28.6307054,47.6690103 C19.593361,47.8440005 19.9170124,62.0682004 29.1784232,61.6182257 C38.0414938,61.1932496 37.7427386,47.4690215 28.6307054,47.6690103 Z M84.9709544,47.6940089 C75.8589212,47.7940033 76.0082988,61.7432186 85.1452282,61.6182257 C94.2074689,61.5182313 94.033195,47.5940145 84.9709544,47.6940089 Z" id="Shape" fill-rule="nonzero"></path>
            <path d="M42.373444,44.4691903 L66.0248963,44.4191931 C68.06639,44.4941889 68.7385892,47.0440455 66.6224066,47.6190131 L42.2987552,47.6190131 C40.3070539,47.3940258 40.3568465,44.8191706 42.3485477,44.4441917 L42.373444,44.4691903 Z" id="Path" fill-rule="nonzero"></path>
            <path d="M4.73029046,37.6695728 L25.3941909,37.6195756 C27.5103734,37.8695615 27.5850622,40.5944082 25.593361,40.8193956 L4.87966805,40.8193956 C2.86307054,40.5944082 2.98755187,38.2445404 4.73029046,37.6695728 L4.73029046,37.6695728 Z" id="Path" fill-rule="nonzero"></path>
            <path d="M84.1991701,51.4687966 C89.9751037,50.393857 89.3029046,59.0933677 84.2987552,57.8934352 C80.8879668,57.0684816 81.0373444,52.0687628 84.1991701,51.4687966 Z" id="Path" fill-rule="nonzero"></path>
            <path d="M31.1950207,52.2937502 C34.1825726,55.2935814 29.6016598,60.2183044 26.4896266,56.91849 C23.3775934,53.6186756 28.2572614,49.3189175 31.1950207,52.2937502 L31.1950207,52.2937502 Z" id="Path" fill-rule="nonzero"></path>
        </g>
    </g>
</svg>