<?xml version="1.0" encoding="UTF-8"?>
<svg width="30px" height="30px" viewBox="0 0 30 30" version="1.1" xmlns="http://www.w3.org/2000/svg" xmlns:xlink="http://www.w3.org/1999/xlink">
    <title>fb_icon</title>
    <defs>
        <path d="M0,0 L30,0 L30,30 L0,30 L0,0 Z" id="path-1"></path>
    </defs>
    <g id="fb_icon" stroke="none" fill="none" xlink:href="#path-1" fill-rule="nonzero">
        <path d="M29,15.0521466 C29,7.29053127 22.7328125,1 15,1 C7.2671875,1 1,7.29053127 1,15.0521466 C1,21.6390904 5.52265625,27.1721231 11.6203125,28.6926093 L11.6203125,19.3446383 L8.7328125,19.3446383 L8.7328125,15.0521466 L11.6203125,15.0521466 L11.6203125,13.2023133 C11.6203125,8.42128994 13.775,6.20368555 18.45625,6.20368555 C19.3421875,6.20368555 20.8734375,6.37933738 21.5023437,6.55498922 L21.5023437,10.441286 C21.1742187,10.4083513 20.6,10.3863948 19.8835937,10.3863948 C17.5867187,10.3863948 16.7007813,11.2591649 16.7007813,13.5261713 L16.7007813,15.0521466 L21.2726563,15.0521466 L20.4851562,19.3446383 L16.6953125,19.3446383 L16.6953125,29 C23.6296875,28.1601647 29,22.2374044 29,15.0521466 L29,15.0521466 Z" id="Path" fill="#0099D4"></path>
    </g>
</svg>