<?xml version="1.0" encoding="UTF-8"?>
<svg width="30px" height="20px" viewBox="0 0 30 20" version="1.1" xmlns="http://www.w3.org/2000/svg" xmlns:xlink="http://www.w3.org/1999/xlink">
    <title>Path</title>
    <g id="Page-1" stroke="none" stroke-width="1" fill="none" fill-rule="evenodd">
        <g id="arrow-right-long" transform="translate(0, -5)" fill="#FFFFFF" fill-rule="nonzero">
            <path d="M29.4492188,16.3242188 C30.1816406,15.5917969 30.1816406,14.4023437 29.4492188,13.6699219 L21.9492188,6.16992188 C21.2167969,5.4375 20.0273438,5.4375 19.2949219,6.16992188 C18.5625,6.90234375 18.5625,8.09179688 19.2949219,8.82421875 L23.5957031,13.125 L1.875,13.125 C0.837890625,13.125 0,13.9628906 0,15 C0,16.0371094 0.837890625,16.875 1.875,16.875 L23.5957031,16.875 L19.2949219,21.1757813 C18.5625,21.9082031 18.5625,23.0976562 19.2949219,23.8300781 C20.0273438,24.5625 21.2167969,24.5625 21.9492188,23.8300781 L29.4492188,16.3300781 L29.4492188,16.3242188 Z" id="Path"></path>
        </g>
    </g>
</svg>