<?xml version="1.0" encoding="UTF-8"?>
<svg id="Capa_1" data-name="Capa 1" xmlns="http://www.w3.org/2000/svg" viewBox="0 0 39 39">
  <defs>
    <style>
      .cls-1 {
        fill: #0099d4;
      }
    </style>
  </defs>
  <path class="cls-1" d="M26.2,20.1c2.2-1.9,3.4-4.6,3.4-7.5,0-5.6-4.5-10.1-10.1-10.1s-9.94,4.5-10.1,10.1c-.1,3.56,1.3,5.6,3.4,7.5-5.9,2.6-9.8,8.5-9.8,15,0,1.7,1.1,2.3,2.3,2.3s2.3-1,2.3-2.3c0-6.5,5.3-11.8,11.8-11.8s11.8,5.3,11.8,11.8c0,1.4,1.1,2.3,2.3,2.3s2.3-1,2.3-2.3c0-6.5-3.9-12.4-9.8-15,0,0,.2,0,.2,0ZM19.5,6.7c3.3,0,6,2.7,6,5.9s-2.7,5.9-6,5.9-6-2.7-6-5.9,2.7-5.9,6-5.9Z"/>
</svg>