<?xml version="1.0" encoding="UTF-8"?>
<svg width="30px" height="30px" viewBox="0 0 30 30" version="1.1" xmlns="http://www.w3.org/2000/svg" xmlns:xlink="http://www.w3.org/1999/xlink">
    <title>ig_icon</title>
    <defs>
        <path d="M0,0 L30,0 L30,30 L0,30 L0,0 Z" id="path-1"></path>
    </defs>
    <g id="ig_icon" stroke="none" fill="none" xlink:href="#path-1" fill-rule="nonzero">
        <path d="M15.1352539,8.39697266 C11.4086914,8.39697266 8.40283203,11.402832 8.40283203,15.1293945 C8.40283203,18.855957 11.4086914,21.8618164 15.1352539,21.8618164 C18.8618164,21.8618164 21.8676758,18.855957 21.8676758,15.1293945 C21.8676758,11.402832 18.8618164,8.39697266 15.1352539,8.39697266 Z M15.1352539,19.5063477 C12.7270508,19.5063477 10.7583008,17.543457 10.7583008,15.1293945 C10.7583008,12.715332 12.7211914,10.7524414 15.1352539,10.7524414 C17.5493164,10.7524414 19.512207,12.715332 19.512207,15.1293945 C19.512207,17.543457 17.543457,19.5063477 15.1352539,19.5063477 L15.1352539,19.5063477 Z M23.7133789,8.12158203 C23.7133789,8.99462891 23.0102539,9.69189453 22.1430664,9.69189453 C21.2700195,9.69189453 20.5727539,8.98876953 20.5727539,8.12158203 C20.5727539,7.25439453 21.2758789,6.55126953 22.1430664,6.55126953 C23.0102539,6.55126953 23.7133789,7.25439453 23.7133789,8.12158203 Z M28.1723633,9.71533203 C28.0727539,7.61181641 27.5922852,5.74853516 26.0512695,4.21337891 C24.5161133,2.67822266 22.652832,2.19775391 20.5493164,2.09228516 C18.3813477,1.96923828 11.8833008,1.96923828 9.71533203,2.09228516 C7.61767578,2.19189453 5.75439453,2.67236328 4.21337891,4.20751953 C2.67236328,5.74267578 2.19775391,7.60595703 2.09228516,9.70947266 C1.96923828,11.8774414 1.96923828,18.3754883 2.09228516,20.543457 C2.19189453,22.6469727 2.67236328,24.5102539 4.21337891,26.0454102 C5.75439453,27.5805664 7.61181641,28.0610352 9.71533203,28.1665039 C11.8833008,28.2895508 18.3813477,28.2895508 20.5493164,28.1665039 C22.652832,28.0668945 24.5161133,27.5864258 26.0512695,26.0454102 C27.5864258,24.5102539 28.0668945,22.6469727 28.1723633,20.543457 C28.2954102,18.3754883 28.2954102,11.8833008 28.1723633,9.71533203 Z M25.371582,22.8696289 C24.9145508,24.0180664 24.0297852,24.902832 22.8754883,25.3657227 C21.1469727,26.0512695 17.0454102,25.8930664 15.1352539,25.8930664 C13.2250977,25.8930664 9.11767578,26.0454102 7.39501953,25.3657227 C6.24658203,24.9086914 5.36181641,24.0239258 4.89892578,22.8696289 C4.21337891,21.1411133 4.37158203,17.0395508 4.37158203,15.1293945 C4.37158203,13.2192383 4.21923828,9.11181641 4.89892578,7.38916016 C5.35595703,6.24072266 6.24072266,5.35595703 7.39501953,4.89306641 C9.12353516,4.20751953 13.2250977,4.36572266 15.1352539,4.36572266 C17.0454102,4.36572266 21.152832,4.21337891 22.8754883,4.89306641 C24.0239258,5.35009766 24.9086914,6.23486328 25.371582,7.38916016 C26.0571289,9.11767578 25.8989258,13.2192383 25.8989258,15.1293945 C25.8989258,17.0395508 26.0571289,21.1469727 25.371582,22.8696289 Z" id="Shape" fill="#0099D4"></path>
    </g>
</svg>