<?xml version="1.0" encoding="UTF-8"?>
<svg id="Capa_2" data-name="Capa 2" xmlns="http://www.w3.org/2000/svg" viewBox="0 0 1197.01 401.1">
  <defs>
    <style>
      .cls-1 {
        fill: #231f20;
      }

      .cls-2 {
        fill: #0099d4;
      }
    </style>
  </defs>
  <g id="Layer_1" data-name="Layer 1">
    <g>
      <g>
        <g>
          <path class="cls-1" d="M55.1,181.53H0V33.76h55.1c46.45,0,78.53,31.88,78.53,73.68s-32.09,74.1-78.53,74.1ZM55.1,57.4h-29.13v100.49h29.13c31.03,0,51.3-20.9,51.3-50.04s-20.27-50.46-51.3-50.46Z"/>
          <path class="cls-1" d="M244.14,33.76v147.78h-25.97V33.76h25.97Z"/>
          <path class="cls-1" d="M401.72,181.53h-26.18V57.82h-46.87v-24.07h119.91v24.07h-46.87v123.71Z"/>
          <path class="cls-1" d="M627.91,181.53l-36.31-51.51h-32.51v51.51h-25.97V33.76h65.87c33.99,0,54.89,17.94,54.89,46.87,0,24.49-14.57,39.27-35.26,44.97l39.9,55.94h-30.61ZM596.88,57.4h-37.79v49.61h38c18.58,0,30.4-9.71,30.4-24.91,0-16.26-11.4-24.7-30.61-24.7Z"/>
          <path class="cls-2" d="M1085.36,33.76h25.55v147.78h-21.75l-81.49-105.13v105.13h-25.55V33.76h24.07l79.17,102.18V33.76Z"/>
          <g>
            <path class="cls-2" d="M833.31,0v101.04h-25.97V0h25.97Z"/>
            <path class="cls-2" d="M848.5,33.64v27.75c13.51,9.49,21.85,25.69,21.85,43.94,0,28.92-20.48,52.36-49.82,52.36s-50.24-23.86-50.24-52.78c0-16.53,6.73-31.21,17.94-40.79v-28.74c-27.54,12-45.17,39.02-45.17,69.95,0,41.8,31.67,76.21,77.06,76.21s77.48-34.83,77.48-76.63c0-32.5-19.22-60.41-49.09-71.27Z"/>
          </g>
        </g>
        <g>
          <path class="cls-1" d="M529.24,278.25h0c-1.39.08-2.61.63-3.65,1.67-2.08,2.18-4.48,4.45-7.16,6.77-2.7,2.33-5.75,4.75-9.07,7.19-3.3,2.42-6.46,4.39-9.42,5.87-2.92,1.46-5.73,2.45-8.37,2.95-2.26.44-3.96.05-5.22-1.2-2.13-1.96-3.05-5.2-2.73-9.65,2.95-1.88,5.81-3.78,8.58-5.71,2.97-2.07,6.27-4.59,9.82-7.5,3.63-2.98,6.52-6.04,8.6-9.1,2.21-3.26,3.15-6.29,2.78-9.03-.63-3.9-3.4-6.55-8.24-7.89-4.83-1.3-9.66.06-14.37,4.03-4.45,3.75-8.25,8.5-11.28,14.14-2.36,4.51-4.14,9.1-5.27,13.62-.58,2.33-.92,4.67-1.03,6.97-.66.37-1.23.85-1.62,1.47-1.62,2.14-3.15,3.39-4.68,3.51-.24-.8-.69-2.69-1.4-7.08-.42-2.76-.77-4.84-1.04-6.22-.28-1.43-.74-3.26-1.38-5.44-.67-2.29-1.34-4-2.04-5.23-.73-1.28-1.74-2.42-3.02-3.39-3.34-2.55-7.87-2.06-11.79,2.06-2.05,2.16-4.97,5.89-8.68,11.09-3.97,5.73-6.46,8.98-8.01,10.82-.04-2.62.09-6.95.56-14.08.63-7.61.85-13.53.63-17.6-.23-4.42-1.14-7.43-2.83-9.24-2.7-2.69-6.55-3.05-10.98.89-1.96,1.75-4.19,4.24-6.61,7.41-2.38,3.11-6.05,8.11-11.03,14.99-4.32,6.18-7.99,11.27-10.98,15.23,2.83-7.68,6.6-16.42,11.24-26.08.75-1.34.86-2.78.32-4.16-.51-1.3-1.39-2.29-2.62-2.94-1.29-.68-2.69-.76-4.06-.23-.28.11-.5.3-.76.45-.93.1-1.83.36-2.66.98-4.95,3.98-11.99,4.31-20.94.97-1.94-1.82-4.35-2.74-7.17-2.74-4.07,0-7.98,1.68-11.63,4.99-3.5,3.17-6.28,6.81-8.25,10.82-1.97,4-3.14,7.66-3.48,11.04,0,.18-.05.59-.15,1.24-.54,4.54-.51,8.45-.02,11.83-.39.3-.79.59-1.11,1.02-.85,1.13-2.09,2.3-3.7,3.47-1.49,1.08-2.94,1.67-4.31,1.76-1.41.1-2.72-.44-3.87-1.6-.39-.39-1.77-2.81-3.19-17.54l-.71-7.35c-.16-1.67-.48-3.76-.97-6.38-.5-2.65-1.02-4.64-1.59-6.06-.58-1.44-1.39-2.86-2.41-4.23-1.14-1.53-2.58-2.56-4.15-3.04-4.2-1.67-8.5.43-12.8,6.2-3.87,5.2-9.8,15.49-17.6,30.56-4.23,8.06-7.6,14.24-10.07,18.47.26-2.17.63-4.65,1.12-7.45,1.03-5.9,2.49-12.78,4.35-20.44,3.33-5.21,6.85-10.78,10.54-16.71,3.74-6,8.69-14.4,14.73-24.95,6.05-10.57,11.25-20.28,15.46-28.86,4.24-8.64,7.59-17.06,9.97-25.06,2.51-8.43,2.81-14.32.92-18-1.74-3.34-4.84-5.1-8.97-5.1-4.38,0-8.79,2.81-13.08,8.34-3.23,4.09-6.69,10.07-10.3,17.77-3.58,7.63-7.32,16.82-11.12,27.32-3.8,10.51-7.48,22.06-10.94,34.32-2.75,9.41-5.15,18.53-7.01,26.77-.32.63-.48,1.35-.44,1.77-5.27,22.49-7.08,36.18-5.53,41.85,1.14,4.37,3.92,5.61,6.25,5.9h.63c2.99,0,5.97-2.21,9.1-6.76,2.82-4.09,7.4-12.26,13.62-24.27,10.77-20.77,15.71-28.18,17.98-30.7.66,1.88,1.67,6.34,2.65,16.98.32,4.44.64,7.83.96,10.07.32,2.27.9,4.79,1.71,7.5.87,2.92,2.01,5.04,3.49,6.52,3.48,3.36,7.48,4.86,11.94,4.54,3.21-.23,6.29-1.33,9.14-3.27,1.43-.97,2.7-1.99,3.82-3.03,1.43,1.43,3.16,2.51,5.21,3.21,1.33.48,2.73.73,4.17.73,2.5,0,4.91-.72,7.13-2.12,3.72-2.25,6.87-5.98,9.37-11.08,2.43-4.97,3.89-9.12,4.33-12.34.7-5.55.94-10.16.69-13.74,3.94.72,7.61.78,11.01.26-2.01,4.52-4.46,10.83-7.29,18.77-2.95,8.3-4.21,14.11-3.87,17.72.15,1.73.93,3.11,2.27,4.01.89.59,1.87.89,2.91.89.66,0,1.32-.16,1.76-.39,2.16-.72,4.67-2.58,7.66-5.69,2.82-2.93,5.65-6.27,8.42-9.94,2.8-3.73,6.64-9.03,11.41-15.77,5.46-7.73,9.62-13.38,12.44-16.88-.03,3.2-.22,7.71-.55,13.47-.74,7.87-.93,13.87-.55,17.84.42,4.48,1.79,7.31,4.31,8.71,1.09.48,2.14.79,3.12.91,1.08.14,2.2,0,3.32-.39.97-.34,1.89-.74,2.74-1.2.95-.5,1.96-1.33,3.08-2.51,1.01-1.06,1.84-1.94,2.47-2.62.66-.71,1.56-1.83,2.71-3.37,1.12-1.5,1.98-2.67,2.56-3.53l2.59-3.77c3.39-4.73,5.38-7.37,6.54-8.83.59,1.79,1.43,5.16,2.52,11.49.65,4.01,1.2,6.8,1.7,8.55.56,2.01,1.37,3.44,2.42,4.36,2.65,2.42,5.59,3.48,8.76,3.09,1.57-.12,3.15-.57,4.68-1.34.98-.49,1.84-1.08,2.65-1.71,1,2.09,2.32,3.95,4.03,5.53,3.02,2.55,6.68,3.84,10.88,3.84s8.59-1.17,13.47-3.47c4.78-2.25,9.41-5.17,13.75-8.65,4.25-3.41,7.57-6.2,9.87-8.28,2.3-2.09,4.28-4.01,5.9-5.75.88-1.02,1.33-2.24,1.33-3.62s-.54-2.68-1.56-3.71c-1.05-1.05-2.44-1.61-3.78-1.48ZM488.94,275.45c2.07-3.77,4.37-6.87,6.83-9.24,2.38-2.28,4.43-3.44,6.11-3.44.15,0,.3.02.67.13,0,0,.02,0,.02,0-.56.93-1.84,2.56-4.75,5.23-2.54,2.33-5.52,4.78-8.9,7.31ZM360.62,267.46c.58.32,1.18.61,1.8.85.72,1.92,1.18,6.25-.08,15.95v.06c-.1,1.02-.52,2.53-1.26,4.5-.75,2-1.88,4.2-3.34,6.51-1.41,2.24-2.79,3.85-3.93,4.68-.97.52-1.8.65-2.55.38-.56-.2-2.27-.79-2.85-4.84-.45-3.13-.37-6.28.25-9.66,0-.83.07-1.08.08-1.09l.08-.4c.19-3.07,1.7-6.63,4.46-10.59,2.5-3.57,4.96-5.71,7.32-6.36ZM315.02,180.27c3.16-4.21,4.45-4.42,4.37-4.45.12.02.22.04.29.06.46,1.48.4,5.31-3.32,15.17-3.29,8.71-8.13,19.04-14.38,30.72-4.69,8.75-9.97,18.06-15.76,27.78,3.94-13.3,8.18-25.84,12.65-37.39,5.66-14.64,11.08-25.36,16.14-31.86l.02-.02Z"/>
          <path class="cls-1" d="M730.46,272.56c14.31-19.99,26.71-40.26,36.87-60.27,10.46-20.58,14.55-33.93,12.52-40.83-.76-2.55-2.33-4.37-4.73-5.43-4.13-1.58-8.7-.32-13.57,3.74-8.15,6.87-16.97,21.21-26.19,42.63-9.12,21.18-14.88,41.13-17.14,59.3-20.81,28.59-27.11,29.65-28.72,29.03-1.56-1.76-1.55-4.75.04-8.91,1.91-4.94,5.1-9.68,9.46-14.09,5.72-5.79,7.99-6.41,8.7-6.41,1.47,0,2.75-.53,3.79-1.56,1.02-1.02,1.56-2.3,1.56-3.71s-.54-2.68-1.56-3.71c-1.04-1.03-2.31-1.56-3.78-1.56-4.7,0-9.87,2.97-15.81,9.09-5.7,5.87-9.81,11.97-12.2,18.16-1.99,5.25-2.42,9.8-1.36,13.64-.75.58-1.55,1.12-2.45,1.57-.93.46-1.35.48-1.37.54-.29-.39-1.36-2.57-2.4-13.92-.32-3.32-.62-5.78-.89-7.38-.27-1.62-.67-3.5-1.21-5.65-.61-2.43-1.5-4.17-2.73-5.33-1.23-1.17-2.76-1.89-4.56-2.15-3.48-.5-7.19,1.13-11.39,4.98-3.6,3.3-8.64,8.84-15.03,16.52,2.28-10.47,4.84-21.13,7.63-31.79.29-1.34.08-2.64-.65-3.89-.75-1.26-1.89-2.09-3.31-2.39-1.42-.29-2.72-.07-3.91.68-1.15.73-1.96,1.75-2.42,3.15-2.52,10.05-4.63,18.72-6.32,26-.11.11-.25.17-.36.3-1.03,1.34-2.28,2.81-3.72,4.41-1.43,1.58-3.22,3.35-5.34,5.26-2.07,1.87-4.09,3.41-6.01,4.57-1.88,1.14-3.84,2.01-5.81,2.61-1.64.49-2.95.35-3.87-.29-.43-.4-1.36-1.89-.55-6.99.66-4.19,2.15-9.3,4.38-15.07,1.79-3.79,3.45-7.59,4.89-11.2.63-1.25.64-2.64.03-4.01-.58-1.3-1.5-2.25-2.74-2.83-1.29-.6-2.65-.63-3.94-.11-.57.24-1.09.54-1.54.92-.86-1.01-1.8-1.84-2.82-2.48-2.82-1.71-5.97-2.03-9.29-.96-3.68,1.03-7.64,3.81-12.09,8.49-4.29,4.5-8.01,9.72-11.07,15.52-3.11,5.9-4.64,11.1-4.53,15.45.12,6.44,3.24,10.72,9.06,12.38,6.19,1.65,12.68-1.12,19.31-8.23.73,3.6,2.5,6.24,5.26,7.9,2.34,1.4,4.95,2.12,7.76,2.12s5.66-.68,8.69-2.03c2.94-1.31,5.6-2.86,7.9-4.61.77-.59,1.55-1.25,2.32-1.91-.43,2.4-.72,4.34-.86,5.77-.15,1.91.62,3.53,2.22,4.7,1.61,1.18,3.42,1.37,5.19.55,1.46-.67,3.12-1.99,5.07-4.06,1.81-1.92,4.6-5.2,8.29-9.72,10.31-12.54,14.97-16.97,17.06-18.51.36,1.52.85,4.49,1.37,10.26.42,3.91.77,6.88,1.03,8.88.28,2.11.89,4.44,1.83,6.91,1.01,2.68,2.42,4.61,4.11,5.7,1.74,1.24,3.69,1.87,5.8,1.87,3.51,0,6.98-1.45,10.36-4.17,4.44,2.33,9.45,1.65,14.93-2.11,5-3.43,11.01-9.43,17.87-17.88.17,2.56.51,4.95,1,7.12,2.12,9.94,7.12,16.08,14.87,18.25,2.12.56,4.28.84,6.41.84,3.14,0,6.31-.65,9.45-1.94,3.05-1.26,5.66-2.67,7.76-4.22,2.07-1.53,4.11-3.34,6.05-5.4,1.96-2.07,3.24-3.51,3.91-4.4.66-.87,1.2-1.63,1.58-2.21.9-1.19,1.21-2.58.91-4.03-.3-1.4-1.09-2.53-2.28-3.28-1.16-.73-2.45-.98-3.83-.77-1.41.23-2.56.93-3.45,2.1l-.22.4c-.07.08-.14.18-.22.28-.22.27-.65.84-1.3,1.7-.59.8-1.19,1.52-1.8,2.17-.61.67-1.43,1.48-2.45,2.45-.99.94-1.97,1.74-2.89,2.38-.97.67-2.13,1.38-3.46,2.15-1.24.72-2.44,1.22-3.55,1.5-1.19.3-2.52.52-3.97.67-1.3.13-2.48-.02-3.78-.51-3.76-1.01-6.24-4.41-7.58-10.37-1.1-5.1-1.26-11.55-.49-19.18.53-.73,1.29-1.78,2.29-3.14ZM768.29,177.84l.03-.02c.68-.59,1.23-.99,1.67-1.27-.24,3.22-2.25,10.52-10.1,27.1-6.66,14.05-15.64,29.64-26.74,46.4,3.58-13.3,8.51-26.77,14.69-40.18,7.46-16.15,14.34-26.93,20.45-32.02ZM596.87,272c-.17.39-.32.75-.44,1.07-3.94,7.75-8.04,14.26-12.19,19.34-3.77,4.6-7.02,6.69-9.32,6.06-.75-.23-1.44-.67-1.44-2.35-.1-4.38,2.38-10.18,7.38-17.25,4.99-7.05,9.31-11.16,12.78-12.19.2-.05.36-.08.49-.08.11,0,.19.02.25.07.83.49,1.45,1.75,1.84,3.89.17.5.39.98.66,1.43Z"/>
          <path class="cls-1" d="M860.93,237.02c-.55.22-1.06.44-1.56.66-.29.13-.44.17-.42.18l-.6.13c-1.27.57-2.24,1.47-2.88,2.67-.69,1.32-.74,2.74-.19,3.95.73,2.33,2.49,3.62,4.96,3.62.63,0,1.21-.14,1.72-.42,1.03-.3,3.1-1.08,6.29-2.38l1.44-.59-4.04-9.86-3.29,1.43c-.46.21-.94.41-1.45.61Z"/>
          <path class="cls-1" d="M965.2,248.23c.63,0,1.21-.14,1.72-.42,1.03-.3,3.1-1.08,6.29-2.38l1.44-.59-4.04-9.86-3.29,1.43c-.46.21-.94.41-1.45.61-.55.22-1.06.44-1.56.66-.29.13-.44.17-.42.18l-.6.13c-1.27.57-2.24,1.47-2.88,2.67-.69,1.32-.74,2.74-.19,3.95.73,2.33,2.49,3.62,4.96,3.62Z"/>
          <path class="cls-1" d="M1130.02,284.79l-.05-.19c-.44-1.32-1.33-2.36-2.57-3.02-1.22-.65-2.51-.83-3.92-.51-5.05,1.47-10.03,3.16-14.84,5.02.4-12.8-.75-25.83-3.44-38.79-.44-2.07-1.8-3.44-3.92-3.95-2.13-.51-3.95.08-5.29,1.73-.58.72-1.69,2.24-3.37,4.62-.12-.28-.26-.55-.42-.82-2.01-3.32-5.01-5.42-8.9-6.24-4.29-.93-8.75.1-13.23,3.09-2.94,2.04-6.39,6.21-10.55,12.77-4.04,6.37-7.59,13.37-10.56,20.81-3.07,7.69-4.35,13.51-3.9,17.8.14,1.48.54,2.73,1.08,3.86-.03.02-.07.03-.09.06-.95.85-2.05,1.6-3.29,2.22-.93.46-1.35.48-1.37.54-.29-.39-1.36-2.57-2.4-13.92-.32-3.32-.62-5.78-.89-7.38-.27-1.62-.67-3.5-1.21-5.65-.61-2.43-1.5-4.17-2.73-5.33-1.23-1.17-2.76-1.89-4.56-2.15-3.47-.5-7.19,1.13-11.39,4.98-3.6,3.3-8.64,8.84-15.03,16.52,2.28-10.47,4.84-21.13,7.63-31.79.29-1.34.08-2.64-.65-3.89-.75-1.26-1.89-2.09-3.31-2.39-1.42-.29-2.72-.07-3.91.68-1.15.73-1.96,1.75-2.42,3.15-1.56,6.22-2.96,11.88-4.2,17.04-.04.05-.1.08-.14.13-5.7,7.88-12.05,14.83-18.88,20.68-6.04,5.17-10.72,7.26-13.55,6.07-.24-.52-.59-1.84-.48-5.08.1-3.14.86-7.69,2.25-13.52.1-.41.23-.83.33-1.24.35-.67.57-1.4.59-2.19,1.26-4.79,2.72-9.66,4.51-14.61.27-.96.34-1.86.19-2.68-.15-.83-.52-1.62-1.11-2.35-.61-.76-1.38-1.3-2.3-1.61-1.31-.43-2.66-.36-3.92.23-1.27.59-2.18,1.62-2.62,2.92-1.48,4.04-2.83,8.11-3.98,12.12-.27.93-.54,1.91-.8,2.91-.28.19-.59.37-.95.53-.39.18-.88.32-1.45.45-.61.14-1.24.23-1.9.28-.59.05-1.28-.02-2.08-.2-.86-.19-1.79-.49-2.78-.88-2.21-.85-3.8-3.4-4.73-7.58-1.02-4.59-1.49-8.83-1.39-12.54.15-2.64-1.21-4.49-3.82-5.22-2.6-.72-4.74.16-6.05,2.5-6.26,11.58-12.71,21.86-19.17,30.56-6.43,8.65-9.55,11.37-10.94,12.2-.64-2.3-.9-6.68.44-14.98,1.35-8.37,3.57-17.31,6.58-26.55.44-1.33.37-2.65-.23-3.92-.6-1.28-1.67-2.19-3.07-2.64-1.41-.45-2.76-.32-4.04.34-1.26.66-2.12,1.68-2.57,3.02-.96,2.87-1.94,6.11-2.95,9.72-.89,3.18-1.88,7.23-2.99,12.23-.39.31-.79.6-1.12,1.04-5.7,7.88-12.05,14.83-18.88,20.68-6.05,5.17-10.73,7.26-13.55,6.07-.24-.52-.59-1.84-.48-5.08.1-3.14.86-7.69,2.25-13.52,1.4-5.87,3.22-11.91,5.44-18.04.27-.96.34-1.86.19-2.68-.16-.83-.53-1.62-1.11-2.35-.61-.76-1.38-1.3-2.3-1.61-1.31-.43-2.67-.36-3.92.23-1.27.59-2.18,1.62-2.62,2.92-1.48,4.04-2.82,8.11-3.98,12.12-1.15,3.97-2.28,8.63-3.35,13.88-1.08,5.32-1.33,10.07-.73,14.14.21,1.38.56,2.58.98,3.7-.58.82-1.78,2.2-3.57,4.1-1.76,1.86-3.64,3.53-5.57,4.96-1.85,1.36-4.19,2.48-6.96,3.32-2.7.82-5.43.98-8.1.52-9.91-1.95-15.38-10.7-16.71-26.74.17-.19.34-.39.49-.61,2.64-4.12,5.62-8.87,8.95-14.25,3.3-5.34,8.23-13.76,14.65-25.02,6.42-11.27,11.99-21.77,16.57-31.23,4.6-9.51,8.4-19.16,11.31-28.68,3.02-9.89,3.72-17.07,2.12-21.99-1.32-3.84-3.84-6.4-7.27-7.53-.43-.21-.86-.31-1.07-.29-4.56-.7-9.31,1.04-14.13,5.18-4.58,3.94-8.97,9.41-13.05,16.27-4.03,6.78-7.89,14.56-11.48,23.11-3.59,8.55-6.75,17.46-9.38,26.48-2.65,9.05-4.68,17.76-6.05,25.86-3.4,19.77-3.17,35.89.69,47.93,3.96,12.38,11.49,19.73,22.38,21.84,1.77.33,3.57.5,5.34.5,3.56,0,7.11-.73,10.56-2.18,3.37-1.42,6.23-3.03,8.5-4.79,2.22-1.73,4.36-3.74,6.36-5.96,1.6-1.77,2.76-3.13,3.54-4.17.97.19,1.95.33,2.97.33,3.74,0,7.89-1.32,12.33-3.93,4.31-2.53,8.47-5.87,12.35-9.91,1.94-2.02,3.67-3.87,5.19-5.56.14,4.89,1.06,8.52,2.87,11.02,1.77,2.41,4.17,3.63,7.1,3.63h.59c7.54-.55,18.01-11.95,31.98-34.81,2.05,7.12,5.67,11.76,10.79,13.83,2.49,1.01,4.97,1.58,7.39,1.69,1.08.05,2.03.02,2.93-.04-.96,5.02-1.18,9.54-.6,13.42.65,4.36,2.36,7.39,5.19,9.06,2.11,1.05,4.42,1.59,6.86,1.59,3.74,0,7.89-1.32,12.32-3.93,4.31-2.53,8.47-5.87,12.35-9.91.49-.52.94-.99,1.41-1.48-1.1,5.36-1.78,9.28-2.02,11.75-.15,1.91.62,3.53,2.22,4.7,1.61,1.18,3.42,1.37,5.19.55,1.46-.67,3.12-1.99,5.07-4.06,1.81-1.92,4.6-5.2,8.29-9.72,10.31-12.54,14.97-16.97,17.06-18.51.36,1.52.85,4.49,1.37,10.26.43,3.91.77,6.88,1.03,8.88.28,2.11.89,4.44,1.83,6.91,1.01,2.68,2.42,4.61,4.11,5.7,1.74,1.24,3.69,1.87,5.8,1.87,4.08,0,8.11-1.84,12.01-5.52.79-.79,1.18-1.73,1.38-2.75,4.39-.22,9.39-3.23,15.15-9.12,6.83-6.98,15.93-18.65,27.01-34.66.98,9.29,1.1,19.05.36,29.08-9.23,4.37-17.9,9.59-25.78,15.51-8.11,6.1-15.05,12.39-20.62,18.71-5.56,6.3-10.48,12.92-14.63,19.66-4.14,6.75-7.33,13.21-9.46,19.18-2.14,5.99-3.55,11.68-4.19,16.93-1.15,9.32.3,14.95,4.24,17.07,2.48,1.89,5.56,2.85,9.16,2.85,5.43,0,11.67-2.21,18.54-6.57,5.56-3.53,11.2-8.35,16.75-14.32,5.52-5.95,10.93-13.07,16.06-21.17,5.15-8.12,9.64-17.7,13.36-28.46,3.61-10.48,6.05-21.48,7.25-32.71,5.97-2.55,12.22-4.8,18.45-6.66.79-.15,1.47-.48,2.06-.98.52-.45.94-.98,1.24-1.59.29-.59.48-1.22.55-1.86.07-.63.04-1.3-.1-1.98ZM1095.69,303.68c-.89,5.62-2.05,11.18-3.47,16.59-1.66,6.33-3.85,12.77-6.49,19.16-2.64,6.36-5.73,12.37-9.21,17.86-3.46,5.47-7.59,10.74-12.3,15.64-4.69,4.9-9.89,9.21-15.44,12.8-3.73,2.32-7.13,3.84-10.11,4.54-2.66.63-4.61.46-5.61-.32,0,0-.15-.24-.23-1.03-.1-.9-.15-2.08-.15-3.54s.23-3.38.68-5.8c.46-2.44,1.11-5.1,1.93-7.88,2.58-8.16,6.46-16.34,11.53-24.3,5.06-7.97,12.16-16.13,21.08-24.27,8.2-7.49,17.54-14.03,27.79-19.48ZM1060.08,291.95c-1.18,1.13-2.24,2-3.15,2.57-.92.58-1.45.84-1.73.95-.07-1.2.24-3.92,2.44-9.93,2.33-6.36,5.4-12.82,9.13-19.19,3.66-6.25,6.75-10.26,9.15-11.89,1.78-1.16,3.33-1.74,4.53-1.74.2,0,.39.02.56.05.94.24,1.76.79,2.38,1.53.73,1.18,1.78,1.96,3.12,2.33.38.11.75.17,1.13.18-2.94,4.18-5.7,8.06-8.29,11.64-3.17,4.38-5.92,8.06-8.18,10.94-2.3,2.93-4.43,5.49-6.33,7.59-1.96,2.18-3.51,3.8-4.75,4.98ZM847.34,196.31c-4.85,12.32-10.97,25.29-18.18,38.56-6.26,11.51-13.11,23.3-20.44,35.12.37-3.48.87-7.07,1.51-10.72h0c1.77-10.52,4.54-21.39,8.24-32.34,3.7-10.94,7.63-20.61,11.69-28.73,4.04-8.08,8.19-14.8,12.31-19.96,4.48-5.6,7.4-7.11,9.39-7.3.24.23.43.55.57.96.93,2.86.8,9.42-5.1,24.4Z"/>
        </g>
      </g>
      <path class="cls-2" d="M1159.62,52.79c0-2.58.49-4.99,1.48-7.26.98-2.26,2.32-4.24,4.01-5.93,1.69-1.69,3.68-3.03,5.93-4.03,2.26-.98,4.69-1.48,7.27-1.48s4.99.5,7.26,1.48c2.26.99,4.24,2.33,5.93,4.03,1.69,1.69,3.03,3.66,4.03,5.93.98,2.26,1.48,4.68,1.48,7.26s-.5,5.01-1.48,7.27c-.99,2.26-2.33,4.24-4.03,5.93-1.69,1.69-3.66,3.03-5.93,4.01-2.26.99-4.68,1.49-7.26,1.49s-5.01-.5-7.27-1.49c-2.25-.98-4.24-2.32-5.93-4.01-1.69-1.69-3.03-3.66-4.01-5.93-.99-2.26-1.48-4.68-1.48-7.27ZM1162.32,52.79c0,2.22.42,4.29,1.26,6.23.84,1.95,1.97,3.64,3.42,5.08,1.44,1.45,3.13,2.59,5.08,3.42,1.94.84,4.01,1.26,6.23,1.26s4.28-.42,6.23-1.26c1.94-.83,3.63-1.97,5.08-3.42s2.58-3.13,3.42-5.08c.83-1.94,1.25-4.01,1.25-6.23s-.42-4.28-1.25-6.23c-.84-1.94-1.98-3.63-3.42-5.08-1.45-1.44-3.14-2.58-5.08-3.41-1.95-.84-4.03-1.26-6.23-1.26s-4.29.42-6.23,1.26c-1.95.83-3.64,1.97-5.08,3.41-1.45,1.45-2.58,3.14-3.42,5.08-.84,1.95-1.26,4.03-1.26,6.23ZM1174.24,63.5h-2.72v-21.57h8.3c2.44,0,4.19.51,5.23,1.54,1.04,1.02,1.55,2.5,1.55,4.45,0,1-.14,1.86-.42,2.56-.29.71-.68,1.31-1.19,1.79-.5.49-1.07.87-1.73,1.15-.65.29-1.35.5-2.09.63l6.43,9.45h-3.06l-6.44-9.45h-3.86v9.45ZM1174.24,51.63h3.47c.74,0,1.47-.02,2.21-.07.75-.05,1.4-.2,2-.45.58-.25,1.06-.62,1.42-1.11.37-.48.56-1.18.56-2.08,0-.71-.15-1.28-.43-1.74-.28-.46-.65-.81-1.11-1.07-.44-.27-.97-.47-1.55-.58-.58-.12-1.17-.17-1.74-.17h-4.82v7.28Z"/>
    </g>
  </g>
</svg>