<?xml version="1.0" encoding="UTF-8"?>
<svg width="535px" height="131px" viewBox="0 0 535 131" version="1.1" xmlns="http://www.w3.org/2000/svg" xmlns:xlink="http://www.w3.org/1999/xlink">
    <title>Layer_1</title>
    <g id="Page-1" stroke="none" stroke-width="1" fill="none" fill-rule="evenodd">
        <g id="ACERCA-DE" transform="translate(-142, -245)">
            <g id="Group" transform="translate(134, 245)">
                <g transform="translate(0, 0.9203)" fill-rule="nonzero" id="Layer_1">
                    <g transform="translate(8.8515, -0)">
                        <g id="Group">
                            <path d="M26.4044234,86.5766924 L0,86.5766924 L0,16.0274207 L26.4044234,16.0274207 C48.7688257,16.0274207 64.2074776,31.1962296 64.2074776,51.0874036 C64.2074776,70.9785775 48.7688257,86.5766924 26.4044234,86.5766924 Z M26.4044234,27.3324764 L12.4086361,27.3324764 L12.4086361,75.2716367 L26.4044234,75.2716367 C41.2659294,75.2716367 51.2216956,65.2544987 51.2216956,51.5167095 C51.2216956,37.7789203 41.5545024,27.4755784 26.4044234,27.4755784 L26.4044234,27.4755784 L26.4044234,27.3324764 Z" id="Shape" fill="#231F20"></path>
                            <polygon id="Path" fill="#231F20" points="117.304897 16.0274207 117.304897 86.5766924 104.896261 86.5766924 104.896261 16.0274207"></polygon>
                            <polygon id="Path" fill="#231F20" points="193.199579 86.5766924 180.50237 86.5766924 180.50237 27.4755784 157.993681 27.4755784 157.993681 16.0274207 215.708268 16.0274207 215.708268 27.4755784 193.199579 27.4755784"></polygon>
                            <path d="M301.991575,86.5766924 L284.532912,61.9631534 L268.949974,61.9631534 L268.949974,86.5766924 L256.541338,86.5766924 L256.541338,16.0274207 L288.140074,16.0274207 C304.444444,16.0274207 314.544497,24.470437 314.544497,38.3513282 C314.544497,52.2322194 307.47446,57.2407883 297.662981,59.8166238 L316.853081,86.5766924 L302.135861,86.5766924 L301.991575,86.5766924 Z M286.985782,27.3324764 L268.805687,27.3324764 L268.805687,50.9443016 L286.985782,50.9443016 C295.931543,50.9443016 301.703002,46.3650386 301.703002,39.066838 C301.703002,31.7686375 296.364402,27.1893745 286.985782,27.1893745 L286.985782,27.3324764 Z" id="Shape" fill="#231F20"></path>
                            <polygon id="Path" fill="#0099D4" points="521.88415 16.0274207 534.148499 16.0274207 534.148499 86.5766924 523.759874 86.5766924 484.513955 36.3479006 484.513955 86.5766924 472.249605 86.5766924 472.249605 16.0274207 483.792522 16.0274207 521.88415 64.6820908"></polygon>
                            <g transform="translate(356.9647, 0)" fill="#0099D4" id="Path">
                                <polygon points="43.8630858 0 43.8630858 48.2253642 31.4544497 48.2253642 31.4544497 0"></polygon>
                                <path d="M51.0774092,16.0274207 L51.0774092,29.335904 C57.5703002,33.9151671 61.4660348,41.4995716 61.4660348,50.3718937 C61.4660348,64.2527849 51.654555,75.2716367 37.5144813,75.2716367 C23.3744076,75.2716367 13.2743549,63.823479 13.2743549,50.2287918 C13.2743549,36.6341045 16.4486572,35.3461868 21.7872565,30.9100257 L21.7872565,17.3153385 C8.51290153,23.0394173 0,35.9185947 0,50.6580977 C0,65.3976007 15.2943655,87.0059983 37.0816219,87.0059983 C58.8688784,87.0059983 74.3075303,70.4061697 74.3075303,50.5149957 C74.3075303,30.6238218 65.0731964,21.7514996 50.6445498,16.5998286 L51.0774092,16.1705227 L51.0774092,16.0274207 Z"></path>
                            </g>
                        </g>
                        <g id="Group" opacity="0.6" transform="translate(360.7162, 93.4456)" fill="#000000">
                            <polygon id="Path" points="26.6929963 36.2047986 26.6929963 15.8843188 26.6929963 15.8843188 18.9015271 36.2047986 13.4186414 36.2047986 5.77145866 16.4567266 5.77145866 16.4567266 5.77145866 36.2047986 0 36.2047986 0 9.30162811 9.09004739 9.30162811 16.3043707 28.0479863 16.3043707 28.0479863 23.518694 9.30162811 32.7530279 9.30162811 32.7530279 36.2047986"></polygon>
                            <path d="M58.7245919,25.3290488 L47.4702475,25.3290488 L47.4702475,30.9100257 L61.7546077,30.9100257 L61.7546077,36.2047986 L41.4102159,36.2047986 L41.4102159,9.30162811 L61.7546077,9.30162811 L61.7546077,14.596401 L47.4702475,14.596401 L47.4702475,20.1773779 L58.7245919,20.1773779 L58.7245919,25.1859469 L58.7245919,25.3290488 Z M53.3859926,0 L59.0131648,0 L53.6745656,6.8688946 L48.7688257,6.8688946 L53.2417062,0 L53.3859926,0 Z" id="Shape"></path>
                            <polygon id="Path" points="67.5260664 36.2047986 77.1932596 22.4670094 67.9589258 9.30162811 75.3175355 9.30162811 81.3775671 18.4601542 87.4375987 9.30162811 94.5076356 9.30162811 85.2733017 22.4670094 94.940495 36.2047986 87.5818852 36.2047986 81.0889942 26.3307626 74.5961032 36.2047986"></polygon>
                            <polygon id="Path" points="101.721959 9.30162811 107.781991 9.30162811 107.781991 36.2047986 101.721959 36.2047986"></polygon>
                            <path d="M137.649289,11.0188518 L137.649289,17.6015424 L137.360716,17.6015424 C135.629279,15.4550129 132.887836,14.3101971 129.569247,14.3101971 C124.374934,14.3101971 120.912059,17.7446444 120.912059,22.7532134 C120.912059,27.7617823 124.374934,31.1962296 129.569247,31.1962296 C134.76356,31.1962296 135.629279,30.0514139 137.360716,27.9048843 L137.649289,27.9048843 L137.649289,34.487575 C135.484992,35.9185947 133.032122,36.6341045 129.280674,36.6341045 C120.623486,36.6341045 114.707741,30.9100257 114.707741,22.7532134 C114.707741,14.596401 120.4792,8.87232219 129.280674,8.87232219 C138.082148,8.87232219 135.484992,9.58783205 137.649289,11.0188518 Z" id="Path"></path>
                            <path d="M172.278041,22.7532134 C172.278041,30.9100257 166.362296,36.6341045 157.993681,36.6341045 C149.625066,36.6341045 143.709321,30.9100257 143.709321,22.7532134 C143.709321,14.596401 149.625066,8.87232219 157.993681,8.87232219 C166.362296,8.87232219 172.278041,14.596401 172.278041,22.7532134 Z M149.913639,22.7532134 C149.913639,27.7617823 153.232227,31.1962296 157.993681,31.1962296 C162.755134,31.1962296 166.073723,27.7617823 166.073723,22.7532134 C166.073723,17.7446444 162.755134,14.3101971 157.993681,14.3101971 C153.232227,14.3101971 149.913639,17.7446444 149.913639,22.7532134 Z" id="Shape"></path>
                        </g>
                    </g>
                </g>
            </g>
        </g>
    </g>
</svg>