<?xml version="1.0" encoding="UTF-8"?>
<svg width="20px" height="20px" viewBox="0 0 20 20" version="1.1" xmlns="http://www.w3.org/2000/svg" xmlns:xlink="http://www.w3.org/1999/xlink">
    <title>mail_icon</title>
    <defs>
        <path d="M0,0 L20,0 L20,20 L0,20 L0,0 Z" id="path-1"></path>
    </defs>
    <g id="mail_icon" stroke="none" fill="none" xlink:href="#path-1" fill-rule="evenodd" stroke-width="1">
        <g id="Outline" transform="translate(9.8875, 10.1469) scale(-1, 1) translate(-9.8875, -10.1469)translate(1, 2)" fill="#0099D4">
            <path d="M14.071875,0 L3.703125,0 C1.65896064,0.00244859241 0.00244859241,1.65896064 -4.31685937e-16,3.703125 L-4.31685937e-16,12.590625 C0.00244859241,14.6347894 1.65896064,16.2913014 3.703125,16.29375 L14.071875,16.29375 C16.1160394,16.2913014 17.7725514,14.6347894 17.775,12.590625 L17.775,3.703125 C17.7725514,1.65896064 16.1160394,0.00244859241 14.071875,0 L14.071875,0 Z M3.703125,1.48125 L14.071875,1.48125 C14.9791571,1.4830346 15.794212,2.03627509 16.1308125,2.87880937 L10.4591062,8.55125625 C9.59011389,9.41676877 8.18488611,9.41676877 7.31589375,8.55125625 L1.6441875,2.87880937 C1.98078805,2.03627509 2.79584292,1.4830346 3.703125,1.48125 Z M14.071875,14.8125 L3.703125,14.8125 C2.47601732,14.8125 1.48125,13.8177327 1.48125,12.590625 L1.48125,4.8140625 L6.26865,9.5985 C7.71607196,11.0422629 10.058928,11.0422629 11.50635,9.5985 L16.29375,4.8140625 L16.29375,12.590625 C16.29375,13.8177327 15.2989827,14.8125 14.071875,14.8125 Z" id="Shape" fill-rule="nonzero"></path>
        </g>
    </g>
</svg>