<?xml version="1.0" encoding="UTF-8"?>
<svg width="40px" height="30px" viewBox="0 0 40 30" version="1.1" xmlns="http://www.w3.org/2000/svg" xmlns:xlink="http://www.w3.org/1999/xlink">
    <title>mastercard copia 2</title>
    <g id="Page-1" stroke="none" stroke-width="1" fill="none" fill-rule="evenodd">
        <g id="mastercard-copia-2" fill="#FFFFFF">
            <path d="M19.8214286,2.5862069 C19.611678,2.68965517 19.5068027,2.79310345 19.4019274,3 C16.7800454,5.17241379 15.2069161,8.37931034 15.2069161,12 C15.2069161,15.6206897 16.8849206,18.8275862 19.4019274,21 C19.5068027,21.1034483 19.7165533,21.2068966 19.8214286,21.4137931 C20.0311791,21.3103448 20.1360544,21.2068966 20.2409297,21 C22.8628118,18.8275862 24.435941,15.6206897 24.435941,12 C24.435941,8.37931034 22.7579365,5.17241379 20.2409297,3 C20.1360544,2.89655172 19.9263039,2.79310345 19.8214286,2.5862069 L19.8214286,2.5862069 Z M27.372449,0 C24.8554422,0 22.5481859,0.724137931 20.5555556,1.96551724 C20.5555556,1.96551724 20.7653061,2.17241379 20.8701814,2.17241379 C23.8066893,4.65517241 25.3798186,8.17241379 25.3798186,11.8965517 C25.3798186,15.6206897 23.7018141,19.137931 20.8701814,21.6206897 C20.8701814,21.6206897 20.6604308,21.8275862 20.5555556,21.8275862 C22.5481859,23.0689655 24.8554422,23.7931034 27.372449,23.7931034 C34.1893424,23.7931034 39.6428571,18.4137931 39.6428571,11.8965517 C39.6428571,5.37931034 34.1893424,0 27.372449,0 L27.372449,0 Z M18.7726757,21.6206897 C18.7726757,21.6206897 18.9824263,21.8275862 19.0873016,21.8275862 C17.0946712,23.0689655 14.787415,23.7931034 12.2704082,23.7931034 C5.45351474,23.7931034 0,18.5172414 0,11.8965517 C0,5.27586207 5.45351474,0 12.2704082,0 C19.0873016,0 17.0946712,0.724137931 19.0873016,1.96551724 C19.0873016,1.96551724 18.877551,2.17241379 18.7726757,2.17241379 C15.8361678,4.65517241 14.2630385,8.17241379 14.2630385,11.8965517 C14.2630385,15.6206897 15.9410431,19.137931 18.7726757,21.6206897 L18.7726757,21.6206897 Z M39.3282313,19.3448276 L39.3282313,18.9310345 L39.223356,18.9310345 L39.223356,19.2413793 C39.1184807,19.2413793 38.9087302,18.9310345 38.9087302,18.9310345 L38.8038549,18.9310345 L38.8038549,19.3448276 L38.8038549,19.3448276 L38.8038549,19.0344828 L38.8038549,19.3448276 L39.0136054,19.3448276 L39.0136054,19.0344828 C39.1184807,19.0344828 39.1184807,19.3448276 39.1184807,19.3448276 L39.1184807,19.3448276 L39.3282313,19.3448276 Z M38.489229,19.3448276 L38.489229,18.9310345 L38.6989796,18.9310345 C38.6989796,18.9310345 38.2794785,18.9310345 38.2794785,18.9310345 L38.2794785,18.9310345 C38.2794785,18.9310345 38.489229,18.9310345 38.489229,18.9310345 L38.489229,19.3448276 L38.489229,19.3448276 L38.489229,19.3448276 Z M39.0136054,29.5862069 C39.0136054,29.5862069 39.0136054,29.5862069 39.0136054,29.5862069 C39.0136054,29.5862069 39.0136054,29.5862069 39.0136054,29.5862069 C39.0136054,29.5862069 39.0136054,29.5862069 39.0136054,29.5862069 C39.0136054,29.5862069 39.0136054,29.5862069 39.0136054,29.5862069 L39.0136054,29.5862069 C39.0136054,29.6896552 39.0136054,29.6896552 39.0136054,29.6896552 L39.0136054,29.6896552 C39.0136054,29.5862069 39.0136054,29.5862069 39.0136054,29.5862069 L39.0136054,29.5862069 C39.0136054,29.6896552 39.0136054,29.6896552 39.0136054,29.6896552 L39.0136054,29.3793103 L39.1184807,29.3793103 L39.0136054,29.5862069 Z M38.9087302,29.3793103 C38.9087302,29.3793103 38.9087302,29.3793103 39.0136054,29.3793103 C39.0136054,29.3793103 39.0136054,29.3793103 39.0136054,29.3793103 C39.0136054,29.3793103 39.0136054,29.3793103 39.0136054,29.3793103 C39.0136054,29.3793103 39.0136054,29.3793103 39.0136054,29.4827586 C39.0136054,29.5862069 39.0136054,29.4827586 39.0136054,29.5862069 C39.0136054,29.5862069 39.0136054,29.5862069 39.0136054,29.5862069 C39.0136054,29.5862069 39.0136054,29.5862069 39.0136054,29.5862069 C39.0136054,29.5862069 39.0136054,29.5862069 38.9087302,29.5862069 C38.8038549,29.5862069 38.9087302,29.5862069 38.8038549,29.5862069 C38.8038549,29.5862069 38.8038549,29.5862069 38.6989796,29.5862069 C38.6989796,29.5862069 38.6989796,29.5862069 38.6989796,29.5862069 C38.6989796,29.5862069 38.6989796,29.5862069 38.6989796,29.4827586 C38.6989796,29.3793103 38.6989796,29.4827586 38.6989796,29.3793103 C38.6989796,29.3793103 38.6989796,29.3793103 38.6989796,29.3793103 C38.6989796,29.3793103 38.6989796,29.3793103 38.8038549,29.3793103 C38.8038549,29.3793103 38.8038549,29.3793103 38.9087302,29.3793103 L38.9087302,29.3793103 Z M8.59977324,28.2413793 C8.59977324,27.7241379 9.01927438,27.2068966 9.54365079,27.2068966 C10.0680272,27.2068966 10.4875283,27.6206897 10.4875283,28.2413793 C10.4875283,28.862069 10.0680272,29.2758621 9.54365079,29.2758621 C9.01927438,29.2758621 8.59977324,28.862069 8.59977324,28.2413793 L8.59977324,28.2413793 Z M11.2216553,28.2413793 L11.2216553,26.6896552 L10.4875283,26.6896552 L10.4875283,27.1034483 C10.2777778,26.7931034 9.96315193,26.6896552 9.43877551,26.6896552 C8.49489796,26.6896552 7.76077098,27.4137931 7.76077098,28.3448276 C7.76077098,29.2758621 8.49489796,30 9.43877551,30 C10.3826531,30 10.2777778,29.7931034 10.4875283,29.5862069 L10.4875283,30 L11.2216553,30 L11.2216553,28.4482759 L11.2216553,28.2413793 Z M35.13322,28.2413793 C35.13322,27.7241379 35.5527211,27.2068966 36.0770975,27.2068966 C36.6014739,27.2068966 37.0209751,27.6206897 37.0209751,28.2413793 C37.0209751,28.862069 36.6014739,29.2758621 36.0770975,29.2758621 C35.5527211,29.2758621 35.13322,28.862069 35.13322,28.2413793 L35.13322,28.2413793 Z M37.755102,28.2413793 L37.755102,25.3448276 L37.0209751,25.3448276 L37.0209751,27 C36.8112245,26.6896552 36.4965986,26.5862069 35.9722222,26.5862069 C35.0283447,26.5862069 34.2942177,27.3103448 34.2942177,28.2413793 C34.2942177,29.1724138 35.0283447,29.8965517 35.9722222,29.8965517 C36.9160998,29.8965517 36.8112245,29.6896552 37.0209751,29.4827586 L37.0209751,29.8965517 L37.755102,29.8965517 L37.755102,28.3448276 L37.755102,28.2413793 Z M20.0311791,27.2068966 C20.4506803,27.2068966 20.7653061,27.5172414 20.8701814,27.9310345 L19.1921769,27.9310345 C19.1921769,27.5172414 19.5068027,27.2068966 20.0311791,27.2068966 L20.0311791,27.2068966 Z M20.0311791,26.5862069 C19.0873016,26.5862069 18.4580499,27.3103448 18.4580499,28.2413793 C18.4580499,29.1724138 19.1921769,29.8965517 20.1360544,29.8965517 C21.079932,29.8965517 21.079932,29.7931034 21.4994331,29.4827586 L21.1848073,28.9655172 C20.8701814,29.1724138 20.5555556,29.2758621 20.2409297,29.2758621 C19.9263039,29.2758621 19.4019274,29.0689655 19.2970522,28.5517241 L21.7091837,28.5517241 C21.7091837,28.5517241 21.7091837,28.3448276 21.7091837,28.2413793 C21.7091837,27.2068966 21.079932,26.5862069 20.1360544,26.5862069 L20.1360544,26.5862069 L20.0311791,26.5862069 Z M28.5260771,28.2413793 C28.5260771,27.7241379 28.9455782,27.2068966 29.4699546,27.2068966 C29.9943311,27.2068966 30.4138322,27.6206897 30.4138322,28.2413793 C30.4138322,28.862069 29.9943311,29.2758621 29.4699546,29.2758621 C28.9455782,29.2758621 28.5260771,28.862069 28.5260771,28.2413793 L28.5260771,28.2413793 Z M31.1479592,28.2413793 L31.1479592,26.6896552 L30.4138322,26.6896552 L30.4138322,27.1034483 C30.2040816,26.7931034 29.8894558,26.6896552 29.3650794,26.6896552 C28.4212018,26.6896552 27.6870748,27.4137931 27.6870748,28.3448276 C27.6870748,29.2758621 28.4212018,30 29.3650794,30 C30.3089569,30 30.2040816,29.7931034 30.4138322,29.5862069 L30.4138322,30 L31.1479592,30 L31.1479592,28.4482759 L31.1479592,28.2413793 Z M24.5408163,28.2413793 C24.5408163,29.1724138 25.2749433,29.8965517 26.3236961,29.8965517 C27.372449,29.8965517 27.1626984,29.7931034 27.4773243,29.4827586 L27.1626984,28.9655172 C26.8480726,29.1724138 26.638322,29.2758621 26.3236961,29.2758621 C25.7993197,29.2758621 25.3798186,28.862069 25.3798186,28.2413793 C25.3798186,27.6206897 25.7993197,27.2068966 26.3236961,27.2068966 C26.638322,27.2068966 26.9529478,27.2068966 27.1626984,27.5172414 L27.4773243,27 C27.1626984,26.6896552 26.8480726,26.5862069 26.3236961,26.5862069 C25.2749433,26.5862069 24.5408163,27.3103448 24.5408163,28.2413793 L24.5408163,28.2413793 L24.5408163,28.2413793 Z M33.664966,26.5862069 C33.2454649,26.5862069 33.0357143,26.7931034 32.8259637,27 L32.8259637,26.5862069 L32.0918367,26.5862069 L32.0918367,29.7931034 L32.8259637,29.7931034 L32.8259637,28.0344828 C32.8259637,27.5172414 33.0357143,27.2068966 33.5600907,27.2068966 C34.0844671,27.2068966 33.8747166,27.2068966 33.9795918,27.2068966 L34.1893424,26.5862069 C34.0844671,26.5862069 33.8747166,26.5862069 33.664966,26.5862069 L33.664966,26.5862069 L33.664966,26.5862069 Z M14.6825397,26.8965517 C14.3679138,26.6896552 13.8435374,26.5862069 13.319161,26.5862069 C12.4801587,26.5862069 11.9557823,27 11.9557823,27.6206897 C11.9557823,28.2413793 12.3752834,28.4482759 13.1094104,28.5517241 L13.4240363,28.5517241 C13.8435374,28.5517241 13.9484127,28.7586207 13.9484127,28.9655172 C13.9484127,29.1724138 13.7386621,29.3793103 13.2142857,29.3793103 C12.6899093,29.3793103 12.3752834,29.2758621 12.1655329,29.0689655 L11.850907,29.5862069 C12.2704082,29.8965517 12.6899093,30 13.2142857,30 C14.1581633,30 14.6825397,29.5862069 14.6825397,28.9655172 C14.6825397,28.3448276 14.2630385,28.137931 13.5289116,28.0344828 L13.2142857,28.0344828 C12.8996599,28.0344828 12.6899093,27.9310345 12.6899093,27.7241379 C12.6899093,27.5172414 12.8996599,27.3103448 13.319161,27.3103448 C13.7386621,27.3103448 14.1581633,27.4137931 14.3679138,27.6206897 L14.6825397,27.1034483 L14.6825397,26.8965517 Z M23.8066893,26.5862069 C23.3871882,26.5862069 23.1774376,26.7931034 22.9676871,27 L22.9676871,26.5862069 L22.2335601,26.5862069 L22.2335601,29.7931034 L22.9676871,29.7931034 L22.9676871,28.0344828 C22.9676871,27.5172414 23.1774376,27.2068966 23.7018141,27.2068966 C24.2261905,27.2068966 24.0164399,27.2068966 24.1213152,27.2068966 L24.3310658,26.5862069 C24.2261905,26.5862069 24.0164399,26.5862069 23.8066893,26.5862069 L23.8066893,26.5862069 L23.8066893,26.5862069 Z M17.8287982,26.6896552 L16.6751701,26.6896552 L16.6751701,25.7586207 L15.9410431,25.7586207 L15.9410431,26.6896552 L15.3117914,26.6896552 L15.3117914,27.3103448 L15.9410431,27.3103448 L15.9410431,28.7586207 C15.9410431,29.4827586 16.2556689,29.8965517 17.0946712,29.8965517 C17.9336735,29.8965517 17.7239229,29.8965517 17.9336735,29.6896552 L17.7239229,29.0689655 C17.5141723,29.1724138 17.3044218,29.2758621 17.0946712,29.2758621 C16.7800454,29.2758621 16.6751701,29.0689655 16.6751701,28.7586207 L16.6751701,27.3103448 L17.8287982,27.3103448 L17.8287982,26.6896552 L17.8287982,26.6896552 Z M7.23639456,29.7931034 L7.23639456,27.8275862 C7.23639456,27.1034483 6.71201814,26.5862069 5.97789116,26.5862069 C5.55839002,26.5862069 5.13888889,26.6896552 4.82426304,27.1034483 C4.61451247,26.7931034 4.19501134,26.5862069 3.7755102,26.5862069 C3.35600907,26.5862069 3.04138322,26.5862069 2.83163265,27.1034483 L2.83163265,26.6896552 L2.09750567,26.6896552 L2.09750567,29.8965517 L2.83163265,29.8965517 L2.83163265,28.137931 C2.83163265,27.6206897 3.1462585,27.3103448 3.67063492,27.3103448 C4.19501134,27.3103448 4.4047619,27.6206897 4.4047619,28.137931 L4.4047619,29.8965517 L5.13888889,29.8965517 L5.13888889,28.137931 C5.13888889,27.6206897 5.45351474,27.3103448 5.97789116,27.3103448 C6.50226757,27.3103448 6.71201814,27.6206897 6.71201814,28.137931 L6.71201814,29.8965517 L7.44614512,29.8965517 L7.23639456,29.7931034 Z" id="Fill-1"></path>
        </g>
    </g>
</svg>