<?xml version="1.0" encoding="UTF-8"?>
<svg width="122px" height="30px" viewBox="0 0 122 30" version="1.1" xmlns="http://www.w3.org/2000/svg" xmlns:xlink="http://www.w3.org/1999/xlink">
    <title>mercado_pago copia 2</title>
    <g id="Page-1" stroke="none" stroke-width="1" fill="none" fill-rule="evenodd">
        <g id="mercado_pago-copia-2" fill="#FFFFFF" fill-rule="nonzero">
            <path d="M120.161428,4.12416851 C119.401141,3.19290466 118.133998,2.72727273 116.486711,2.72727273 C114.839424,2.72727273 113.57228,3.19290466 112.811994,4.12416851 C112.051708,5.05543237 111.54485,6.2195122 111.54485,7.5 C111.54485,8.7804878 111.924994,9.94456763 112.811994,10.8758315 C113.57228,11.8070953 114.839424,12.2727273 116.486711,12.2727273 C118.133998,12.2727273 119.401141,11.8070953 120.161428,10.8758315 C120.921714,9.94456763 121.428571,8.7804878 121.428571,7.5 C121.428571,6.2195122 121.048428,5.05543237 120.161428,4.12416851 Z M118.133998,9.59534368 C117.753855,10.0609756 117.246997,10.2937916 116.486711,10.2937916 C115.726425,10.2937916 115.219567,10.0609756 114.839424,9.59534368 C114.459281,9.12971175 114.205852,8.43126386 114.205852,7.5 C114.205852,6.56873614 114.459281,5.87028825 114.839424,5.40465632 C115.219567,4.93902439 115.853139,4.70620843 116.486711,4.70620843 C117.120283,4.70620843 117.753855,4.93902439 118.133998,5.40465632 C118.514141,5.87028825 118.76757,6.56873614 118.76757,7.5 C118.76757,8.43126386 118.514141,9.12971175 118.133998,9.59534368 Z" id="Shape"></path>
            <path d="M98.9847275,3.30850726 C98.2260624,2.95976654 97.2145089,2.72727273 96.2029553,2.72727273 C94.5591808,2.72727273 93.4211831,3.07601344 92.7889622,3.88974179 C92.4096296,4.35472941 92.1567412,5.05221085 92.030297,5.86593919 L94.4327366,5.86593919 C94.4327366,5.51719847 94.5591808,5.28470466 94.8120692,5.05221085 C95.0649576,4.81971703 95.4442902,4.58722322 96.0765111,4.58722322 C96.7087321,4.58722322 96.9616205,4.58722322 97.340953,4.81971703 C97.5938414,4.93596394 97.7202856,5.16845775 97.7202856,5.63344537 C97.7202856,6.098433 97.5938414,6.098433 97.2145089,6.33092681 C96.9616205,6.33092681 96.7087321,6.44717372 96.2029553,6.56342062 L95.317846,6.56342062 C94.3062925,6.79591443 93.6740715,6.91216134 93.1682947,7.26090206 C92.2831854,7.72588968 91.7774086,8.53961802 91.7774086,9.58584018 C91.7774086,10.6320623 92.030297,11.09705 92.662518,11.5620376 C93.1682947,12.0270252 93.9269599,12.259519 94.8120692,12.259519 C100.249169,12.4920128 100.249169,9.58584018 100.249169,9.00460565 L100.249169,5.63344537 C100.249169,4.58722322 99.8698369,3.77349488 98.9847275,3.42475416 L98.9847275,3.42475416 L98.9847275,3.30850726 Z M97.7202856,8.42337112 C97.7202856,9.23709946 97.4673972,9.70208708 96.9616205,10.0508278 C96.4558437,10.3995685 95.9500669,10.5158154 95.4442902,10.5158154 C94.9385134,10.5158154 94.8120692,10.5158154 94.5591808,10.2833216 C94.3062925,10.0508278 94.1798483,9.81833399 94.1798483,9.46959327 C94.1798483,9.12085255 94.4327366,8.65586493 94.8120692,8.42337112 C95.0649576,8.30712421 95.4442902,8.1908773 95.9500669,8.0746304 L96.4558437,8.0746304 C96.7087321,7.95838349 96.9616205,7.84213659 97.0880647,7.84213659 C97.2145089,7.84213659 97.4673972,7.72588968 97.5938414,7.60964278 L97.5938414,8.42337112 L97.5938414,8.42337112 L97.7202856,8.42337112 Z" id="Shape1"></path>
            <path d="M87.0386383,4.61279461 C87.7156055,4.61279461 88.2571793,4.84848485 88.5279661,5.2020202 C88.798753,5.43771044 88.9341465,5.79124579 88.9341465,6.14478114 L91.7774086,6.14478114 C91.6420152,4.84848485 91.1004415,4.02356902 90.2880808,3.43434343 C89.4757202,2.96296296 88.3925727,2.72727273 87.0386383,2.72727273 C85.684704,2.72727273 84.1953761,3.1986532 83.2476221,4.02356902 C82.299868,4.84848485 81.8936877,6.14478114 81.8936877,7.67676768 C81.8936877,9.20875421 82.299868,10.1515152 83.1122286,10.976431 C83.9245893,11.8013468 85.1431302,12.2727273 86.9032449,12.2727273 C88.6633596,12.2727273 89.8819005,11.8013468 90.8296546,10.7407407 C91.3712283,10.1515152 91.6420152,9.44444444 91.7774086,8.73737374 L88.9341465,8.73737374 C88.9341465,9.20875421 88.6633596,9.56228956 88.3925727,9.91582492 C88.1217858,10.2693603 87.7156055,10.3872054 87.0386383,10.3872054 C86.3616711,10.3872054 85.4139171,10.03367 85.1431302,9.20875421 C85.0077368,8.85521886 84.8723433,8.26599327 84.8723433,7.67676768 C84.8723433,7.08754209 84.8723433,6.38047138 85.1431302,6.02693603 C85.5493105,5.2020202 86.0908843,4.84848485 87.0386383,4.84848485 L87.0386383,4.61279461 Z" id="Path"></path>
            <path d="M81.5000478,5.1438435 C81.5000478,5.1438435 81.7624744,5.1438435 81.8936877,5.1438435 L81.8936877,2.72727273 C81.8936877,2.72727273 81.7624744,2.72727273 81.6312611,2.72727273 C81.6312611,2.72727273 81.6312611,2.72727273 81.6312611,2.72727273 C75.8578757,2.72727273 76.2515156,7.43958573 76.2515156,7.43958573 L76.2515156,12.2727273 L78.8757817,12.2727273 L78.8757817,7.80207135 C78.8757817,7.07710012 78.8757817,6.47295742 79.1382083,6.11047181 C79.5318482,5.50632911 80.1879147,5.1438435 81.2376212,5.1438435 C82.2873276,5.1438435 81.3688345,5.1438435 81.5000478,5.1438435 Z" id="Path1"></path>
            <path d="M66.5529317,11.2250554 C67.621442,11.9235033 68.6899524,12.2727273 70.0255904,12.2727273 C71.3612283,12.2727273 72.9639939,11.8070953 73.7653767,10.9922395 C74.2996319,10.5266075 74.5667595,10.0609756 74.7003232,9.59534368 L71.8954835,9.59534368 C71.8954835,9.71175166 71.6283559,9.82815965 71.4947921,9.94456763 C71.0941007,10.1773836 70.5598456,10.2937916 70.0255904,10.2937916 C69.4913352,10.2937916 68.95708,10.2937916 68.5563886,9.94456763 C67.8885696,9.59534368 67.4878782,9.01330377 67.4878782,8.08203991 L74.833887,8.08203991 C74.833887,7.26718404 74.833887,6.68514412 74.833887,6.33592018 C74.833887,5.63747228 74.4331957,5.05543237 74.0325043,4.47339246 C73.6318129,3.89135255 72.9639939,3.42572062 72.2961749,3.19290466 C71.6283559,2.96008869 70.8269732,2.72727273 69.8920266,2.72727273 C68.4228248,2.72727273 67.2207507,3.19290466 66.2858041,4.00776053 C65.3508575,4.82261641 64.9501661,5.98669623 64.9501661,7.5 C64.9501661,9.01330377 65.4844213,10.2937916 66.4193679,11.1086475 L66.4193679,11.1086475 L66.5529317,11.2250554 Z M68.4228248,5.40465632 C68.8235162,5.05543237 69.3577714,4.93902439 70.0255904,4.93902439 C70.6934094,4.93902439 71.2276645,5.05543237 71.6283559,5.40465632 C72.0290473,5.75388027 72.2961749,6.2195122 72.2961749,6.80155211 L67.7550058,6.80155211 C67.7550058,6.2195122 68.0221334,5.75388027 68.4228248,5.40465632 L68.4228248,5.40465632 L68.4228248,5.40465632 Z" id="Shape2"></path>
            <path d="M62.5968992,6.78409091 L62.5968992,12.2727273 L64.9501661,12.2727273 L64.9501661,6.78409091 C64.9501661,4.39772727 63.3813215,2.72727273 60.8973176,2.72727273 C58.4133136,2.72727273 58.6747877,3.20454545 58.0211025,4.03977273 C57.3674173,3.20454545 56.3215209,2.72727273 55.0141504,2.72727273 C52.5301464,2.72727273 50.8305648,4.39772727 50.8305648,6.78409091 L50.8305648,12.2727273 L53.1838317,12.2727273 L53.1838317,6.78409091 C53.1838317,5.82954545 53.968254,5.11363636 55.0141504,5.11363636 C56.582995,5.11363636 56.713732,6.30681818 56.713732,6.78409091 L56.713732,12.2727273 L59.0669989,12.2727273 L59.0669989,6.78409091 C59.0669989,5.82954545 59.8514212,5.11363636 60.8973176,5.11363636 C62.4661622,5.11363636 62.5968992,6.30681818 62.5968992,6.78409091 L62.5968992,6.78409091 L62.5968992,6.78409091 Z" id="Path2"></path>
            <path d="M107.560415,1.64446136 L107.560415,4.21393224 C107.289628,3.74675572 106.883448,3.51316746 106.341874,3.2795792 C105.8003,3.04599093 105.258727,2.9291968 104.717153,2.9291968 C103.363218,2.9291968 102.280071,3.39637333 101.46771,4.21393224 C100.65535,5.03149116 100.249169,6.3162266 100.249169,7.8345503 C100.249169,9.352874 100.65535,10.287227 101.46771,11.104786 C102.280071,11.9223449 103.904792,12.2727273 105.258727,12.2727273 C110.13289,12.2727273 110.13289,8.53531508 110.13289,8.53531508 L110.13289,0.00934353047 C110.13289,0.00934353047 107.425022,-0.224244731 107.425022,1.64446136 L107.425022,1.64446136 L107.560415,1.64446136 Z M107.154235,9.58646226 C106.748054,10.0536388 106.206481,10.287227 105.39412,10.287227 C104.581759,10.287227 104.040186,10.0536388 103.769399,9.58646226 C103.363218,9.11928574 103.227825,8.41852095 103.227825,7.60096204 C103.227825,6.78340312 103.363218,6.19943247 103.769399,5.73225594 C104.175579,5.26507942 104.717153,4.91469703 105.529513,4.91469703 C106.341874,4.91469703 106.477268,5.03149116 106.883448,5.38187355 C107.560415,5.84905007 107.831202,6.66660899 107.831202,7.8345503 C107.831202,9.00249161 107.695808,9.23607987 107.289628,9.70325639 L107.289628,9.70325639 L107.154235,9.58646226 Z" id="Shape3"></path>
            <path d="M56.5170892,16.3636364 C54.3507942,16.3636364 53.1322532,16.7142857 52.455286,17.1818182 C51.507532,17.8831169 50.8305648,18.8181818 50.8305648,20.4545455 L50.8305648,28.6363636 L52.1844992,28.6363636 C52.5906795,28.6363636 52.8614663,28.6363636 53.1322532,28.2857143 C53.4030401,28.0519481 53.5384335,27.8181818 53.5384335,27.4675325 L53.5384335,24.4285714 C53.8092204,24.8961039 54.2154007,25.2467532 54.7569745,25.4805195 C55.2985482,25.7142857 55.840122,25.8311688 56.5170892,25.8311688 C57.7356301,25.8311688 58.8187776,25.3636364 59.4957448,24.5454545 C60.3081054,23.6103896 60.7142857,22.4415584 60.7142857,21.038961 C60.7142857,19.6363636 60.3081054,18.5844156 59.4957448,17.6493506 C58.8187776,16.8311688 57.7356301,16.4805195 56.5170892,16.3636364 L56.5170892,16.3636364 L56.5170892,16.3636364 Z M57.4648432,23.025974 C57.0586629,23.4935065 56.5170892,23.7272727 55.840122,23.7272727 C55.1631548,23.7272727 54.4861876,23.4935065 54.0800073,23.025974 C53.673827,22.5584416 53.5384335,21.974026 53.5384335,21.038961 C53.5384335,20.1038961 53.673827,19.4025974 54.0800073,18.9350649 C54.4861876,18.4675325 55.0277613,18.2337662 55.7047285,18.2337662 C56.3816957,18.2337662 57.0586629,18.4675325 57.4648432,18.9350649 C57.8710235,19.4025974 58.006417,20.1038961 58.006417,21.038961 C58.006417,21.974026 57.8710235,22.5584416 57.4648432,23.025974 Z" id="Shape4"></path>
            <path d="M77.540144,17.3366408 C76.7165006,16.728513 75.8928571,16.3636364 74.5985604,16.3636364 C73.1866002,16.3636364 72.1276301,16.8501386 71.5393134,17.7015175 C70.9509967,18.5528964 70.5980066,19.7691521 70.5980066,21.2286588 C70.5980066,22.6881655 70.8333333,23.5395444 71.3039867,24.2692978 C71.7746401,24.9990511 72.3629568,25.6071789 73.0689369,25.8504301 C73.7749169,26.0936812 74.3632337,26.2153067 75.0692137,25.9720556 C75.7751938,25.8504301 76.2458472,25.3639278 76.7165006,24.7558 L76.7165006,25.3639278 C76.7165006,26.0936812 76.4811739,26.701809 76.2458472,27.0666857 C75.8928571,27.4315624 75.6575305,27.6748135 75.1868771,27.796439 C74.833887,27.796439 74.480897,27.796439 74.127907,27.6748135 C73.7749169,27.5531879 73.5395903,27.1883112 73.3042636,26.9450601 L70.8333333,26.9450601 C71.4216501,29.0126946 72.5982835,29.8640736 74.7162237,29.9856991 C78.0107973,30.2289502 79.0697674,27.3099368 79.0697674,25.7288045 L79.0697674,20.7421565 C79.0697674,19.0393987 78.5991141,18.0663942 77.6578073,17.3366408 L77.6578073,17.3366408 L77.540144,17.3366408 Z M76.5988372,22.2016633 C76.5988372,22.8097911 76.3635105,23.1746677 76.1281838,23.4179189 C75.6575305,24.0260467 75.0692137,24.2692978 74.127907,24.0260467 C73.1866002,23.9044211 72.8336102,22.9314166 72.8336102,21.3502843 C72.8336102,19.7691521 72.9512735,19.8907776 73.1866002,19.2826498 C73.4219269,18.674522 74.0102436,18.4312709 74.7162237,18.4312709 C75.4222038,18.4312709 75.6575305,18.674522 76.0105205,19.0393987 C76.2458472,19.5259009 76.4811739,19.8907776 76.5988372,20.4989054 C76.5988372,20.9854077 76.5988372,21.5935355 76.5988372,22.2016633 L76.5988372,22.2016633 L76.5988372,22.2016633 Z" id="Shape5"></path>
            <path d="M67.9216046,16.9448709 C67.1629395,16.5961302 66.1513859,16.3636364 65.1398324,16.3636364 C63.4960579,16.3636364 62.3580602,16.7123771 61.7258392,17.5261054 C61.3465067,17.991093 61.0936183,18.6885745 60.9671741,19.5023028 L63.3696137,19.5023028 C63.3696137,19.1535621 63.4960579,18.9210683 63.7489463,18.6885745 C64.0018347,18.4560807 64.3811673,18.2235869 65.0133882,18.2235869 C65.6456092,18.2235869 65.8984975,18.2235869 66.2778301,18.4560807 C66.5307185,18.5723276 66.6571627,18.8048214 66.6571627,19.269809 C66.6571627,19.7347966 66.5307185,19.7347966 66.1513859,19.9672904 C65.8984975,19.9672904 65.6456092,20.0835374 65.1398324,20.1997843 L64.2547231,20.1997843 C63.2431695,20.4322781 62.4845044,20.548525 62.1051718,20.8972657 C61.2200625,21.3622533 60.7142857,22.1759817 60.7142857,23.2222038 C60.7142857,24.268426 60.9671741,24.7334136 61.5993951,25.1984012 C62.1051718,25.6633888 62.863837,25.8958826 63.7489463,25.8958826 C69.1860465,26.1283765 69.1860465,23.2222038 69.1860465,22.6409693 L69.1860465,19.269809 C69.1860465,18.2235869 68.8067139,17.4098585 67.9216046,17.0611178 L67.9216046,17.0611178 L67.9216046,16.9448709 Z M66.6571627,21.9434878 C66.6571627,22.7572162 66.4042743,23.2222038 65.8984975,23.5709445 C65.3927208,23.9196852 64.886944,24.0359322 64.3811673,24.0359322 C63.8753905,24.0359322 63.7489463,24.0359322 63.4960579,23.8034383 C63.2431695,23.5709445 63.1167253,23.3384507 63.1167253,22.98971 C63.1167253,22.6409693 63.3696137,22.1759817 63.7489463,21.9434878 C64.0018347,21.8272409 64.3811673,21.710994 64.886944,21.5947471 L65.519165,21.5947471 C65.7720534,21.4785002 66.0249417,21.3622533 66.1513859,21.3622533 C66.2778301,21.3622533 66.5307185,21.2460064 66.6571627,21.1297595 L66.6571627,21.9434878 L66.6571627,21.9434878 L66.6571627,21.9434878 Z" id="Shape6"></path>
            <path d="M85.423588,16.3636364 C83.7763012,16.3636364 82.5091575,16.8292683 81.7488713,17.7605322 C80.9885851,18.691796 80.4817276,19.8558758 80.4817276,21.1363636 C80.4817276,22.4168514 80.8618707,23.5809313 81.7488713,24.5121951 C82.5091575,25.443459 83.7763012,25.9090909 85.423588,25.9090909 C87.0708749,25.9090909 88.3380186,25.443459 89.0983048,24.5121951 C89.858591,23.5809313 90.3654485,22.4168514 90.3654485,21.1363636 C90.3654485,19.8558758 89.9853054,18.691796 89.0983048,17.7605322 C88.3380186,16.8292683 87.0708749,16.3636364 85.423588,16.3636364 L85.423588,16.3636364 Z M87.0708749,23.1152993 C86.6907317,23.5809313 86.1838743,23.8137472 85.423588,23.8137472 C84.6633018,23.8137472 84.1564443,23.5809313 83.7763012,23.1152993 C83.3961581,22.6496674 83.1427294,21.9512195 83.1427294,21.0199557 C83.1427294,20.0886918 83.3961581,19.3902439 83.7763012,18.924612 C84.1564443,18.45898 84.7900162,18.2261641 85.423588,18.2261641 C86.0571599,18.2261641 86.6907317,18.45898 87.0708749,18.924612 C87.451018,19.3902439 87.7044467,20.0886918 87.7044467,21.0199557 C87.7044467,21.9512195 87.451018,22.6496674 87.0708749,23.1152993 Z" id="Shape7"></path>
            <path d="M43.7707641,14.0245323 C43.7707641,6.22053783 33.8910774,-0.120207663 21.7603227,0.0017297502 C9.75462743,0.123667164 0,6.58635007 0,14.3903445 C0,14.6342194 0,15.121969 0,15.2439064 C0,23.5356505 8.6290935,30.1202709 22.0104414,29.9983334 C35.3917893,29.9983334 43.7707641,23.0479009 43.7707641,14.8780942 L43.7707641,14.0245323 C43.7707641,14.0245323 43.7707641,14.0245323 43.7707641,14.0245323 Z M22.0104414,27.5595852 C10.3799241,27.5595852 0.875415282,21.7065893 0.875415282,14.3903445 C0.875415282,14.1464697 0.875415282,13.7806575 0.875415282,13.5367826 L0.875415282,12.6832207 C1.00047461,12.6832207 1.00047461,12.4393459 1.12553393,12.4393459 C1.62577124,12.5612833 2.00094922,12.6832207 2.12600854,12.6832207 C7.50355956,13.9025949 9.62956811,15.121969 10.2548647,15.6097187 C10.6300427,15.2439064 11.2553393,15.0000316 11.7555766,15.0000316 L11.7555766,15.0000316 C12.3808733,15.0000316 13.0061699,15.2439064 13.3813479,15.7316561 C14.0066445,15.2439064 14.8820598,15.2439064 15.7574751,15.4877812 C16.2577124,15.7316561 16.7579497,15.9755309 17.0080683,16.4632806 C17.5083056,16.3413431 18.1336023,16.3413431 18.7588989,16.585218 C20.0094922,17.0729676 20.1345515,18.1704043 20.1345515,18.9020288 C21.5102041,18.9020288 22.7607973,20.121403 22.7607973,21.4627145 C22.7607973,21.8285267 22.7607973,22.194339 22.5106787,22.4382138 C22.8858567,22.6820886 23.6362126,22.9259635 24.1364499,22.8040261 C24.7617466,22.8040261 24.8868059,22.5601512 24.8868059,22.4382138 C24.8868059,22.4382138 24.8868059,22.4382138 24.8868059,22.4382138 L23.2610346,20.73109 C23.010916,20.4872152 22.8858567,20.2433404 23.1359753,19.9994655 C23.1359753,19.9994655 23.2610346,19.8775281 23.386094,19.8775281 C23.5111533,19.8775281 23.761272,19.9994655 23.8863313,20.121403 C24.7617466,20.8530274 25.7622212,21.9504642 25.7622212,21.9504642 L25.7622212,21.9504642 C25.7622212,21.9504642 25.7622212,21.9504642 26.0123398,22.0724016 C26.0123398,22.0724016 26.1373991,22.0724016 26.2624585,22.0724016 C26.3875178,22.0724016 26.8877551,22.0724016 27.1378738,21.8285267 C27.1378738,21.8285267 27.1378738,21.8285267 27.2629331,21.7065893 L27.2629331,21.7065893 C27.5130517,21.2188397 27.2629331,20.9749649 27.2629331,20.8530274 L25.2619839,18.658154 C25.2619839,18.658154 25.2619839,18.658154 25.1369245,18.5362166 C24.8868059,18.2923418 25.1369245,18.0484669 25.1369245,17.9265295 C25.1369245,17.9265295 25.2619839,17.9265295 25.3870432,17.9265295 C25.5121025,17.9265295 25.7622212,17.9265295 25.8872805,18.1704043 C26.3875178,18.658154 27.1378738,19.2678411 27.7631704,19.9994655 L28.1383484,20.3652778 C28.1383484,20.3652778 28.5135263,20.6091526 28.763645,20.6091526 C29.0137636,20.6091526 29.3889416,20.6091526 29.6390603,20.3652778 C30.0142383,20.121403 30.2643569,19.7555907 30.2643569,19.3897785 C30.2643569,19.0239662 29.8891789,18.7800914 29.8891789,18.7800914 L27.1378738,16.0974683 C26.8877551,15.8535935 26.7626958,15.6097187 26.8877551,15.3658438 C26.8877551,15.3658438 27.0128144,15.2439064 27.1378738,15.2439064 C27.2629331,15.2439064 27.5130517,15.2439064 27.6381111,15.4877812 C28.1383484,15.8535935 29.138823,16.8290928 30.6395349,18.1704043 C30.6395349,18.1704043 30.7645942,18.2923418 30.7645942,18.2923418 C30.7645942,18.2923418 31.0147129,18.5362166 31.5149502,18.5362166 C31.7650688,18.5362166 32.0151875,18.5362166 32.3903654,18.2923418 C32.6404841,18.0484669 32.8906028,17.8045921 32.8906028,17.5607173 C32.8906028,17.0729676 32.5154248,16.7071554 32.5154248,16.7071554 C31.7650688,16.0974683 25.6371618,10.7322221 24.2615093,9.63478541 C23.386094,9.02509834 23.010916,8.90316093 22.5106787,8.78122351 C22.5106787,8.78122351 22.5106787,8.78122351 22.3856194,8.78122351 C22.1355007,8.78122351 22.0104414,8.78122351 21.7603227,8.78122351 C21.0099668,9.02509834 20.0094922,9.63478541 19.3841955,10.2444725 C18.5087803,10.976097 17.633365,11.585784 16.883009,11.7077214 C16.6328904,11.7077214 16.3827717,11.7077214 16.0075937,11.7077214 C15.2572378,11.7077214 14.3818225,11.4638466 14.0066445,11.2199718 C13.7565259,11.0980344 13.5064072,10.8541595 13.5064072,10.6102847 C13.2562886,10.0005976 13.5064072,9.63478541 13.7565259,9.39091058 L15.6324158,7.43991197 C15.6324158,7.43991197 15.6324158,7.43991197 15.6324158,7.43991197 C15.3822971,7.43991197 15.1321785,7.56184938 14.8820598,7.68378679 C14.2567632,7.92766162 13.5064072,8.04959903 12.8811106,8.04959903 L12.8811106,8.04959903 C12.6309919,8.04959903 12.3808733,8.04959903 12.255814,8.04959903 L12.0056953,8.04959903 C11.0052207,8.04959903 8.00379687,7.19603714 5.25249169,6.09860042 C5.25249169,6.09860042 5.25249169,6.09860042 5.25249169,6.09860042 L6.00284765,5.48891335 C9.87968676,2.80629026 15.3822971,0.977229057 21.6352634,0.977229057 C28.013289,0.977229057 33.766018,2.68435284 37.6428571,5.48891335 L38.3932131,6.09860042 C38.3932131,6.09860042 38.3932131,6.09860042 38.5182724,6.22053783 L38.2681538,6.22053783 C36.1421452,7.31797455 34.141196,7.80572421 32.1402468,7.80572421 L32.1402468,7.80572421 C30.2643569,7.80572421 28.388467,7.31797455 26.5125771,6.46441266 C26.2624585,6.46441266 24.3865686,5.48891335 22.5106787,5.48891335 C22.5106787,5.48891335 22.5106787,5.48891335 22.3856194,5.48891335 C19.3841955,5.48891335 18.008543,6.8302249 16.6328904,8.29347386 L14.7570005,10.2444725 C14.7570005,10.2444725 14.7570005,10.2444725 14.7570005,10.2444725 C15.0071191,10.4883473 15.5073564,10.6102847 16.1326531,10.6102847 C16.3827717,10.6102847 16.6328904,10.6102847 16.883009,10.6102847 C17.3832463,10.4883473 18.2586616,9.87866023 18.8839582,9.26897317 L18.8839582,9.26897317 C19.7593735,8.53734869 20.5097295,7.92766162 21.3851448,7.68378679 C21.7603227,7.68378679 22.1355007,7.56184938 22.5106787,7.56184938 L22.5106787,7.56184938 C22.8858567,7.56184938 23.1359753,7.56184938 23.386094,7.68378679 C23.8863313,7.80572421 24.3865686,8.17153645 25.1369245,8.6592861 C26.3875178,9.63478541 30.7645942,13.2929078 33.2657807,15.4877812 C34.6414333,14.8780942 38.2681538,13.4148452 42.6452302,12.4393459 C42.6452302,12.4393459 42.6452302,12.4393459 42.6452302,12.4393459 C42.6452302,12.4393459 42.6452302,12.4393459 42.6452302,12.4393459 L42.6452302,13.2929078 C42.7702895,13.5367826 42.7702895,13.7806575 42.7702895,13.9025949 C42.7702895,21.2188397 33.5158994,27.3157103 21.8853821,27.4376478 L21.8853821,27.4376478 L22.0104414,27.5595852 Z" id="Shape8"></path>
            <path d="M19.7512124,20.007837 L19.7512124,20.007837 C19.4915416,20.007837 19.2318708,20.007837 19.1020354,20.1253918 C19.1020354,20.1253918 18.9721999,20.1253918 18.8423645,20.1253918 L18.8423645,20.1253918 C18.8423645,20.1253918 18.8423645,20.1253918 18.8423645,20.007837 C18.8423645,20.007837 18.8423645,19.7727273 18.8423645,19.6551724 C18.8423645,19.6551724 19.1020354,18.9498433 18.8423645,18.362069 C18.8423645,18.1269592 18.4528583,17.8918495 18.063352,17.6567398 C17.8036812,17.6567398 17.5440104,17.539185 17.2843396,17.539185 C16.7649979,17.539185 16.3754917,17.7742947 16.2456562,17.8918495 C16.2456562,17.8918495 16.2456562,17.8918495 16.1158208,17.8918495 C15.9859854,17.8918495 16.1158208,17.8918495 15.9859854,17.8918495 C15.9859854,17.8918495 15.9859854,17.8918495 15.9859854,17.8918495 C15.9859854,17.8918495 15.9859854,17.6567398 15.9859854,17.4216301 C15.9859854,17.1865204 15.5964792,16.8338558 15.0771375,16.7163009 C14.8174667,16.7163009 14.6876313,16.7163009 14.4279604,16.7163009 C13.3892771,16.7163009 12.8699355,17.539185 12.8699355,17.539185 L12.6102646,17.7742947 L12.6102646,17.7742947 C12.6102646,17.7742947 12.6102646,17.7742947 12.6102646,17.7742947 C12.6102646,17.7742947 12.6102646,17.4216301 12.6102646,17.4216301 C12.6102646,17.4216301 12.6102646,17.3040752 12.6102646,17.1865204 C12.4804292,16.7163009 11.9610876,16.3636364 11.3119105,16.3636364 C10.6627334,16.3636364 9.88372093,16.9514107 9.88372093,17.6567398 C9.88372093,17.7742947 9.88372093,18.0094044 9.88372093,18.1269592 C10.1433918,18.5971787 10.532898,18.9498433 11.1820751,18.9498433 C11.5715813,18.9498433 11.8312521,18.7147335 12.090923,18.5971787 C12.090923,18.5971787 12.2207584,18.5971787 12.3505938,18.5971787 C12.3505938,18.5971787 12.3505938,18.5971787 12.3505938,18.5971787 C12.3505938,18.5971787 12.3505938,18.5971787 12.3505938,18.5971787 C12.3505938,18.7147335 12.3505938,19.184953 12.3505938,19.5376176 C12.4804292,19.8902821 12.7401,20.2429467 13.3892771,20.4780564 C13.5191125,20.4780564 13.648948,20.4780564 13.9086188,20.4780564 C14.1682896,20.4780564 14.4279604,20.4780564 14.8174667,20.2429467 C14.8174667,20.2429467 14.8174667,20.2429467 14.9473021,20.2429467 C14.9473021,20.2429467 14.9473021,20.2429467 14.9473021,20.2429467 C14.9473021,20.2429467 14.9473021,20.2429467 14.9473021,20.2429467 C14.9473021,20.2429467 14.9473021,20.2429467 14.9473021,20.3605016 C14.9473021,20.3605016 14.9473021,20.5956113 14.9473021,20.830721 C14.9473021,21.0658307 15.3368083,21.4184953 15.85615,21.653605 C16.1158208,21.653605 16.2456562,21.653605 16.3754917,21.653605 C16.7649979,21.653605 17.0246687,21.4184953 17.2843396,21.3009404 C17.2843396,21.3009404 17.414175,21.3009404 17.5440104,21.3009404 C17.5440104,21.3009404 17.6738458,21.3009404 17.6738458,21.4184953 C17.6738458,21.4184953 17.6738458,21.5360502 17.6738458,21.653605 C17.6738458,21.8887147 17.6738458,22.0062696 17.8036812,22.2413793 C18.063352,22.8291536 18.7125291,23.1818182 19.3617062,23.1818182 C20.4003895,23.1818182 21.179402,22.476489 21.179402,21.5360502 C21.179402,21.3009404 21.179402,21.0658307 21.179402,20.9482759 C20.9197312,20.3605016 20.2705541,20.007837 19.4915416,20.007837 L19.4915416,20.007837 L19.7512124,20.007837 Z" id="Path3"></path>
        </g>
    </g>
</svg>