<?xml version="1.0" encoding="UTF-8"?>
<svg width="22px" height="22px" viewBox="0 0 22 22" version="1.1" xmlns="http://www.w3.org/2000/svg" xmlns:xlink="http://www.w3.org/1999/xlink">
    <title>Frame 2</title>
    <defs>
        <path d="M0,0 L22,0 L22,22 L0,22 L0,0 Z" id="path-1"></path>
    </defs>
    <g id="Frame-2" stroke="none" fill="none" xlink:href="#path-1" fill-rule="evenodd">
        <use fill="#FFFFFF" xlink:href="#path-1"></use>
        <g id="Layer_1" stroke-width="1" transform="translate(1, 1)" fill="#DF002E">
            <path d="M10,20 C8.645,20 7.36666667,19.405 6.49333333,18.3675 C5.21,18.515 3.8875,18.0291667 2.92916667,17.0716667 C1.97166667,16.1133333 1.48833333,14.7883333 1.60416667,13.4366667 C0.595,12.6333333 0,11.355 0,10 C0,8.645 0.595,7.36666667 1.63333333,6.49333333 C1.4875,5.2125 1.97083333,3.8875 2.92916667,2.92916667 C3.8875,1.97 5.21,1.4875 6.56333333,1.60416667 C7.36666667,0.595833333 8.645,0 10,0 C11.355,0 12.6333333,0.595 13.5066667,1.6325 C14.7916667,1.48583333 16.1125,1.97083333 17.0708333,2.92833333 C18.0283333,3.88666667 18.5116667,5.21166667 18.3958333,6.56333333 C19.405,7.36666667 20,8.645 20,10 C20,11.355 19.405,12.6333333 18.3666667,13.5066667 C18.5125,14.7875 18.0291667,16.1125 17.0708333,17.0708333 C16.1116667,18.0291667 14.7866667,18.5116667 13.4366667,18.3958333 C12.6333333,19.4041667 11.355,20 10,20 L10,20 Z M6.56083333,16.73 C7.02833333,16.73 7.46166667,16.9308333 7.7675,17.2933333 C8.32416667,17.9541667 9.1375,18.3333333 10,18.3333333 C10.8625,18.3333333 11.6758333,17.9541667 12.2325,17.2933333 C12.5683333,16.8941667 13.0575,16.6925 13.5791667,16.735 C14.4408333,16.8075 15.2825,16.5016667 15.8925,15.8916667 C16.5016667,15.2825 16.8091667,14.4391667 16.7358333,13.5783333 C16.6908333,13.0583333 16.8941667,12.5675 17.2941667,12.2308333 C17.9541667,11.675 18.3333333,10.8608333 18.3333333,9.99916667 C18.3333333,9.1375 17.9541667,8.32333333 17.2941667,7.7675 C16.895,7.43166667 16.6908333,6.94 16.7358333,6.42 C16.8091667,5.55916667 16.5025,4.71583333 15.8925,4.10666667 C15.2825,3.4975 14.4358333,3.19333333 13.58,3.26333333 C13.0583333,3.31083333 12.5683333,3.10416667 12.2325,2.70583333 C11.6758333,2.045 10.8625,1.66583333 10,1.66583333 C9.1375,1.66583333 8.32416667,2.045 7.7675,2.70583333 C7.43083333,3.105 6.94,3.305 6.42083333,3.26416667 C5.555,3.18916667 4.7175,3.4975 4.1075,4.1075 C3.49833333,4.71666667 3.19083333,5.56 3.26416667,6.42083333 C3.30916667,6.94083333 3.10583333,7.43166667 2.70583333,7.76833333 C2.04583333,8.32416667 1.66666667,9.13833333 1.66666667,10 C1.66666667,10.8616667 2.04583333,11.6758333 2.70583333,12.2316667 C3.105,12.5675 3.30916667,13.0591667 3.26416667,13.5791667 C3.19083333,14.44 3.4975,15.2833333 4.1075,15.8925 C4.7175,16.5025 5.56833333,16.8075 6.42,16.7358333 C6.4675,16.7316667 6.51416667,16.73 6.56083333,16.73 Z M7.5,6.66666667 C7.04,6.66666667 6.66666667,7.04 6.66666667,7.5 C6.66666667,7.96 7.04,8.33333333 7.5,8.33333333 C7.96,8.33333333 8.33333333,7.96 8.33333333,7.5 C8.33333333,7.04 7.96,6.66666667 7.5,6.66666667 Z M12.5,11.6666667 C12.04,11.6666667 11.6666667,12.04 11.6666667,12.5 C11.6666667,12.96 12.04,13.3333333 12.5,13.3333333 C12.96,13.3333333 13.3333333,12.96 13.3333333,12.5 C13.3333333,12.04 12.96,11.6666667 12.5,11.6666667 Z M9.02666667,12.9625 L12.36,7.9625 C12.6158333,7.58 12.5125,7.06166667 12.1291667,6.80666667 C11.745,6.55 11.2283333,6.655 10.9733333,7.0375 L7.64,12.0375 C7.38416667,12.42 7.4875,12.9383333 7.87083333,13.1933333 C8.01333333,13.2883333 8.17333333,13.3333333 8.3325,13.3333333 C8.60166667,13.3333333 8.86666667,13.2033333 9.02666667,12.9625 L9.02666667,12.9625 Z" id="Shape" fill-rule="nonzero"></path>
        </g>
    </g>
</svg>