<?xml version="1.0" encoding="UTF-8"?>
<svg width="60px" height="30px" viewBox="0 0 60 30" version="1.1" xmlns="http://www.w3.org/2000/svg" xmlns:xlink="http://www.w3.org/1999/xlink">
    <title>oxxo-logo copia 2</title>
    <g id="Page-1" stroke="none" stroke-width="1" fill="none" fill-rule="evenodd">
        <g id="oxxo-logo-copia-2" fill="#FFFFFF" fill-rule="nonzero">
            <path d="M0,3.29545455 C0,1.47727273 1.47448015,0 3.28922495,0 L56.5973535,0 C58.4120983,0 59.8865784,1.47727273 59.8865784,3.29545455 L59.8865784,3.29545455 C59.8865784,3.29545455 0,3.29545455 0,3.29545455 L0,3.29545455 Z M59.7731569,26.5909091 L59.7731569,26.5909091 C59.7731569,28.5227273 58.2986767,30 56.4839319,30 L3.28922495,30 C1.47448015,30 0,28.5227273 0,26.7045455 L0,26.7045455 C0,26.7045455 59.8865784,26.7045455 59.8865784,26.7045455 L59.7731569,26.5909091 Z" id="Shape"></path>
            <path d="M41.3988658,14.8863636 C41.3988658,19.4318182 45.1417769,23.1818182 49.7920605,23.1818182 C54.442344,23.1818182 58.1852552,19.4318182 58.1852552,14.8863636 C58.1852552,10.3409091 54.442344,6.59090909 49.7920605,6.59090909 C45.1417769,6.59090909 41.3988658,10.3409091 41.3988658,14.8863636 Z M1.47448015,14.8863636 C1.47448015,19.4318182 5.2173913,23.1818182 9.86767486,23.1818182 C14.5179584,23.1818182 18.2608696,19.4318182 18.2608696,14.8863636 C18.2608696,10.3409091 14.5179584,6.59090909 9.86767486,6.59090909 C5.2173913,6.59090909 1.47448015,10.3409091 1.47448015,14.8863636 L1.47448015,14.8863636 Z M59.7731569,25 L18.6011342,25 C19.3950851,24.4318182 20.0756144,23.75 20.7561437,22.8409091 L24.952741,17.5 L26.7674858,19.7727273 L28.8090737,17.0454545 L26.9943289,14.7727273 L31.3043478,9.31818182 C32.6654064,7.61363636 30.0567108,5.56818182 28.6956522,7.27272727 L24.952741,12.0454545 L21.0964083,7.15909091 C19.7353497,5.45454545 17.1266541,7.5 18.4877127,9.20454545 L22.7977316,14.6590909 L18.147448,20.6818182 C16.4461248,22.8409091 14.8582231,24.7727273 11.4555766,24.8863636 L0,24.8863636 L0,4.88636364 L41.0586011,4.88636364 C40.3780718,5.45454545 39.6975425,6.13636364 39.0170132,7.04545455 L34.8204159,12.3863636 L33.0056711,10.1136364 L30.9640832,12.8409091 L32.778828,15.1136364 L28.4688091,20.5681818 C27.1077505,22.2727273 29.7164461,24.3181818 31.0775047,22.6136364 L34.8204159,17.8409091 L38.6767486,22.7272727 C40.0378072,24.4318182 42.6465028,22.3863636 41.2854442,20.6818182 L36.9754253,15.2272727 L41.6257089,9.20454545 C43.2136106,7.27272727 44.6880907,5.45454545 47.5236295,5.11363636 L60,5.11363636 L60,25.1136364 L59.7731569,25 Z M44.8015123,14.8863636 C44.8015123,12.1590909 47.0699433,9.88636364 49.7920605,9.88636364 C52.5141777,9.88636364 54.7826087,12.1590909 54.7826087,14.8863636 C54.7826087,17.6136364 52.5141777,19.8863636 49.7920605,19.8863636 C47.0699433,19.8863636 44.8015123,17.6136364 44.8015123,14.8863636 Z M4.87712665,14.8863636 C4.87712665,12.1590909 7.14555766,9.88636364 9.86767486,9.88636364 C12.5897921,9.88636364 14.8582231,12.1590909 14.8582231,14.8863636 C14.8582231,17.6136364 12.5897921,19.8863636 9.86767486,19.8863636 C7.14555766,19.8863636 4.87712665,17.6136364 4.87712665,14.8863636" id="Shape1"></path>
        </g>
    </g>
</svg>