<?xml version="1.0" encoding="UTF-8"?>
<svg width="102px" height="102px" viewBox="0 0 102 102" version="1.1" xmlns="http://www.w3.org/2000/svg" xmlns:xlink="http://www.w3.org/1999/xlink">
    <title>paquete_icon</title>
    <defs>
        <path d="M0,0 L102,0 L102,102 L0,102 L0,0 Z" id="path-1"></path>
    </defs>
    <g id="paquete_icon" stroke="none" fill="none" xlink:href="#path-1" fill-rule="evenodd" stroke-width="1">
        <g id="Layer_1" transform="translate(12, 12)" fill="#0099D4">
            <path d="M39.0475171,79 L13.7391261,69.3120394 L13.3527384,68.654573 L13.2947803,44.5023518 L4.63969691,41.543753 C3.90556038,41.2150198 3.5578115,40.518879 3.75100532,39.7260518 L9.70137512,29.5159856 L0.486029685,20.2534444 C-0.65381388,18.4744177 0.37011339,17.8943003 1.91566399,17.3528574 C9.97184647,14.4909448 18.5303329,12.4798712 26.6058348,9.6372959 C32.3050526,-3.66672986 51.2573668,-3.10594971 55.816741,10.7588562 L78.5363348,17.9329748 L79,18.6291156 L79,19.5573035 L69.6107801,29.2259269 L79,39.0105737 L79,39.9387616 L78.5363348,40.6349024 L68.8380048,43.8255482 L68.7027691,68.7705965 L67.6208837,69.6987843 L39.9748474,79 L39.0475171,79 Z M39.9362087,3.08196925 C30.1992399,3.9714826 25.1955199,15.5544934 31.4936385,23.1733686 C37.0576207,29.9027305 47.683281,29.0132171 51.875587,21.3556674 C56.6281551,12.6925809 49.7697743,2.1924559 39.9362087,3.08196925 L39.9362087,3.08196925 Z M25.7751013,13.2340238 L4.50446124,19.7893504 L12.2901724,27.4275629 L27.3206519,22.4772277 C25.9876145,19.595978 25.2921168,16.385995 25.7751013,13.2146866 L25.7751013,13.2340238 Z M74.5179033,19.7120015 L56.4736001,14.2975724 C56.6088357,17.5462298 55.7781023,20.5435031 54.3098292,23.4054156 L66.7321921,27.4275629 L74.5179033,19.7120015 L74.5179033,19.7120015 Z M62.1921373,29.1292406 L52.3972104,25.9385949 C46.1184111,32.3585608 36.3428035,32.4745843 29.9480879,26.1126301 C29.6776166,25.8419087 29.3685065,25.1264306 28.9821188,25.1264306 C25.1375617,26.5767241 21.0032139,27.6015981 17.1779761,29.0712289 C13.3527384,30.5408596 16.7722691,28.9938799 16.8302272,29.3419503 L39.5691404,36.8448021 L61.9603047,29.4386366 L62.1728179,29.1099034 L62.1921373,29.1292406 Z M37.1928564,39.3199697 L12.4447274,31.120977 L7.57624305,39.3006324 L32.3050526,47.499625 L37.1928564,39.3006324 L37.1928564,39.3199697 Z M74.5179033,38.8558757 L66.7321921,31.1403143 L42.1386183,39.3973187 L48.2435431,47.0548684 L74.5372227,38.8558757 L74.5179033,38.8558757 Z M65.7275843,44.8697595 C65.515071,44.8504222 65.3025578,44.8890967 65.109364,44.9471085 C60.1636021,46.0493315 54.6575781,48.4664874 49.653858,49.8587691 C48.8038052,50.0908161 47.7991973,50.5742473 46.9491445,50.1681651 L41.0374135,43.032721 L41.0374135,75.3065859 L65.7275843,67.1269305 L65.7275843,44.8890967 L65.7275843,44.8697595 Z M37.9656317,75.1325506 L37.9656317,44.2509676 L34.2369908,50.3228631 L33.0971473,50.9029805 L16.3665621,45.4885514 L16.3665621,67.0302443 L37.9656317,75.1325506 Z" id="Shape" fill-rule="nonzero"></path>
            <path d="M23.7272468,63.5882143 C24.1136344,63.5108654 24.3261476,63.5495398 24.6932159,63.6268888 C26.0842114,63.9362848 32.7493984,66.4694641 33.9472001,67.165605 C35.6859445,68.2098163 34.7392948,70.4142624 32.8266759,69.988843 C30.0833236,68.6158985 26.1035308,67.9197576 23.4954142,66.5081386 C20.8872976,65.0965196 22.2396543,63.878273 23.7079274,63.5688771 L23.7272468,63.5882143 Z" id="Path" fill-rule="nonzero"></path>
            <path d="M28.7696056,59.5854043 C29.0014382,59.3340201 29.6582972,59.0826358 29.9867267,59.1019731 C30.5276694,59.1406476 34.1017552,60.4942549 34.4301847,60.8423253 C35.3381956,61.8091876 34.7199754,63.4141791 33.4255768,63.4721909 C32.1311782,63.5302026 29.1173545,62.0992463 28.7116475,61.6158152 C28.3059404,61.132384 28.3059404,60.0688354 28.7696056,59.5854043 L28.7696056,59.5854043 Z" id="Path" fill-rule="nonzero"></path>
            <path d="M23.7272468,57.1102367 C25.2921168,56.7815035 26.4319603,59.0246241 24.8284516,59.9334747 C22.6840001,61.1517212 21.6214341,57.5549934 23.7272468,57.1102367 L23.7272468,57.1102367 Z" id="Path" fill-rule="nonzero"></path>
            <path d="M48.4174176,9.25055097 C49.8663713,8.92181777 50.9868954,10.816868 49.8277325,11.8997538 C46.8332282,14.6069683 44.0512371,18.261708 40.9794553,20.8142245 C39.9168893,21.7037379 39.4725435,21.9164476 38.2940612,21.0269342 C37.7144797,20.6015148 35.2995569,18.1650217 35.0677243,17.6235788 C34.5074622,16.308646 35.7052639,15.0323877 36.9996625,15.5351562 C38.2940612,16.0379246 38.6997682,17.3141829 39.3566272,17.6622533 C40.0134862,18.0103237 39.549821,17.7589395 39.6657373,17.6622533 L47.2968934,10.0047036 C47.5673647,9.77265663 48.0889881,9.3472372 48.4174176,9.26988821 L48.4174176,9.25055097 Z" id="Path" fill-rule="nonzero"></path>
        </g>
    </g>
</svg>