<?xml version="1.0" encoding="UTF-8"?>
<svg id="Capa_1" xmlns="http://www.w3.org/2000/svg" version="1.1" viewBox="0 0 35 35">
  <!-- Generator: Adobe Illustrator 29.6.1, SVG Export Plug-In . SVG Version: 2.1.1 Build 9)  -->
  <defs>
    <style>
      .st0 {
        fill: #0099d4;
        fill-rule: evenodd;
      }
    </style>
  </defs>
  <g id="Stack">
    <path id="Fill-4-Copy" class="st0" d="M9.2,14c-1.7.2-3,1.5-3.1,3.2-.3,3.7.2,7.9,0,11.6.2,1.7,1.5,3,3.3,3.2,6,0,12,.1,18-.1,1.4-.4,2.4-1.6,2.6-3,.3-3.7-.3-7.9,0-11.7-.2-1.8-1.5-3-3.3-3.2H9.2ZM24,11c0-2,.2-3.9-1.1-5.6-2.3-3.2-7.4-3.2-9.8,0-1.3,1.7-1.1,3.7-1.1,5.7h12ZM26.4,11.8c.2.1.5,0,.8,0,2.7.5,4.6,2.6,4.8,5.2-.2,3.8.3,7.8,0,11.6-.2,2.8-2.4,5.1-5.2,5.3H9.2c-2.7-.3-4.9-2.4-5.1-5.1-.3-4,.2-8.5,0-12.5.4-2.1,2.1-3.9,4.3-4.4.4,0,.8,0,1.2-.2,0-2.5-.1-4.7,1.2-6.9C13.8.1,20.8-.4,24.5,4c1.9,2.3,2,5,1.9,7.9h0Z"/>
  </g>
</svg>