<?xml version="1.0" encoding="UTF-8"?>
<svg width="126px" height="30px" viewBox="0 0 126 30" version="1.1" xmlns="http://www.w3.org/2000/svg" xmlns:xlink="http://www.w3.org/1999/xlink">
    <title>paypal copia 2</title>
    <g id="Page-1" stroke="none" stroke-width="1" fill="none" fill-rule="evenodd">
        <g id="paypal-copia-2" fill="#FFFFFF">
            <path d="M47.5560535,5.71428571 L40.6828672,5.71428571 C40.1829991,5.71428571 39.808098,6.08494208 39.808098,6.45559846 L37.0588235,23.6293436 C37.0588235,23.7528958 37.0588235,24 37.1837906,24.1235521 C37.1837906,24.2471042 37.4337246,24.3706564 37.5586916,24.3706564 L40.8078342,24.3706564 C41.3077023,24.3706564 41.6826034,24 41.6826034,23.6293436 L42.4324055,18.9343629 C42.4324055,18.4401544 42.9322736,18.1930502 43.3071747,18.1930502 L45.4316141,18.1930502 C49.9304269,18.1930502 52.5547344,16.0926641 53.1795696,11.7683398 C53.4295036,9.91505792 53.1795696,8.43243243 52.3048004,7.44401544 C51.3050642,6.33204633 49.6804929,5.71428571 47.3061195,5.71428571 M48.3058556,12.015444 C47.9309546,14.3629344 46.0564492,14.3629344 44.3069109,14.3629344 L43.3071747,14.3629344 L44.0569768,9.91505792 C44.0569768,9.66795367 44.3069109,9.42084942 44.5568449,9.42084942 L45.056713,9.42084942 C46.3063833,9.42084942 47.4310865,9.42084942 48.0559216,10.1621622 C48.4308227,10.5328185 48.5557897,11.1505792 48.4308227,12.015444 M67.9256783,11.8918919 L64.6765357,11.8918919 C64.4266017,11.8918919 64.1766676,12.1389961 64.1766676,12.3861004 L64.1766676,13.2509653 C64.0517006,13.2509653 63.8017665,12.8803089 63.8017665,12.8803089 C63.0519644,11.8918919 61.5523601,11.5212355 59.9277888,11.5212355 C56.3037451,11.5212355 53.3045366,14.2393822 52.6797015,17.9459459 C52.4297674,19.7992278 52.8046685,21.6525097 53.9293717,22.8880309 C54.9291079,24 56.3037451,24.4942085 58.0532835,24.4942085 C60.927525,24.4942085 62.5520963,22.6409266 62.5520963,22.6409266 L62.5520963,23.5057915 C62.4271293,23.6293436 62.5520963,23.8764479 62.5520963,24 C62.5520963,24.1235521 62.8020304,24.2471042 62.9269974,24.2471042 L65.9262059,24.2471042 C66.426074,24.2471042 66.8009751,23.8764479 66.8009751,23.5057915 L68.5505134,12.5096525 C68.5505134,12.3861004 68.5505134,12.1389961 68.4255464,12.015444 C68.4255464,11.8918919 68.1756124,11.7683398 68.0506453,11.7683398 M63.4268655,18.1930502 C63.0519644,20.046332 61.6773271,21.2818533 59.8028218,21.2818533 C57.9283164,21.2818533 58.0532835,21.034749 57.5534154,20.4169884 C57.0535473,19.7992278 56.9285803,19.0579151 57.0535473,18.1930502 C57.3034813,16.3397683 58.8030856,15.1042471 60.677591,15.1042471 C62.5520963,15.1042471 62.3021623,15.3513514 62.8020304,15.969112 C63.3018984,16.5868726 63.5518325,17.3281853 63.3018984,18.1930502 M85.2960946,11.8918919 L82.046952,11.8918919 C81.6720509,11.8918919 81.4221168,12.015444 81.2971498,12.2625483 L76.798337,18.8108108 L74.9238316,12.5096525 C74.9238316,12.1389961 74.4239635,11.8918919 74.0490625,11.8918919 L70.7999199,11.8918919 C70.6749528,11.8918919 70.4250188,11.8918919 70.3000518,12.1389961 C70.3000518,12.2625483 70.1750847,12.5096525 70.3000518,12.6332046 L73.9240954,23.011583 L70.5499858,27.7065637 C70.5499858,27.8301158 70.4250188,28.0772201 70.5499858,28.3243243 C70.5499858,28.5714286 70.7999199,28.5714286 71.0498539,28.5714286 L74.2989965,28.5714286 C74.5489306,28.5714286 74.9238316,28.4478764 75.0487987,28.2007722 L85.9209297,12.7567568 C85.9209297,12.6332046 86.0458967,12.3861004 85.9209297,12.1389961 C85.9209297,12.015444 85.6709956,11.8918919 85.4210616,11.8918919" id="Fill-1"></path>
            <path d="M96.7520362,5.71428571 L89.6966063,5.71428571 C89.1834842,5.71428571 88.7986425,6.08082707 88.7986425,6.44736842 L85.9764706,23.4304511 C85.9764706,23.5526316 85.9764706,23.7969925 86.1047511,23.9191729 C86.1047511,24.0413534 86.3613122,24.1635338 86.4895928,24.1635338 L90.081448,24.1635338 C90.4662896,24.1635338 90.7228507,23.9191729 90.7228507,23.674812 L91.4925339,18.9097744 C91.4925339,18.4210526 92.0056561,18.1766917 92.3904977,18.1766917 L94.571267,18.1766917 C99.1893665,18.1766917 101.883258,16.0996241 102.524661,11.8233083 C102.781222,9.9906015 102.524661,8.52443609 101.626697,7.54699248 C100.600452,6.44736842 98.9328054,5.83646617 96.4954751,5.83646617 M97.5217195,11.9454887 C97.1368778,14.2669173 95.2126697,14.2669173 93.4167421,14.2669173 L92.3904977,14.2669173 L93.160181,9.86842105 C93.160181,9.62406015 93.4167421,9.37969925 93.6733032,9.37969925 L94.1864253,9.37969925 C95.4692308,9.37969925 96.6237557,9.37969925 97.2651584,10.112782 C97.65,10.4793233 97.7782805,11.0902256 97.65,11.9454887 M117.661765,11.8233083 L114.326471,11.8233083 C114.06991,11.8233083 113.813348,12.0676692 113.813348,12.3120301 L113.813348,13.1672932 C113.685068,13.1672932 113.428507,12.8007519 113.428507,12.8007519 C112.658824,11.8233083 111.119457,11.4567669 109.45181,11.4567669 C105.731674,11.4567669 102.652941,14.1447368 102.011538,17.8101504 C101.754977,19.6428571 102.139819,21.4755639 103.294344,22.6973684 C104.320588,23.7969925 105.731674,24.2857143 107.527602,24.2857143 C110.478054,24.2857143 112.145701,22.4530075 112.145701,22.4530075 L112.145701,23.3082707 C112.017421,23.4304511 112.145701,23.674812 112.145701,23.7969925 C112.145701,23.9191729 112.402262,24.0413534 112.530543,24.0413534 L115.609276,24.0413534 C116.122398,24.0413534 116.50724,23.674812 116.50724,23.3082707 L118.303167,12.4342105 C118.303167,12.3120301 118.303167,12.0676692 118.174887,11.9454887 C118.174887,11.8233083 117.918326,11.7011278 117.790045,11.7011278 M113.043665,18.0545113 C112.658824,19.887218 111.247738,21.1090226 109.323529,21.1090226 C107.399321,21.1090226 107.527602,20.8646617 107.01448,20.2537594 C106.501357,19.6428571 106.373077,18.9097744 106.501357,18.0545113 C106.757919,16.2218045 108.297285,15 110.221493,15 C112.145701,15 111.88914,15.2443609 112.402262,15.8552632 C112.915385,16.4661654 113.171946,17.1992481 112.915385,18.0545113 M121.638462,6.20300752 L118.81629,23.5526316 C118.81629,23.674812 118.81629,23.9191729 118.94457,24.0413534 C118.94457,24.1635338 119.201131,24.2857143 119.329412,24.2857143 L122.279864,24.2857143 C122.792986,24.2857143 123.177828,23.9191729 123.177828,23.5526316 L126,6.56954887 C126,6.44736842 126,6.20300752 125.871719,6.08082707 C125.871719,5.95864662 125.615158,5.83646617 125.486878,5.83646617 L122.279864,5.83646617 C122.023303,5.83646617 121.766742,6.08082707 121.766742,6.32518797" id="Fill-3"></path>
            <path d="M25.3226793,8.73185638 C24.9495353,8.36516425 24.4520099,7.99847212 23.9544845,7.7540107 C23.5813404,7.63177998 23.3325777,7.50954927 22.9594337,7.38731856 C22.9594337,7.38731856 22.9594337,7.38731856 22.9594337,7.38731856 C22.9594337,7.38731856 22.9594337,7.38731856 22.9594337,7.38731856 C22.8350523,7.38731856 22.710671,7.38731856 22.5862896,7.38731856 C22.2131456,7.38731856 21.9643828,7.26508785 21.5912388,7.14285714 C21.5912388,7.14285714 21.5912388,7.14285714 21.5912388,7.14285714 C21.3424761,7.14285714 21.0937134,7.14285714 20.969332,7.14285714 C20.8449507,7.14285714 20.596188,7.14285714 20.4718066,7.14285714 C20.0986626,7.14285714 19.6011372,7.14285714 19.2279931,7.14285714 L11.8894934,7.14285714 C11.765112,7.14285714 11.5163493,7.14285714 11.391968,7.26508785 C11.0188239,7.38731856 10.7700612,7.7540107 10.7700612,8.12070283 L7.90929011,25.7219251 L7.90929011,26.6997708 C7.78490876,26.6997708 7.41176471,29.144385 7.41176471,29.144385 C7.41176471,29.3888464 7.41176471,29.5110772 7.53614606,29.7555386 C7.66052741,29.8777693 7.90929011,30 8.03367146,30 L12.8845442,30 C13.5064509,30 14.0039763,29.6333079 14.0039763,29.0221543 L14.0039763,28.7776929 C14.0039763,28.7776929 14.9990272,23.1550802 14.9990272,23.1550802 L14.9990272,22.7883881 C15.1234085,22.1772345 15.6209339,21.8105424 16.2428407,21.8105424 L16.9891288,21.8105424 C21.7156201,21.8105424 25.3226793,19.9770817 26.4421115,14.5989305 C26.9396369,12.3987777 26.6908742,10.4430863 25.4470607,9.09854851" id="Fill-17"></path>
            <path d="M22.4081505,2.17303823 C20.9833548,0.60362173 18.3928172,0 15.0251183,0 L5.31060214,0 C4.66296774,0 4.01533333,0.482897384 3.88580645,1.08651911 L0,24.8692153 C0,25.110664 0,25.3521127 0.129526882,25.472837 C0.259053763,25.5935614 0.518107526,25.7142857 0.777161289,25.7142857 L6.73539784,25.7142857 L6.73539784,24.7484909 C6.86492472,24.7484909 8.28972042,16.9014085 8.28972042,16.9014085 L9.844043,7.36418511 C9.844043,7.00201207 10.2326236,6.63983903 10.4916774,6.51911469 C10.6212043,6.51911469 10.8802581,6.39839034 11.0097849,6.39839034 L18.6518709,6.39839034 C19.0404516,6.39839034 19.5585591,6.39839034 19.9471398,6.39839034 C20.0766666,6.39839034 20.3357204,6.39839034 20.4652473,6.39839034 C20.724301,6.39839034 20.9833548,6.39839034 21.1128817,6.39839034 C21.1128817,6.39839034 21.1128817,6.39839034 21.1128817,6.39839034 C21.5014623,6.39839034 21.7605161,6.51911469 22.1490967,6.63983903 C22.1490967,6.63983903 22.1490967,6.63983903 22.2786236,6.63983903 C22.2786236,6.63983903 22.4081505,6.63983903 22.5376774,6.63983903 C22.5376774,6.63983903 22.5376774,6.63983903 22.5376774,6.63983903 C22.5376774,6.63983903 22.5376774,6.63983903 22.5376774,6.63983903 C22.926258,6.63983903 23.1853118,6.88128773 23.5738924,7.00201207 C23.9624731,4.7082495 23.5738924,3.25955734 22.2786236,1.81086519" id="Fill-20"></path>
        </g>
    </g>
</svg>