<?xml version="1.0" encoding="UTF-8"?>
<svg width="20px" height="20px" viewBox="0 0 20 20" version="1.1" xmlns="http://www.w3.org/2000/svg" xmlns:xlink="http://www.w3.org/1999/xlink">
    <title>phone_icon</title>
    <defs>
        <path d="M0,0 L20,0 L20,20 L0,20 L0,0 Z" id="path-1"></path>
    </defs>
    <g id="phone_icon" stroke="none" fill="none" xlink:href="#path-1" fill-rule="evenodd" stroke-width="1">
        <g id="Layer_1" transform="translate(9.875, 9.875) scale(-1, 1) translate(-9.875, -9.875)" fill="#0099D4">
            <path d="M18.244304,1.4951838 L17.38038,0.746563574 C16.3848105,-0.248854525 14.7721525,-0.248854525 13.776583,0.746563574 C13.7518994,0.771243361 12.2297477,2.75385296 12.2297477,2.75385296 C11.2917731,3.74104447 11.2917731,5.29587108 12.2297477,6.27483599 L13.184178,7.47591898 C11.9829123,10.1989222 10.115191,12.0745861 7.48227988,13.1934031 L6.2810142,12.2308914 C5.30190039,11.2848329 3.73860943,11.2848329 2.75949561,12.2308914 C2.75949561,12.2308914 0.776584449,13.7528116 0.751900907,13.7774914 C-0.243668599,14.7729095 -0.243668599,16.3853223 0.710761672,17.3396074 L1.53354639,18.2856659 C2.47974881,19.2317245 3.75506512,19.75 5.13734344,19.75 C11.4234187,19.75 19.75,11.4164584 19.75,5.13956576 C19.75,3.76572425 19.2316456,2.4823753 18.244304,1.50341039 L18.244304,1.4951838 Z M5.13734344,18.0964542 C4.19936887,18.0964542 3.33544492,17.7509372 2.74303992,17.1503957 L1.9202552,16.2043372 C1.58291347,15.8670468 1.56645778,15.3158648 1.88734382,14.9621212 C1.88734382,14.9621212 3.85379929,13.4484276 3.87848283,13.4237478 C4.21582456,13.0864574 4.80822956,13.0864574 5.15379914,13.4237478 C5.17848268,13.4484276 6.83227996,14.7729095 6.83227996,14.7729095 C7.06265968,14.9538946 7.36709002,15.0032542 7.63860898,14.8963084 C11.0449377,13.5965063 13.4886083,11.1614339 14.8955702,7.6486775 C15.0025322,7.37719983 14.961393,7.06458919 14.7721525,6.82601791 C14.7721525,6.82601791 13.4474691,5.16424555 13.4310134,5.14779236 C13.077216,4.79404873 13.077216,4.22641362 13.4310134,3.87267 C13.4556969,3.84799021 14.9696208,1.8818338 14.9696208,1.8818338 C15.3234182,1.56099656 15.874684,1.56922316 16.253165,1.94764657 L17.1170889,2.69626679 C17.7506331,3.32971467 18.1044306,4.19350724 18.1044306,5.13133916 C18.1044306,10.8570499 10.0658239,18.0964542 5.13734344,18.0964542 Z" id="Shape" fill-rule="nonzero"></path>
        </g>
    </g>
</svg>