<?xml version="1.0" encoding="UTF-8"?>
<svg width="30px" height="30px" viewBox="0 0 30 30" version="1.1" xmlns="http://www.w3.org/2000/svg" xmlns:xlink="http://www.w3.org/1999/xlink">
    <title>search_icon</title>
    <defs>
        <path d="M0,0 L30,0 L30,30 L0,30 L0,0 Z" id="path-1"></path>
    </defs>
    <g id="search_icon" stroke="none" fill="none" xlink:href="#path-1" fill-rule="nonzero">
        <path d="M24.3761902,12.185715 C24.3761902,14.8747742 23.5031007,17.3587853 22.0323258,19.3741151 L29.4506568,26.7968559 C30.1831144,27.5291705 30.1831144,28.7184494 29.4506568,29.450764 C28.7181991,30.1830787 27.5286879,30.1830787 26.7962303,29.450764 L19.3778993,22.0280232 C17.3621759,23.5043695 14.8776796,24.37143 12.1880951,24.37143 C5.4553445,24.37143 0,18.9171508 0,12.185715 C0,5.45427916 5.4553445,0 12.1880951,0 C18.9208457,0 24.3761902,5.45427916 24.3761902,12.185715 Z M12.1880951,20.6219792 C15.2026708,20.6219792 17.9882535,19.0140364 19.4955414,16.4038471 C21.0028292,13.7936579 21.0028292,10.5777721 19.4955414,7.96758284 C17.9882535,5.35739359 15.2026708,3.74945076 12.1880951,3.74945076 C7.527965,3.74945076 3.75018311,7.52649491 3.75018311,12.185715 C3.75018311,16.8449351 7.527965,20.6219792 12.1880951,20.6219792 L12.1880951,20.6219792 Z" id="Shape-Copy" fill="#0099D4"></path>
    </g>
</svg>