<?xml version="1.0" encoding="UTF-8"?>
<svg width="102px" height="102px" viewBox="0 0 102 102" version="1.1" xmlns="http://www.w3.org/2000/svg" xmlns:xlink="http://www.w3.org/1999/xlink">
    <title>tarjeta_icon</title>
    <defs>
        <path d="M0,0 L102,0 L102,102 L0,102 L0,0 Z" id="path-1"></path>
    </defs>
    <g id="tarjeta_icon" stroke="none" fill="none" xlink:href="#path-1" fill-rule="evenodd" stroke-width="1">
        <g id="Layer_1" transform="translate(14, 14)" fill="#0099D4">
            <path d="M74.4435564,29.5150664 L74.4435564,31.118354 L73.4053175,33.9241072 C61.3289588,46.4589009 48.8154468,58.5928726 36.556941,70.9636937 L36.3383644,71.4009539 L53.278053,71.4009539 C53.3873413,71.4009539 54.0795006,72.0750635 54.1341448,72.2754744 C54.4984392,73.3139675 53.9519976,74.0245154 53.0594764,74.4435564 L21.3658654,74.4435564 C20.4733441,74.0062962 19.9269026,73.2957483 20.2911969,72.2754744 C20.6554913,71.2552005 21.0380004,71.4009539 21.1472887,71.4009539 L24.2802204,71.4009539 L24.0616438,70.9636937 L1.58468055,48.4994487 C-0.52822685,45.8941064 -0.52822685,42.3778053 1.58468055,39.772463 L39.7627315,1.58506838 C42.3674363,-0.528356127 45.8646624,-0.528356127 48.4875819,1.58506838 C56.775279,9.98410889 65.2997675,18.1463001 73.4053175,26.691094 L73.8424707,27.5656145 L74.4435564,29.5150664 Z M19.2165285,50.7039691 C18.5972281,50.1391746 18.6154428,48.9913664 19.2347432,48.426572 L55.0813102,12.571232 L46.3564598,3.84424631 C44.9357117,2.80575323 42.9503073,2.82397241 41.6388476,4.04465725 C28.9796179,16.8709577 15.9925233,29.4421897 3.49722604,42.4142436 C2.82328144,43.8353394 3.00542863,45.3110927 3.97080874,46.5317776 C4.93618884,47.7524624 5.6647776,48.2808185 5.79228063,48.3536953 C5.91978367,48.426572 5.97442782,48.4447911 6.08371614,48.3536953 L41.7117064,12.6987662 C43.168884,11.3141088 45.3546502,13.0267114 44.1160494,14.6664373 L8.28769713,50.5582156 L8.41520017,50.9772567 L27.9049495,70.4717759 C29.3256975,71.6378032 31.4203902,71.6742416 32.7864942,70.3988992 C45.4639386,57.5361604 58.5238921,44.9831475 70.9827598,31.9382169 C71.5838456,30.5171212 71.4016984,29.1142445 70.454533,27.9117789 L57.230647,14.8304099 L21.5115831,50.5399965 C20.9833563,51.1594485 19.7993995,51.2505444 19.2347432,50.7039691 L19.2165285,50.7039691 Z" id="Shape" fill-rule="nonzero"></path>
            <path d="M57.5402972,23.4298614 C58.396389,23.2112313 58.7971128,23.4662997 59.3981986,23.9764367 C60.4000081,24.7962996 62.7679216,27.1283543 63.5329398,28.130409 C64.297958,29.1324637 64.1340255,29.7154774 63.387222,30.608217 C62.1121917,32.1750662 58.6878245,35.6184907 57.1395734,36.8573947 C55.5913223,38.0962987 55.5913223,37.6043809 54.6623716,36.8573947 C53.733421,36.1104084 51.3108633,33.7054771 50.5094157,32.7034224 C49.7079681,31.7013676 49.7990417,31.1001348 50.5822746,30.1527376 C51.9119491,28.5312309 55.1541691,25.3064366 56.7570643,23.9764367 C58.3599596,22.6464368 57.2852912,23.5027381 57.5220825,23.4298614 L57.5402972,23.4298614 Z M57.9592358,27.201231 L53.8062798,31.3552033 C53.733421,31.6467101 55.5548929,33.5050662 55.7916842,33.5597237 C56.0284756,33.6143812 56.0831197,33.5597237 56.2106228,33.4321894 C56.7024202,32.6487648 60.0357137,29.9523267 60.1814315,29.3875322 C60.3271492,28.8227377 60.1632168,29.1142445 60.0539285,28.9684911 C59.9446401,28.8227377 58.5603215,27.4198611 58.3781743,27.2923269 C58.1960271,27.1647926 58.1595977,27.1101351 57.9592358,27.1647926 L57.9592358,27.201231 Z" id="Shape" fill-rule="nonzero"></path>
            <path d="M36.7390882,44.3819147 C38.0323332,44.0904079 39.2162899,45.6208187 38.3784129,46.7504077 L25.7920421,59.3398589 C24.1891468,60.4512287 22.5316074,58.3924617 23.8248524,56.9349275 C27.9049495,53.3821881 31.566108,48.4812295 35.6644197,45.0742434 C39.7627315,41.6672574 36.4112232,44.4547914 36.7208735,44.3819147 L36.7390882,44.3819147 Z" id="Path" fill-rule="nonzero"></path>
            <path d="M33.8247331,56.0239687 C35.4458431,55.6595852 36.3383644,57.1717768 35.4458431,58.5199959 C34.5533219,59.868215 30.9468075,63.2569819 30.2728629,63.6760229 C28.7246118,64.6780777 27.1763607,63.2752011 27.9778083,61.6719135 C29.1071209,60.8520505 32.8411383,56.2425988 33.8247331,56.0239687 Z" id="Path" fill-rule="nonzero"></path>
            <path d="M37.1215973,54.6210921 C35.646205,53.1089004 38.7427073,50.0116403 40.1270259,51.9793114 C41.2927679,53.6372565 38.5241306,56.0421879 37.1215973,54.6210921 Z" id="Path" fill-rule="nonzero"></path>
            <path d="M17.8139952,52.1068457 C19.1072402,53.4550648 16.7393267,56.2425988 15.100002,55.0401331 C13.4606773,53.8376675 16.2293146,50.4306814 17.8139952,52.1068457 Z" id="Path" fill-rule="nonzero"></path>
            <path d="M47.1943369,7.88890356 C48.5057966,7.87068438 49.1068824,9.36465688 48.3965083,10.3849308 C47.6861343,11.4052047 46.6114659,12.1157526 45.5732269,11.3141088 C44.1524788,10.202739 45.7553741,7.92534191 47.1761221,7.88890356 L47.1943369,7.88890356 Z" id="Path" fill-rule="nonzero"></path>
        </g>
    </g>
</svg>