<?xml version="1.0" encoding="UTF-8"?>
<svg width="581px" height="60px" viewBox="0 0 581 60" version="1.1" xmlns="http://www.w3.org/2000/svg" xmlns:xlink="http://www.w3.org/1999/xlink">
    <title>Group</title>
    <g id="Page-1" stroke="none" stroke-width="1" fill="none" fill-rule="evenodd">
        <g id="FORMULARIO" transform="translate(-509, -272)">
            <g id="text" transform="translate(427, 264)" fill-rule="nonzero">
                <g id="title" transform="translate(11, 0)">
                    <g id="Group" transform="translate(70, 0)">
                        <g id="¿Compras" transform="translate(0, 3)" fill="#000000" fill-opacity="0.901797421">
                            <path d="M14.204,49.53 C18.338,49.53 22.313,48.417 25.069,46.456 L25.069,38.612 L24.698,38.612 C22.048,41.368 18.232,42.958 14.204,42.958 C10.812,42.958 8.798,41.421 8.798,38.877 C8.798,35.856 11.501,34.16 18.603,32.676 L18.603,25.15 L11.819,25.15 L11.819,28.383 C4.452,30.768 1.325,34.001 1.325,39.248 C1.325,45.661 6.201,49.53 14.204,49.53 Z M15.211,22.023 C17.702,22.023 19.61,20.115 19.61,17.624 C19.61,15.133 17.702,13.278 15.211,13.278 C12.72,13.278 10.865,15.133 10.865,17.624 C10.865,20.115 12.72,22.023 15.211,22.023 Z" id="Forma"></path>
                            <path d="M46.799,13.278 C35.563,13.278 27.984,20.804 27.984,31.404 C27.984,42.004 35.563,49.53 46.799,49.53 C51.622,49.53 54.802,48.629 57.611,46.774 L57.611,38.188 L57.24,38.188 C55.014,41.05 51.41,42.534 47.17,42.534 C40.386,42.534 35.934,38.082 35.934,31.404 C35.934,24.726 40.386,20.274 47.17,20.274 C51.463,20.274 55.014,21.811 57.24,24.62 L57.611,24.62 L57.611,16.034 C54.802,14.126 51.675,13.278 46.799,13.278 Z" id="Trazado"></path>
                            <path d="M75.101,23.56 C67.257,23.56 61.745,28.913 61.745,36.545 C61.745,44.124 67.257,49.53 75.101,49.53 C82.892,49.53 88.404,44.124 88.404,36.545 C88.404,28.913 82.892,23.56 75.101,23.56 Z M75.101,29.708 C78.811,29.708 81.408,32.517 81.408,36.545 C81.408,40.573 78.811,43.382 75.101,43.382 C71.338,43.382 68.741,40.573 68.741,36.545 C68.741,32.517 71.338,29.708 75.101,29.708 Z" id="Forma"></path>
                            <path d="M122.536,23.56 C118.508,23.56 115.911,24.885 114.374,27.641 L114.268,27.641 C112.731,24.991 110.028,23.56 106.689,23.56 C103.297,23.56 100.806,24.938 99.375,27.429 L99.269,27.429 L99.004,24.09 L93.227,24.09 L93.227,49 L100.17,49 L100.17,35.644 C100.17,31.775 101.76,29.708 104.834,29.708 C107.59,29.708 109.074,31.51 109.074,34.955 L109.074,49 L116.017,49 L116.017,36.174 C116.017,31.775 117.607,29.708 120.681,29.708 C123.384,29.708 124.868,31.51 124.868,34.955 L124.868,49 L131.811,49 L131.811,34.16 C131.811,27.376 128.472,23.56 122.536,23.56 Z" id="Trazado"></path>
                            <path d="M151.739,23.56 C148.029,23.56 145.22,24.938 143.63,27.376 L143.524,27.376 L143.259,24.09 L137.482,24.09 L137.482,59.07 L144.425,59.07 L144.425,46.827 L144.531,46.827 C146.227,48.576 148.665,49.53 151.739,49.53 C158.788,49.53 163.929,44.071 163.929,36.545 C163.929,29.019 158.788,23.56 151.739,23.56 Z M150.573,43.382 C146.81,43.382 144.266,40.573 144.266,36.545 C144.266,32.517 146.81,29.708 150.573,29.708 C154.389,29.708 156.933,32.517 156.933,36.545 C156.933,40.573 154.389,43.382 150.573,43.382 Z" id="Forma"></path>
                            <path d="M182.267,23.56 C178.663,23.56 176.225,25.044 174.847,27.959 L174.741,27.959 L174.423,24.09 L168.646,24.09 L168.646,49 L175.589,49 L175.589,38.294 C175.589,32.729 177.497,30.132 181.737,30.132 C183.274,30.132 184.599,30.556 185.659,31.298 L185.924,31.298 L185.924,24.514 C185.182,23.931 183.857,23.56 182.267,23.56 Z" id="Trazado"></path>
                            <path d="M214.544,49 L214.544,24.09 L208.767,24.09 L208.502,27.323 L208.396,27.323 C206.806,24.938 203.997,23.56 200.34,23.56 C193.291,23.56 188.15,29.019 188.15,36.545 C188.15,44.071 193.291,49.53 200.34,49.53 C204.05,49.53 206.806,48.099 208.449,45.661 L208.555,45.661 L208.767,49 L214.544,49 Z M201.506,43.382 C197.743,43.382 195.146,40.573 195.146,36.545 C195.146,32.517 197.743,29.708 201.506,29.708 C205.216,29.708 207.813,32.517 207.813,36.545 C207.813,40.573 205.216,43.382 201.506,43.382 Z" id="Forma"></path>
                            <path d="M229.967,23.56 C223.66,23.56 219.579,26.793 219.579,31.828 C219.579,36.757 222.07,38.665 228.377,39.248 C231.875,39.566 232.935,40.096 232.935,41.421 C232.935,43.011 231.61,43.806 228.907,43.806 C225.038,43.806 222.07,42.746 220.109,40.626 L219.791,40.626 L219.791,47.304 C221.911,48.788 225.091,49.53 229.225,49.53 C235.638,49.53 239.454,46.509 239.454,41.421 C239.454,36.174 236.857,33.842 230.232,33.418 C226.946,33.206 226.098,32.729 226.098,31.616 C226.098,30.079 227.423,29.284 230.126,29.284 C233.359,29.284 235.903,30.132 237.546,31.775 L237.811,31.775 L237.811,25.15 C235.85,24.143 232.988,23.56 229.967,23.56 Z" id="Trazado"></path>
                        </g>
                        <g transform="translate(254.5, 0)">
                            <g id="?" transform="translate(302, 0)" fill="#000000" fill-opacity="0.901797421">
                                <path d="M12.137,13.278 C8.003,13.278 4.028,14.391 1.272,16.352 L1.272,24.196 L1.643,24.196 C4.293,21.44 8.109,19.85 12.137,19.85 C15.529,19.85 17.543,21.387 17.543,23.931 C17.543,26.952 14.84,28.648 7.738,30.132 L7.738,37.658 L14.522,37.658 L14.522,34.425 C21.889,32.04 25.016,28.807 25.016,23.56 C25.016,17.147 20.14,13.278 12.137,13.278 Z M11.13,40.785 C8.639,40.785 6.731,42.693 6.731,45.184 C6.731,47.675 8.639,49.53 11.13,49.53 C13.621,49.53 15.476,47.675 15.476,45.184 C15.476,42.693 13.621,40.785 11.13,40.785 Z" id="Forma"></path>
                            </g>
                            <g transform="translate(0, 6)" fill="#0099D4" id="al-mayoreo">
                                <path d="M37.915,32.415 C38.3483333,31.895 38.5433333,31.375 38.5,30.855 C38.4566667,30.335 38.2725,29.9125 37.9475,29.5875 C37.6225,29.2625 37.2108333,29.0891667 36.7125,29.0675 C36.2141667,29.0458333 35.7266667,29.2516667 35.25,29.685 C34.7733333,30.1183333 34.3183333,30.6058333 33.885,31.1475 C33.4516667,31.6891667 33.04,32.1983333 32.65,32.675 C31.87,33.6716667 31.1875,34.5275 30.6025,35.2425 C30.0175,35.9575 29.4,36.6183333 28.75,37.225 C28.1,37.8316667 27.3741667,38.4058333 26.5725,38.9475 C25.7708333,39.4891667 24.8066667,40.0416667 23.68,40.605 L22.575,39.045 C22.835,38.525 23.1491667,37.8858333 23.5175,37.1275 C23.8858333,36.3691667 24.2758333,35.6 24.6875,34.82 C25.0991667,34.04 25.5108333,33.2816667 25.9225,32.545 C26.3341667,31.8083333 26.6916667,31.18 26.995,30.66 C27.385,30.01 27.5041667,29.4033333 27.3525,28.84 C27.2008333,28.2766667 26.93,27.8541667 26.54,27.5725 C26.15,27.2908333 25.695,27.1716667 25.175,27.215 C24.655,27.2583333 24.1783333,27.5833333 23.745,28.19 C22.055,30.66 20.1483333,33.0108333 18.025,35.2425 C15.9016667,37.4741667 13.605,39.175 11.135,40.345 C10.615,40.605 10.0408333,40.8325 9.4125,41.0275 C8.78416667,41.2225 8.19916667,41.3091667 7.6575,41.2875 C7.11583333,41.2658333 6.65,41.0925 6.26,40.7675 C5.87,40.4425 5.65333333,39.89 5.61,39.11 C5.52333333,38.2866667 5.66416667,37.3875 6.0325,36.4125 C6.40083333,35.4375 6.845,34.625 7.365,33.975 C8.795,32.1116667 10.2466667,30.4433333 11.72,28.97 C13.1933333,27.4966667 14.7208333,26.2725 16.3025,25.2975 C17.8841667,24.3225 19.5308333,23.6508333 21.2425,23.2825 C22.9541667,22.9141667 24.7633333,22.8816667 26.67,23.185 C27.2333333,23.2716667 27.7533333,23.2391667 28.23,23.0875 C28.7066667,22.9358333 29.0533333,22.5566667 29.27,21.95 C29.4433333,21.3433333 29.3783333,20.7691667 29.075,20.2275 C28.7716667,19.6858333 28.36,19.35 27.84,19.22 C25.37,18.5266667 22.8891667,18.505 20.3975,19.155 C17.9058333,19.805 15.5441667,20.8775 13.3125,22.3725 C11.0808333,23.8675 9.07666667,25.6441667 7.3,27.7025 C5.52333333,29.7608333 4.115,31.8191667 3.075,33.8775 C2.035,35.9358333 1.43916667,37.8858333 1.2875,39.7275 C1.13583333,41.5691667 1.60166667,43.01 2.685,44.05 C3.68166667,45.0466667 4.68916667,45.7291667 5.7075,46.0975 C6.72583333,46.4658333 7.90666667,46.4116667 9.25,45.935 C11.1133333,45.3283333 12.8358333,44.4941667 14.4175,43.4325 C15.9991667,42.3708333 17.57,41.255 19.13,40.085 C19.1733333,40.3883333 19.2383333,40.8 19.325,41.32 C19.4116667,41.84 19.5416667,42.36 19.715,42.88 C19.8883333,43.4 20.105,43.8658333 20.365,44.2775 C20.625,44.6891667 20.95,44.9383333 21.34,45.025 C22.25,45.285 23.2466667,45.1983333 24.33,44.765 C25.4133333,44.3316667 26.475,43.7466667 27.515,43.01 C28.555,42.2733333 29.5191667,41.4716667 30.4075,40.605 C31.2958333,39.7383333 32.0216667,39.0016667 32.585,38.395 C33.4516667,37.3983333 34.3508333,36.4016667 35.2825,35.405 C36.2141667,34.4083333 37.0916667,33.4116667 37.915,32.415 Z" id="Trazado"></path>
                                <path d="M62.03,5.505 C61.7266667,4.81166667 61.4016667,4.27 61.055,3.88 C60.7083333,3.49 60.2966667,3.20833333 59.82,3.035 C59.3433333,2.86166667 58.7908333,2.78583333 58.1625,2.8075 C57.5341667,2.82916667 56.83,2.88333333 56.05,2.97 C54.62,3.14333333 53.0925,3.89083333 51.4675,5.2125 C49.8425,6.53416667 48.2175,8.2025 46.5925,10.2175 C44.9675,12.2325 43.375,14.4533333 41.815,16.88 C40.255,19.3066667 38.825,21.7116667 37.525,24.095 C36.225,26.4783333 35.0983333,28.71 34.145,30.79 C33.1916667,32.87 32.4983333,34.56 32.065,35.86 C31.8483333,36.4666667 31.6425,37.3333333 31.4475,38.46 C31.2525,39.5866667 31.1658333,40.7133333 31.1875,41.84 C31.2091667,42.9666667 31.4041667,43.9958333 31.7725,44.9275 C32.1408333,45.8591667 32.78,46.455 33.69,46.715 C34.21,46.8883333 34.6433333,46.9533333 34.99,46.91 C35.3366667,46.8666667 35.7916667,46.8016667 36.355,46.715 C38.175,46.4983333 40.2008333,45.8158333 42.4325,44.6675 C44.6641667,43.5191667 46.8741667,42.1866667 49.0625,40.67 C51.2508333,39.1533333 53.2875,37.5825 55.1725,35.9575 C57.0575,34.3325 58.585,32.8916667 59.755,31.635 C60.275,31.0716667 60.6325,30.5408333 60.8275,30.0425 C61.0225,29.5441667 60.9466667,28.97 60.6,28.32 C60.2533333,27.7133333 59.8633333,27.3991667 59.43,27.3775 C58.9966667,27.3558333 58.5416667,27.54 58.065,27.93 C57.285,28.4933333 56.5375,29.1108333 55.8225,29.7825 C55.1075,30.4541667 54.3816667,31.0933333 53.645,31.7 C52.3016667,32.7833333 50.9366667,33.8775 49.55,34.9825 C48.1633333,36.0875 46.7441667,37.1383333 45.2925,38.135 C43.8408333,39.1316667 42.3458333,40.02 40.8075,40.8 C39.2691667,41.58 37.655,42.1866667 35.965,42.62 C36.095,40.9733333 36.2141667,39.5 36.3225,38.2 C36.4308333,36.9 36.8316667,35.5133333 37.525,34.04 C38.565,33.39 39.9841667,32.4258333 41.7825,31.1475 C43.5808333,29.8691667 45.4766667,28.4066667 47.47,26.76 C49.4633333,25.1133333 51.4458333,23.3366667 53.4175,21.43 C55.3891667,19.5233333 57.1116667,17.6166667 58.585,15.71 C60.0583333,13.8033333 61.1416667,11.9725 61.835,10.2175 C62.5283333,8.4625 62.5933333,6.89166667 62.03,5.505 Z M57.48,7.13 C57.6533333,7.99666667 57.415,9.05833333 56.765,10.315 C56.115,11.5716667 55.2375,12.9041667 54.1325,14.3125 C53.0275,15.7208333 51.7816667,17.1616667 50.395,18.635 C49.0083333,20.1083333 47.6325,21.4841667 46.2675,22.7625 C44.9025,24.0408333 43.6458333,25.1675 42.4975,26.1425 C41.3491667,27.1175 40.4933333,27.8216667 39.93,28.255 C40.4066667,27.475 41.0241667,26.4241667 41.7825,25.1025 C42.5408333,23.7808333 43.4075,22.3725 44.3825,20.8775 C45.3575,19.3825 46.3975,17.855 47.5025,16.295 C48.6075,14.735 49.7341667,13.305 50.8825,12.005 C52.0308333,10.705 53.1683333,9.61083333 54.295,8.7225 C55.4216667,7.83416667 56.4833333,7.30333333 57.48,7.13 Z" id="Forma"></path>
                                <path d="M126.835,31.18 C127.051667,30.79 127.084167,30.3783333 126.9325,29.945 C126.780833,29.5116667 126.531667,29.1866667 126.185,28.97 C125.621667,28.71 125.069167,28.6991667 124.5275,28.9375 C123.985833,29.1758333 123.465833,29.5225 122.9675,29.9775 C122.469167,30.4325 122.025,30.9308333 121.635,31.4725 C121.245,32.0141667 120.92,32.415 120.66,32.675 C120.27,33.1516667 119.544167,33.8666667 118.4825,34.82 C117.420833,35.7733333 116.283333,36.7266667 115.07,37.68 C113.856667,38.6333333 112.665,39.4675 111.495,40.1825 C110.325,40.8975 109.458333,41.2333333 108.895,41.19 C108.678333,40.1066667 108.808333,38.8608333 109.285,37.4525 C109.761667,36.0441667 110.379167,34.6358333 111.1375,33.2275 C111.895833,31.8191667 112.675833,30.4866667 113.4775,29.23 C114.279167,27.9733333 114.94,26.9333333 115.46,26.11 C115.85,25.5033333 116.153333,24.8641667 116.37,24.1925 C116.586667,23.5208333 116.6625,22.9141667 116.5975,22.3725 C116.5325,21.8308333 116.261667,21.4191667 115.785,21.1375 C115.308333,20.8558333 114.55,20.78 113.51,20.91 C112.99,20.9966667 112.264167,21.3325 111.3325,21.9175 C110.400833,22.5025 109.371667,23.2391667 108.245,24.1275 C107.118333,25.0158333 105.948333,25.9908333 104.735,27.0525 C103.521667,28.1141667 102.384167,29.1325 101.3225,30.1075 C100.260833,31.0825 99.3075,31.9816667 98.4625,32.805 C97.6175,33.6283333 97.0216667,34.235 96.675,34.625 C96.805,33.9316667 97.0975,33.0216667 97.5525,31.895 C98.0075,30.7683333 98.4733333,29.5875 98.95,28.3525 C99.4266667,27.1175 99.8275,25.9258333 100.1525,24.7775 C100.4775,23.6291667 100.575,22.73 100.445,22.08 C100.228333,20.8666667 99.7083333,20.26 98.885,20.26 C98.105,20.26 97.13,20.4766667 95.96,20.91 C95.18,21.2133333 94.205,21.82 93.035,22.73 C91.865,23.64 90.6625,24.6258333 89.4275,25.6875 C88.1925,26.7491667 87.0225,27.8 85.9175,28.84 C84.8125,29.88 83.935,30.6816667 83.285,31.245 C83.3716667,31.0716667 83.675,30.4975 84.195,29.5225 C84.715,28.5475 85.2241667,27.475 85.7225,26.305 C86.2208333,25.135 86.5891667,24.0083333 86.8275,22.925 C87.0658333,21.8416667 86.9683333,21.105 86.535,20.715 C85.885,20.195 85.1591667,20.13 84.3575,20.52 C83.5558333,20.91 83.025,21.43 82.765,22.08 C82.505,22.6433333 82.2883333,23.2175 82.115,23.8025 C81.9416667,24.3875 81.7466667,24.9616667 81.53,25.525 C81.01,26.9116667 80.4466667,28.2766667 79.84,29.62 C79.2333333,30.9633333 78.5833333,32.285 77.89,33.585 C77.24,34.885 76.5791667,36.2933333 75.9075,37.81 C75.2358333,39.3266667 74.705,40.7783333 74.315,42.165 C74.2716667,42.3816667 74.2283333,42.6633333 74.185,43.01 C74.1416667,43.3566667 74.1416667,43.725 74.185,44.115 C74.2283333,44.505 74.315,44.8516667 74.445,45.155 C74.575,45.4583333 74.7916667,45.6316667 75.095,45.675 C75.8316667,45.8483333 76.5466667,45.675 77.24,45.155 C77.9333333,44.635 78.4533333,44.0716667 78.8,43.465 C79.6666667,42.0783333 80.49,40.7783333 81.27,39.565 C82.05,38.3516667 82.9816667,37.1166667 84.065,35.86 C84.845,34.95 85.7116667,34.0941667 86.665,33.2925 C87.6183333,32.4908333 88.5933333,31.7108333 89.59,30.9525 C90.5866667,30.1941667 91.5833333,29.4358333 92.58,28.6775 C93.5766667,27.9191667 94.53,27.15 95.44,26.37 C95.0933333,27.7133333 94.5841667,29.0566667 93.9125,30.4 C93.2408333,31.7433333 92.7966667,33.1083333 92.58,34.495 C92.45,35.1883333 92.2766667,35.86 92.06,36.51 C91.8433333,37.16 91.6158333,37.7991667 91.3775,38.4275 C91.1391667,39.0558333 90.9333333,39.6841667 90.76,40.3125 C90.5866667,40.9408333 90.5,41.58 90.5,42.23 C90.4566667,42.9233333 90.6083333,43.4866667 90.955,43.92 C91.3016667,44.3533333 91.7133333,44.6566667 92.19,44.83 C92.6666667,45.0033333 93.1541667,45.0141667 93.6525,44.8625 C94.1508333,44.7108333 94.53,44.375 94.79,43.855 C95.6566667,42.3383333 96.5341667,41.0816667 97.4225,40.085 C98.3108333,39.0883333 99.21,38.0266667 100.12,36.9 C101.506667,35.2533333 103.055833,33.7258333 104.7675,32.3175 C106.479167,30.9091667 108.136667,29.4683333 109.74,27.995 C109.35,28.7316667 108.916667,29.5658333 108.44,30.4975 C107.963333,31.4291667 107.486667,32.3825 107.01,33.3575 C106.533333,34.3325 106.089167,35.2966667 105.6775,36.25 C105.265833,37.2033333 104.93,38.07 104.67,38.85 C104.193333,40.41 103.976667,41.7533333 104.02,42.88 C104.063333,44.0066667 104.388333,44.8516667 104.995,45.415 C105.601667,45.9783333 106.468333,46.2275 107.595,46.1625 C108.721667,46.0975 110.13,45.6533333 111.82,44.83 C112.73,44.3966667 113.9325,43.595 115.4275,42.425 C116.9225,41.255 118.428333,39.9875 119.945,38.6225 C121.461667,37.2575 122.859167,35.8925 124.1375,34.5275 C125.415833,33.1625 126.315,32.0466667 126.835,31.18 Z" id="Trazado"></path>
                                <path d="M155.37,32.415 C155.803333,31.895 155.998333,31.375 155.955,30.855 C155.911667,30.335 155.7275,29.9125 155.4025,29.5875 C155.0775,29.2625 154.665833,29.0891667 154.1675,29.0675 C153.669167,29.0458333 153.181667,29.2516667 152.705,29.685 C152.228333,30.1183333 151.773333,30.6058333 151.34,31.1475 C150.906667,31.6891667 150.495,32.1983333 150.105,32.675 C149.325,33.6716667 148.6425,34.5275 148.0575,35.2425 C147.4725,35.9575 146.855,36.6183333 146.205,37.225 C145.555,37.8316667 144.829167,38.4058333 144.0275,38.9475 C143.225833,39.4891667 142.261667,40.0416667 141.135,40.605 L140.03,39.045 C140.29,38.525 140.604167,37.8858333 140.9725,37.1275 C141.340833,36.3691667 141.730833,35.6 142.1425,34.82 C142.554167,34.04 142.965833,33.2816667 143.3775,32.545 C143.789167,31.8083333 144.146667,31.18 144.45,30.66 C144.84,30.01 144.959167,29.4033333 144.8075,28.84 C144.655833,28.2766667 144.385,27.8541667 143.995,27.5725 C143.605,27.2908333 143.15,27.1716667 142.63,27.215 C142.11,27.2583333 141.633333,27.5833333 141.2,28.19 C139.51,30.66 137.603333,33.0108333 135.48,35.2425 C133.356667,37.4741667 131.06,39.175 128.59,40.345 C128.07,40.605 127.495833,40.8325 126.8675,41.0275 C126.239167,41.2225 125.654167,41.3091667 125.1125,41.2875 C124.570833,41.2658333 124.105,41.0925 123.715,40.7675 C123.325,40.4425 123.108333,39.89 123.065,39.11 C122.978333,38.2866667 123.119167,37.3875 123.4875,36.4125 C123.855833,35.4375 124.3,34.625 124.82,33.975 C126.25,32.1116667 127.701667,30.4433333 129.175,28.97 C130.648333,27.4966667 132.175833,26.2725 133.7575,25.2975 C135.339167,24.3225 136.985833,23.6508333 138.6975,23.2825 C140.409167,22.9141667 142.218333,22.8816667 144.125,23.185 C144.688333,23.2716667 145.208333,23.2391667 145.685,23.0875 C146.161667,22.9358333 146.508333,22.5566667 146.725,21.95 C146.898333,21.3433333 146.833333,20.7691667 146.53,20.2275 C146.226667,19.6858333 145.815,19.35 145.295,19.22 C142.825,18.5266667 140.344167,18.505 137.8525,19.155 C135.360833,19.805 132.999167,20.8775 130.7675,22.3725 C128.535833,23.8675 126.531667,25.6441667 124.755,27.7025 C122.978333,29.7608333 121.57,31.8191667 120.53,33.8775 C119.49,35.9358333 118.894167,37.8858333 118.7425,39.7275 C118.590833,41.5691667 119.056667,43.01 120.14,44.05 C121.136667,45.0466667 122.144167,45.7291667 123.1625,46.0975 C124.180833,46.4658333 125.361667,46.4116667 126.705,45.935 C128.568333,45.3283333 130.290833,44.4941667 131.8725,43.4325 C133.454167,42.3708333 135.025,41.255 136.585,40.085 C136.628333,40.3883333 136.693333,40.8 136.78,41.32 C136.866667,41.84 136.996667,42.36 137.17,42.88 C137.343333,43.4 137.56,43.8658333 137.82,44.2775 C138.08,44.6891667 138.405,44.9383333 138.795,45.025 C139.705,45.285 140.701667,45.1983333 141.785,44.765 C142.868333,44.3316667 143.93,43.7466667 144.97,43.01 C146.01,42.2733333 146.974167,41.4716667 147.8625,40.605 C148.750833,39.7383333 149.476667,39.0016667 150.04,38.395 C150.906667,37.3983333 151.805833,36.4016667 152.7375,35.405 C153.669167,34.4083333 154.546667,33.4116667 155.37,32.415 Z" id="Trazado"></path>
                                <path d="M185.53,32.935 C185.963333,32.415 186.190833,31.895 186.2125,31.375 C186.234167,30.855 186.125833,30.4325 185.8875,30.1075 C185.649167,29.7825 185.291667,29.5983333 184.815,29.555 C184.338333,29.5116667 183.818333,29.7066667 183.255,30.14 C182.648333,30.5733333 182.041667,31.1041667 181.435,31.7325 C180.828333,32.3608333 180.221667,32.9133333 179.615,33.39 C178.358333,34.4733333 177.08,35.5241667 175.78,36.5425 C174.48,37.5608333 173.158333,38.5683333 171.815,39.565 C172.681667,37.615 173.5375,35.6758333 174.3825,33.7475 C175.2275,31.8191667 176.105,29.88 177.015,27.93 C177.405,27.1933333 177.816667,26.4458333 178.25,25.6875 C178.683333,24.9291667 179.095,24.1816667 179.485,23.445 C179.788333,22.7516667 179.896667,22.145 179.81,21.625 C179.723333,21.105 179.506667,20.715 179.16,20.455 C178.813333,20.195 178.38,20.0866667 177.86,20.13 C177.34,20.1733333 176.798333,20.455 176.235,20.975 C175.455,21.7116667 174.6425,22.5566667 173.7975,23.51 C172.9525,24.4633333 172.1075,25.4708333 171.2625,26.5325 C170.4175,27.5941667 169.561667,28.645 168.695,29.685 C167.828333,30.725 166.983333,31.6566667 166.16,32.48 C165.163333,33.52 164.1775,34.4191667 163.2025,35.1775 C162.2275,35.9358333 161.22,36.6183333 160.18,37.225 C159.14,37.8316667 158.045833,38.3733333 156.8975,38.85 C155.749167,39.3266667 154.481667,39.7816667 153.095,40.215 C153.225,39.045 153.495833,37.8316667 153.9075,36.575 C154.319167,35.3183333 154.8175,34.0725 155.4025,32.8375 C155.9875,31.6025 156.6375,30.4 157.3525,29.23 C158.0675,28.06 158.75,26.9983333 159.4,26.045 C159.79,25.525 160.223333,25.005 160.7,24.485 C161.176667,23.965 161.588333,23.4233333 161.935,22.86 C162.281667,22.34 162.4875,21.8525 162.5525,21.3975 C162.6175,20.9425 162.368333,20.4766667 161.805,20 C161.285,19.5233333 160.808333,19.3283333 160.375,19.415 C159.941667,19.5016667 159.465,19.74 158.945,20.13 C158.815,20.2166667 158.630833,20.4008333 158.3925,20.6825 C158.154167,20.9641667 157.905,21.2675 157.645,21.5925 C157.385,21.9175 157.146667,22.2316667 156.93,22.535 C156.713333,22.8383333 156.54,23.0766667 156.41,23.25 C155.716667,24.2033333 154.871667,25.4708333 153.875,27.0525 C152.878333,28.6341667 151.968333,30.3133333 151.145,32.09 C150.321667,33.8666667 149.715,35.6216667 149.325,37.355 C148.935,39.0883333 149.021667,40.54 149.585,41.71 C150.148333,42.9666667 150.971667,43.725 152.055,43.985 C153.138333,44.245 154.33,44.1908333 155.63,43.8225 C156.93,43.4541667 158.295,42.8583333 159.725,42.035 C161.155,41.2116667 162.52,40.3233333 163.82,39.37 C165.12,38.4166667 166.29,37.4958333 167.33,36.6075 C168.37,35.7191667 169.171667,35.0366667 169.735,34.56 C169.388333,35.34 169.085,36.0116667 168.825,36.575 C168.565,37.1383333 168.315833,37.7016667 168.0775,38.265 C167.839167,38.8283333 167.59,39.3916667 167.33,39.955 C167.07,40.5183333 166.788333,41.19 166.485,41.97 C165.661667,42.8366667 164.6325,43.9525 163.3975,45.3175 C162.1625,46.6825 160.96,48.1233333 159.79,49.64 C158.62,51.1566667 157.569167,52.6733333 156.6375,54.19 C155.705833,55.7066667 155.131667,57.05 154.915,58.22 C154.698333,59.3033333 154.785,60.1483333 155.175,60.755 C155.565,61.3616667 156.095833,61.7083333 156.7675,61.795 C157.439167,61.8816667 158.165,61.73 158.945,61.34 C159.725,60.95 160.418333,60.2783333 161.025,59.325 C162.325,57.245 163.733333,55.0458333 165.25,52.7275 C166.766667,50.4091667 168.045,48.1233333 169.085,45.87 C170.038333,45.22 171.316667,44.3425 172.92,43.2375 C174.523333,42.1325 176.148333,40.9516667 177.795,39.695 C179.441667,38.4383333 180.98,37.2033333 182.41,35.99 C183.84,34.7766667 184.88,33.7583333 185.53,32.935 Z" id="Trazado"></path>
                                <path d="M219.265,29.815 C219.785,29.425 220.099167,28.9591667 220.2075,28.4175 C220.315833,27.8758333 220.2725,27.41 220.0775,27.02 C219.8825,26.63 219.568333,26.3808333 219.135,26.2725 C218.701667,26.1641667 218.203333,26.3266667 217.64,26.76 C216.816667,27.3666667 215.95,27.865 215.04,28.255 C214.13,28.645 213.22,28.9591667 212.31,29.1975 C211.4,29.4358333 210.49,29.6308333 209.58,29.7825 C208.67,29.9341667 207.803333,30.075 206.98,30.205 C207.023333,29.7283333 207.066667,29.2733333 207.11,28.84 C207.153333,28.4066667 207.196667,27.9516667 207.24,27.475 C207.24,25.9583333 206.893333,24.6258333 206.2,23.4775 C205.506667,22.3291667 204.629167,21.4083333 203.5675,20.715 C202.505833,20.0216667 201.325,19.545 200.025,19.285 C198.725,19.025 197.468333,19.0033333 196.255,19.22 C195.041667,19.4366667 193.925833,19.9133333 192.9075,20.65 C191.889167,21.3866667 191.141667,22.3833333 190.665,23.64 C189.321667,24.2466667 188.0325,25.0266667 186.7975,25.98 C185.5625,26.9333333 184.468333,28.0166667 183.515,29.23 C182.561667,30.4433333 181.7925,31.7541667 181.2075,33.1625 C180.6225,34.5708333 180.33,36.055 180.33,37.615 C180.33,39.2183333 180.644167,40.5725 181.2725,41.6775 C181.900833,42.7825 182.735,43.66 183.775,44.31 C184.815,44.96 185.995833,45.4041667 187.3175,45.6425 C188.639167,45.8808333 190.015,45.8916667 191.445,45.675 C192.918333,45.5016667 194.37,45.0141667 195.8,44.2125 C197.23,43.4108333 198.5625,42.4466667 199.7975,41.32 C201.0325,40.1933333 202.148333,38.9583333 203.145,37.615 C204.141667,36.2716667 204.965,34.9716667 205.615,33.715 C206.611667,33.6716667 207.651667,33.6175 208.735,33.5525 C209.818333,33.4875 210.934167,33.325 212.0825,33.065 C213.230833,32.805 214.411667,32.4258333 215.625,31.9275 C216.838333,31.4291667 218.051667,30.725 219.265,29.815 Z M202.69,29.945 C202.17,29.8583333 201.606667,29.7391667 201,29.5875 C200.393333,29.4358333 199.786667,29.2625 199.18,29.0675 C198.573333,28.8725 197.999167,28.6341667 197.4575,28.3525 C196.915833,28.0708333 196.45,27.735 196.06,27.345 C195.193333,26.5216667 194.825,25.6983333 194.955,24.875 C195.085,24.0516667 195.605,23.2716667 196.515,22.535 C197.728333,22.7083333 198.79,22.925 199.7,23.185 C200.61,23.445 201.346667,23.8458333 201.91,24.3875 C202.473333,24.9291667 202.82,25.6441667 202.95,26.5325 C203.08,27.4208333 202.993333,28.5583333 202.69,29.945 Z M201,33.52 C200.35,34.43 199.559167,35.4483333 198.6275,36.575 C197.695833,37.7016667 196.6775,38.6983333 195.5725,39.565 C194.4675,40.4316667 193.286667,41.0816667 192.03,41.515 C190.773333,41.9483333 189.473333,41.97 188.13,41.58 C186.916667,41.2333333 185.995833,40.5941667 185.3675,39.6625 C184.739167,38.7308333 184.533333,37.6366667 184.75,36.38 C185.096667,34.4733333 185.876667,32.7508333 187.09,31.2125 C188.303333,29.6741667 189.69,28.4066667 191.25,27.41 C192.593333,29.1433333 194.034167,30.4433333 195.5725,31.31 C197.110833,32.1766667 198.92,32.9133333 201,33.52 Z" id="Forma"></path>
                                <path d="M244.16,32.35 C244.94,31.5266667 245.373333,30.8008333 245.46,30.1725 C245.546667,29.5441667 245.438333,29.0675 245.135,28.7425 C244.831667,28.4175 244.42,28.2766667 243.9,28.32 C243.38,28.3633333 242.86,28.6233333 242.34,29.1 C241.603333,29.8366667 240.585,30.855 239.285,32.155 C237.985,33.455 236.609167,34.7658333 235.1575,36.0875 C233.705833,37.4091667 232.286667,38.5791667 230.9,39.5975 C229.513333,40.6158333 228.343333,41.2116667 227.39,41.385 C227.173333,39.175 227.541667,37.0191667 228.495,34.9175 C229.448333,32.8158333 230.661667,30.9633333 232.135,29.36 C233.088333,28.32 233.359167,27.4966667 232.9475,26.89 C232.535833,26.2833333 231.701667,25.9366667 230.445,25.85 C229.578333,25.8066667 228.874167,25.6333333 228.3325,25.33 C227.790833,25.0266667 227.335833,24.6041667 226.9675,24.0625 C226.599167,23.5208333 226.3175,22.8816667 226.1225,22.145 C225.9275,21.4083333 225.743333,20.6066667 225.57,19.74 C225.31,18.44 224.7575,17.6925 223.9125,17.4975 C223.0675,17.3025 222.341667,17.8116667 221.735,19.025 C221.085,20.3683333 220.1425,21.9933333 218.9075,23.9 C217.6725,25.8066667 216.2425,27.7566667 214.6175,29.75 C212.9925,31.7433333 211.226667,33.65 209.32,35.47 C207.413333,37.29 205.463333,38.8066667 203.47,40.02 C202.863333,40.3666667 202.538333,40.8 202.495,41.32 C202.451667,41.84 202.5925,42.295 202.9175,42.685 C203.2425,43.075 203.686667,43.335 204.25,43.465 C204.813333,43.595 205.42,43.4866667 206.07,43.14 C208.02,42.0133333 209.915833,40.5833333 211.7575,38.85 C213.599167,37.1166667 215.278333,35.3616667 216.795,33.585 C218.311667,31.8083333 219.6225,30.1183333 220.7275,28.515 C221.8325,26.9116667 222.623333,25.6766667 223.1,24.81 C223.446667,25.2 223.739167,25.6225 223.9775,26.0775 C224.215833,26.5325 224.465,26.9658333 224.725,27.3775 C224.985,27.7891667 225.266667,28.1791667 225.57,28.5475 C225.873333,28.9158333 226.263333,29.2083333 226.74,29.425 C226.263333,30.1183333 225.83,30.9525 225.44,31.9275 C225.05,32.9025 224.703333,33.9316667 224.4,35.015 C224.096667,36.0983333 223.836667,37.16 223.62,38.2 C223.403333,39.24 223.251667,40.1716667 223.165,40.995 C223.078333,41.4283333 223.089167,41.84 223.1975,42.23 C223.305833,42.62 223.468333,42.9883333 223.685,43.335 C224.075,43.985 224.519167,44.4833333 225.0175,44.83 C225.515833,45.1766667 226.0575,45.3825 226.6425,45.4475 C227.2275,45.5125 227.845,45.48 228.495,45.35 C229.145,45.22 229.773333,45.0033333 230.38,44.7 C231.333333,44.2233333 232.449167,43.465 233.7275,42.425 C235.005833,41.385 236.295,40.2583333 237.595,39.045 C238.895,37.8316667 240.13,36.6183333 241.3,35.405 C242.47,34.1916667 243.423333,33.1733333 244.16,32.35 Z" id="Trazado"></path>
                                <path d="M270.16,29.945 C269.683333,29.2516667 269.1525,28.9916667 268.5675,29.165 C267.9825,29.3383333 267.451667,29.6633333 266.975,30.14 C266.021667,31.05 264.96,32.0466667 263.79,33.13 C262.62,34.2133333 261.406667,35.2533333 260.15,36.25 C258.893333,37.2466667 257.593333,38.1566667 256.25,38.98 C254.906667,39.8033333 253.585,40.41 252.285,40.8 C251.418333,41.06 250.595,41.3091667 249.815,41.5475 C249.035,41.7858333 248.276667,41.9158333 247.54,41.9375 C246.803333,41.9591667 246.099167,41.7966667 245.4275,41.45 C244.755833,41.1033333 244.116667,40.475 243.51,39.565 C244.246667,39.1316667 245.2975,38.4925 246.6625,37.6475 C248.0275,36.8025 249.479167,35.8383333 251.0175,34.755 C252.555833,33.6716667 254.083333,32.5016667 255.6,31.245 C257.116667,29.9883333 258.4275,28.71 259.5325,27.41 C260.6375,26.11 261.4175,24.8208333 261.8725,23.5425 C262.3275,22.2641667 262.273333,21.0616667 261.71,19.935 C261.06,18.6783333 260.15,17.855 258.98,17.465 C257.81,17.075 256.51,17.0316667 255.08,17.335 C253.65,17.6383333 252.155,18.2341667 250.595,19.1225 C249.035,20.0108333 247.54,21.1158333 246.11,22.4375 C244.68,23.7591667 243.390833,25.2325 242.2425,26.8575 C241.094167,28.4825 240.205833,30.1725 239.5775,31.9275 C238.949167,33.6825 238.645833,35.4483333 238.6675,37.225 C238.689167,39.0016667 239.176667,40.7133333 240.13,42.36 C240.78,43.4866667 241.495,44.3425 242.275,44.9275 C243.055,45.5125 243.889167,45.8916667 244.7775,46.065 C245.665833,46.2383333 246.619167,46.2708333 247.6375,46.1625 C248.655833,46.0541667 249.728333,45.87 250.855,45.61 C252.761667,45.22 254.700833,44.4616667 256.6725,43.335 C258.644167,42.2083333 260.366667,41.0383333 261.84,39.825 C263.14,38.785 264.44,37.6258333 265.74,36.3475 C267.04,35.0691667 268.296667,33.8666667 269.51,32.74 C269.986667,32.35 270.300833,31.9275 270.4525,31.4725 C270.604167,31.0175 270.506667,30.5083333 270.16,29.945 Z M258.33,21.56 C257.94,22.86 257.116667,24.16 255.86,25.46 C254.603333,26.76 253.184167,27.995 251.6025,29.165 C250.020833,30.335 248.428333,31.4291667 246.825,32.4475 C245.221667,33.4658333 243.878333,34.3216667 242.795,35.015 C243.315,33.5416667 244.084167,32.0033333 245.1025,30.4 C246.120833,28.7966667 247.3125,27.345 248.6775,26.045 C250.0425,24.745 251.548333,23.6725 253.195,22.8275 C254.841667,21.9825 256.553333,21.56 258.33,21.56 Z" id="Forma"></path>
                                <path d="M302.465,29.815 C302.985,29.425 303.299167,28.9591667 303.4075,28.4175 C303.515833,27.8758333 303.4725,27.41 303.2775,27.02 C303.0825,26.63 302.768333,26.3808333 302.335,26.2725 C301.901667,26.1641667 301.403333,26.3266667 300.84,26.76 C300.016667,27.3666667 299.15,27.865 298.24,28.255 C297.33,28.645 296.42,28.9591667 295.51,29.1975 C294.6,29.4358333 293.69,29.6308333 292.78,29.7825 C291.87,29.9341667 291.003333,30.075 290.18,30.205 C290.223333,29.7283333 290.266667,29.2733333 290.31,28.84 C290.353333,28.4066667 290.396667,27.9516667 290.44,27.475 C290.44,25.9583333 290.093333,24.6258333 289.4,23.4775 C288.706667,22.3291667 287.829167,21.4083333 286.7675,20.715 C285.705833,20.0216667 284.525,19.545 283.225,19.285 C281.925,19.025 280.668333,19.0033333 279.455,19.22 C278.241667,19.4366667 277.125833,19.9133333 276.1075,20.65 C275.089167,21.3866667 274.341667,22.3833333 273.865,23.64 C272.521667,24.2466667 271.2325,25.0266667 269.9975,25.98 C268.7625,26.9333333 267.668333,28.0166667 266.715,29.23 C265.761667,30.4433333 264.9925,31.7541667 264.4075,33.1625 C263.8225,34.5708333 263.53,36.055 263.53,37.615 C263.53,39.2183333 263.844167,40.5725 264.4725,41.6775 C265.100833,42.7825 265.935,43.66 266.975,44.31 C268.015,44.96 269.195833,45.4041667 270.5175,45.6425 C271.839167,45.8808333 273.215,45.8916667 274.645,45.675 C276.118333,45.5016667 277.57,45.0141667 279,44.2125 C280.43,43.4108333 281.7625,42.4466667 282.9975,41.32 C284.2325,40.1933333 285.348333,38.9583333 286.345,37.615 C287.341667,36.2716667 288.165,34.9716667 288.815,33.715 C289.811667,33.6716667 290.851667,33.6175 291.935,33.5525 C293.018333,33.4875 294.134167,33.325 295.2825,33.065 C296.430833,32.805 297.611667,32.4258333 298.825,31.9275 C300.038333,31.4291667 301.251667,30.725 302.465,29.815 Z M285.89,29.945 C285.37,29.8583333 284.806667,29.7391667 284.2,29.5875 C283.593333,29.4358333 282.986667,29.2625 282.38,29.0675 C281.773333,28.8725 281.199167,28.6341667 280.6575,28.3525 C280.115833,28.0708333 279.65,27.735 279.26,27.345 C278.393333,26.5216667 278.025,25.6983333 278.155,24.875 C278.285,24.0516667 278.805,23.2716667 279.715,22.535 C280.928333,22.7083333 281.99,22.925 282.9,23.185 C283.81,23.445 284.546667,23.8458333 285.11,24.3875 C285.673333,24.9291667 286.02,25.6441667 286.15,26.5325 C286.28,27.4208333 286.193333,28.5583333 285.89,29.945 Z M284.2,33.52 C283.55,34.43 282.759167,35.4483333 281.8275,36.575 C280.895833,37.7016667 279.8775,38.6983333 278.7725,39.565 C277.6675,40.4316667 276.486667,41.0816667 275.23,41.515 C273.973333,41.9483333 272.673333,41.97 271.33,41.58 C270.116667,41.2333333 269.195833,40.5941667 268.5675,39.6625 C267.939167,38.7308333 267.733333,37.6366667 267.95,36.38 C268.296667,34.4733333 269.076667,32.7508333 270.29,31.2125 C271.503333,29.6741667 272.89,28.4066667 274.45,27.41 C275.793333,29.1433333 277.234167,30.4433333 278.7725,31.31 C280.310833,32.1766667 282.12,32.9133333 284.2,33.52 Z" id="Forma"></path>
                            </g>
                        </g>
                    </g>
                </g>
            </g>
        </g>
    </g>
</svg>