<?xml version="1.0" encoding="UTF-8"?>
<svg width="94px" height="30px" viewBox="0 0 94 30" version="1.1" xmlns="http://www.w3.org/2000/svg" xmlns:xlink="http://www.w3.org/1999/xlink">
    <title>visa-10 copia</title>
    <g id="Page-1" stroke="none" stroke-width="1" fill="none" fill-rule="evenodd">
        <g id="visa-10-copia" fill="#000000" fill-rule="nonzero">
            <path d="M60.5265001,0 C53.9723311,0 47.9759637,3.40909091 47.9759637,9.68181818 C47.9759637,15.9545455 58.434744,17.4545455 58.434744,21 C58.434744,24.5454545 56.6218888,23.8636364 53.6934303,23.8636364 C49.3704677,23.8636364 46.1631084,21.9545455 46.1631084,21.9545455 L44.7686044,28.3636364 C44.7686044,28.3636364 48.3943149,30 53.2750791,30 C60.5265001,30 66.2439667,26.4545455 66.2439667,20.0454545 C66.2439667,13.6363636 55.6457359,12 55.6457359,8.59090909 C55.6457359,5.18181818 57.04024,6.13636364 60.1081489,6.13636364 C63.1760578,6.13636364 66.2439667,7.5 66.2439667,7.5 L67.6384707,1.36363636 C67.6384707,1.36363636 64.5705618,0.136363636 60.3870497,0.136363636 L60.5265001,0 Z M0.00502453226,0.545454545 L0.00502453226,1.5 C-0.134425872,1.5 2.65458222,2.04545455 5.1646895,3 C8.3720488,4.09090909 8.65094961,4.77272727 9.20875123,6.95454545 L15.2051186,29.5909091 L23.1537917,29.5909091 L35.2859769,0.545454545 L27.3373038,0.545454545 L19.5280812,20.3181818 L16.3207219,3.54545455 C16.041821,1.63636364 14.5078666,0.545454545 12.6950113,0.545454545 L0.00502453226,0.545454545 Z M38.4933362,0.545454545 L32.218068,29.5909091 L39.7483898,29.5909091 L46.023658,0.545454545 L38.4933362,0.545454545 L38.4933362,0.545454545 Z M80.6073583,0.545454545 C78.7945031,0.545454545 77.8183502,1.5 77.1210982,3.27272727 L66.1045163,29.5909091 L74.0531893,29.5909091 L75.5871438,25.2272727 L85.2092217,25.2272727 L86.1853745,29.5909091 L93.1578947,29.5909091 L87.0220769,0.545454545 L80.6073583,0.545454545 Z M81.5835112,8.31818182 L83.954168,19.2272727 L77.6788998,19.2272727 L81.5835112,8.31818182 Z" id="Shape"></path>
        </g>
    </g>
</svg>