<?xml version="1.0" encoding="UTF-8"?>
<svg width="30px" height="30px" viewBox="0 0 30 30" version="1.1" xmlns="http://www.w3.org/2000/svg" xmlns:xlink="http://www.w3.org/1999/xlink">
    <title>yt_icon</title>
    <defs>
        <path d="M0,0 L30,0 L30,30 L0,30 L0,0 Z" id="path-1"></path>
    </defs>
    <g id="yt_icon" stroke="none" fill="none" xlink:href="#path-1" fill-rule="nonzero">
        <path d="M29.2426094,8.28578906 C28.8991172,6.99242969 27.8870703,5.97382031 26.6020781,5.62814062 C24.2729375,5 14.9333516,5 14.9333516,5 C14.9333516,5 5.59382031,5 3.264625,5.62814062 C1.97963281,5.973875 0.967585937,6.99242969 0.62409375,8.28578906 C0,10.6300781 0,15.5212188 0,15.5212188 C0,15.5212188 0,20.4123594 0.62409375,22.7566484 C0.967585937,24.0500078 1.97963281,25.0261797 3.264625,25.3718594 C5.59382031,26 14.9333516,26 14.9333516,26 C14.9333516,26 24.2728828,26 26.6020781,25.3718594 C27.8870703,25.0261797 28.8991172,24.0500078 29.2426094,22.7566484 C29.8667031,20.4123594 29.8667031,15.5212188 29.8667031,15.5212188 C29.8667031,15.5212188 29.8667031,10.6300781 29.2426094,8.28578906 Z M11.8787812,19.9620078 L11.8787812,11.0804297 L19.6848203,15.5213281 L11.8787812,19.9620078 Z" id="Shape" fill="#0099D4"></path>
    </g>
</svg>